{
DisplayStrings = (
/Lcaron/Gcommaaccent/Kcommaaccent/Lcommaaccent/Ncommaaccent/Rcommaaccent/Scommaaccent/Tcommaaccent/kcommaaccent/lcaron/lcommaaccent/ncommaaccent/scommaaccent/tcommaaccent,
"nnnnonoo\012hhnnhhninfnnjnlnpnrnmsnnknvnwnxntnnznn/dotlessi ncnenuynnbnnqngnd\012nanbncndnenfngnhninjnknlnmnnonpnqnrnsntnunvnwnxnynzn\012nnHHNHXHYHZHWHVHAHOOQOCOHFEHDHGHCHJHBHPHRHLKHUHVITHSH\012HAHBHCHDHEHFHGHHIHJHKHLHMHNHOHPHQHRHSHTHUHVHWHXHYHZH\012AA\U00C1AA\U00C1/Abreve AVA\012aabacadaeafagahaiajakalamanaoapaqarasatauavawaxayaza\012babbcbdbebfbgbhbibjbkblbmbnbobpbqbrbsbtbubvbwbxbybzb\012cacbccdcecfcgchcicjckclcmcncocpcqcrcsctcucvcwcxcyczc\012dadbdcddedfdgdhdidjdkdldmdndodpdqdrdsdtdudvdwdxdydzd\012eaebecedeefegeheiejekelemeneoepeqereseteuevewexeyeze\012fafbfcfdfeffgfhfifjfkflfmfnfofpfqfrfsftfufvfwfxfyfzf\012gagbgcgdgegfgghgigjgkglgmgngogpgqgrgsgtgugvgwgxgygzg\012hahbhchdhehfhghhihjhkhlhmhnhohphqhrhshthuhvhwhxhyhzh\012iaibicidieifigihiijikiliminioipiqirisitiuiviwixiyizi\012jajbjcjdjejfjgjhjijjkjljmjnjojpjrjsjtjujvjwjxjyjzj\012kakbkckdkekfkgkhkikjkklkmknkokpkqkrksktkukvkwkxkykzk\012lalblcldlelflglhliljlkllmlnlolplqlrlsltlulvlwlxlylzl\012mambmcmdmemfmgmhmimjmkmlmmnmompmqmrmsmtmumvmwmxmymzm\012nanbncndnenfngnhninjnknlnmnnonpnqnrnsntnunvnwnxnynzn\012oaobocodoeofogohoiojokolomonoopoqorosotouovowoxoyozo\012papbpcpdpepfpgphpipjpkplpmpnpoppqprpsptpupvpwpxpypzp\012qaqbqcqdqeqfqgqhqiqjqkqlqmqnqoqpqqrqsqtquqvqwqxqyqzq\012rarbrcrdrerfrgrhrirjrkrlrmrnrorprqrrsrtrurvrwrxryrzr\012sasbscsdsesfsgshsisjskslsmsnsospsqsrsstsusvswsxsyszs\012tatbtctdtetftgthtitjtktltmtntotptqtrtsttutvtwtxtytzt\012uaubucudueufuguhuiujukulumunuoupuqurusutuuvuwuxuyuzu\012vavbvcvdvevfvgvhvivjvkvlvmvnvovpvqvrvsvtvuvvwvxvyvzv\012wawbwcwdwewfwgwhwiwjwkwlwmwnwowpwqwrwswtwuwvwwxwywzw\012xaxbxcxdxexfxgxhxixjxkxlxmxnxoxpxqxrxsxtxuxvxwxxyxzx\012yaybycydyeyfygyhyiyjykylymynyoypyqyrysytyuyvywyyzy\012zazbzczdzezfzgzhzizjzkzlzmznzozpzqzrzsztzuzvzwzxzyzz"
);
copyright = "Copyright \U00A9 2015 by Lipi Raval.";

glyphs = (
{
glyphname = A;
lastChange = "2015-09-21 15:08:14 +0000";
layers = (
{
anchors = (
{
name = top;
position = "{371, 733}";
}
);
background = {
paths = (
{
closed = 1;
nodes = (
"246 700 OFFCURVE",
"47 246 OFFCURVE",
"-26 76 CURVE",
"-7 4 OFFCURVE",
"60 -13 OFFCURVE",
"136 8 CURVE",
"186 157 OFFCURVE",
"250 345 OFFCURVE",
"329 532 CURVE",
"337 384 OFFCURVE",
"327 98 OFFCURVE",
"335 68 CURVE SMOOTH",
"344 34 OFFCURVE",
"451 -8 OFFCURVE",
"490 1 CURVE SMOOTH",
"520 10 OFFCURVE",
"490 222 OFFCURVE",
"481 327 CURVE SMOOTH",
"471 450 OFFCURVE",
"450 586 OFFCURVE",
"443 616 CURVE SMOOTH",
"434 650 OFFCURVE",
"327 700 OFFCURVE",
"288 700 CURVE SMOOTH"
);
},
{
closed = 1;
nodes = (
"409 340 LINE",
"331 328 OFFCURVE",
"225 318 OFFCURVE",
"158 316 CURVE",
"113 274 OFFCURVE",
"123 209 OFFCURVE",
"167 177 CURVE",
"211 179 OFFCURVE",
"315 191 OFFCURVE",
"382 201 CURVE"
);
}
);
};
layerId = "AF1B7CCB-9C31-456C-8386-1D362D80AEF6";
name = "Bold Italic";
paths = (
{
closed = 1;
nodes = (
"248 700 OFFCURVE",
"59 270 OFFCURVE",
"-27 78 CURVE",
"-10 7 OFFCURVE",
"50 -13 OFFCURVE",
"127 5 CURVE",
"185 162 OFFCURVE",
"249 357 OFFCURVE",
"328 544 CURVE",
"336 396 OFFCURVE",
"327 98 OFFCURVE",
"335 68 CURVE SMOOTH",
"344 34 OFFCURVE",
"451 -8 OFFCURVE",
"490 1 CURVE SMOOTH",
"520 10 OFFCURVE",
"490 222 OFFCURVE",
"481 327 CURVE SMOOTH",
"471 450 OFFCURVE",
"450 586 OFFCURVE",
"443 616 CURVE SMOOTH",
"434 650 OFFCURVE",
"327 700 OFFCURVE",
"288 700 CURVE SMOOTH"
);
},
{
closed = 1;
nodes = (
"409 340 LINE",
"331 328 OFFCURVE",
"225 318 OFFCURVE",
"158 316 CURVE",
"113 274 OFFCURVE",
"123 209 OFFCURVE",
"167 177 CURVE",
"211 179 OFFCURVE",
"315 191 OFFCURVE",
"382 201 CURVE"
);
}
);
width = 556;
}
);
unicode = 0041;
},
{
glyphname = AE;
lastChange = "2015-09-21 14:00:59 +0000";
layers = (
{
background = {
paths = (
{
closed = 1;
nodes = (
"248 700 OFFCURVE",
"59 270 OFFCURVE",
"-27 78 CURVE",
"-10 7 OFFCURVE",
"50 -13 OFFCURVE",
"127 5 CURVE",
"185 162 OFFCURVE",
"249 357 OFFCURVE",
"328 544 CURVE",
"336 396 OFFCURVE",
"327 98 OFFCURVE",
"335 68 CURVE SMOOTH",
"344 34 OFFCURVE",
"451 -8 OFFCURVE",
"490 1 CURVE SMOOTH",
"520 10 OFFCURVE",
"490 222 OFFCURVE",
"481 327 CURVE SMOOTH",
"471 450 OFFCURVE",
"450 586 OFFCURVE",
"443 616 CURVE SMOOTH",
"434 650 OFFCURVE",
"327 700 OFFCURVE",
"288 700 CURVE SMOOTH"
);
},
{
closed = 1;
nodes = (
"409 340 LINE",
"331 328 OFFCURVE",
"225 318 OFFCURVE",
"158 316 CURVE",
"113 274 OFFCURVE",
"123 209 OFFCURVE",
"167 177 CURVE",
"211 179 OFFCURVE",
"315 191 OFFCURVE",
"382 201 CURVE"
);
},
{
closed = 1;
nodes = (
"636 684 OFFCURVE",
"465 681 OFFCURVE",
"334 679 CURVE",
"285 630 OFFCURVE",
"299 559 OFFCURVE",
"345 536 CURVE",
"387 539 LINE",
"378 484 OFFCURVE",
"368 438 OFFCURVE",
"355 371 CURVE SMOOTH",
"334 260 OFFCURVE",
"299 126 OFFCURVE",
"299 101 CURVE SMOOTH",
"299 66 OFFCURVE",
"384 0 OFFCURVE",
"420 0 CURVE SMOOTH",
"496 0 OFFCURVE",
"612 6 OFFCURVE",
"702 24 CURVE",
"753 74 OFFCURVE",
"739 155 OFFCURVE",
"674 183 CURVE",
"599 157 OFFCURVE",
"538 145 OFFCURVE",
"459 137 CURVE",
"467 177 OFFCURVE",
"477 223 OFFCURVE",
"487 275 CURVE",
"547 280 OFFCURVE",
"633 285 OFFCURVE",
"688 289 CURVE",
"731 321 OFFCURVE",
"732 402 OFFCURVE",
"679 432 CURVE",
"632 421 OFFCURVE",
"574 413 OFFCURVE",
"510 408 CURVE",
"521 463 OFFCURVE",
"530 501 OFFCURVE",
"542 544 CURVE",
"608 550 OFFCURVE",
"698 553 OFFCURVE",
"757 554 CURVE",
"795 590 OFFCURVE",
"799 671 OFFCURVE",
"748 700 CURVE"
);
}
);
};
layerId = "AF1B7CCB-9C31-456C-8386-1D362D80AEF6";
name = "Bold Italic";
paths = (
{
closed = 1;
nodes = (
"652 694 OFFCURVE",
"572 689 OFFCURVE",
"505 689 CURVE SMOOTH",
"405 689 OFFCURVE",
"339 700 OFFCURVE",
"308 700 CURVE SMOOTH",
"248 700 OFFCURVE",
"59 270 OFFCURVE",
"-27 78 CURVE",
"-10 7 OFFCURVE",
"50 -13 OFFCURVE",
"127 5 CURVE",
"147 59 OFFCURVE",
"168 117 OFFCURVE",
"189 178 CURVE",
"243 183 OFFCURVE",
"300 190 OFFCURVE",
"345 196 CURVE",
"333 146 OFFCURVE",
"325 91 OFFCURVE",
"329 74 CURVE SMOOTH",
"335 50 OFFCURVE",
"411 0 OFFCURVE",
"449 0 CURVE SMOOTH",
"528 0 OFFCURVE",
"625 8 OFFCURVE",
"702 24 CURVE",
"753 74 OFFCURVE",
"739 155 OFFCURVE",
"674 183 CURVE",
"593 157 OFFCURVE",
"541 145 OFFCURVE",
"459 137 CURVE",
"488 279 LINE",
"547 284 OFFCURVE",
"633 289 OFFCURVE",
"688 293 CURVE",
"731 325 OFFCURVE",
"732 406 OFFCURVE",
"679 442 CURVE",
"632 425 OFFCURVE",
"574 417 OFFCURVE",
"497 412 CURVE",
"523 549 LINE",
"590 556 OFFCURVE",
"685 560 OFFCURVE",
"757 564 CURVE",
"795 600 OFFCURVE",
"799 681 OFFCURVE",
"748 710 CURVE"
);
},
{
closed = 1;
nodes = (
"357 468 OFFCURVE",
"362 401 OFFCURVE",
"359 332 CURVE",
"332 329 OFFCURVE",
"274 324 OFFCURVE",
"241 321 CURVE",
"272 405 OFFCURVE",
"303 476 OFFCURVE",
"346 556 CURVE"
);
}
);
width = 788;
},
{
associatedMasterId = "AF1B7CCB-9C31-456C-8386-1D362D80AEF6";
layerId = UUID0;
name = Bold;
paths = (
{
closed = 1;
nodes = (
"169 0 LINE",
"313 286 LINE",
"402 462 OFFCURVE",
"471 609 OFFCURVE",
"487 674 CURVE",
"333 674 LINE",
"8 0 LINE"
);
},
{
closed = 1;
nodes = (
"529 138 LINE",
"529 262 LINE",
"214 262 LINE",
"214 138 LINE"
);
},
{
closed = 1;
nodes = (
"880 0 LINE",
"880 123 LINE",
"519 123 LINE",
"519 0 LINE"
);
},
{
closed = 1;
nodes = (
"616 0 LINE",
"616 674 LINE",
"467 674 LINE",
"467 0 LINE"
);
},
{
closed = 1;
nodes = (
"848 276 LINE",
"848 398 LINE",
"519 398 LINE",
"519 276 LINE"
);
},
{
closed = 1;
nodes = (
"876 551 LINE",
"876 674 LINE",
"519 674 LINE",
"519 551 LINE"
);
}
);
width = 940;
}
);
leftMetricsKey = A;
rightMetricsKey = E;
unicode = 00C6;
},
{
glyphname = B;
lastChange = "2015-09-21 12:46:56 +0000";
layers = (
{
background = {
paths = (
{
closed = 1;
nodes = (
"521 353 OFFCURVE",
"575 431 OFFCURVE",
"575 501 CURVE SMOOTH",
"575 613 OFFCURVE",
"421 710 OFFCURVE",
"236 710 CURVE SMOOTH",
"194 710 OFFCURVE",
"150 704 OFFCURVE",
"89 690 CURVE",
"57 637 OFFCURVE",
"73 581 OFFCURVE",
"106 547 CURVE",
"139 555 LINE",
"123 454 OFFCURVE",
"54 157 OFFCURVE",
"54 123 CURVE SMOOTH",
"54 81 OFFCURVE",
"149 -5 OFFCURVE",
"211 -5 CURVE SMOOTH",
"409 -5 OFFCURVE",
"556 99 OFFCURVE",
"556 197 CURVE SMOOTH",
"556 252 OFFCURVE",
"511 304 OFFCURVE",
"416 319 CURVE"
);
},
{
closed = 1;
nodes = (
"264 421 OFFCURVE",
"273 495 OFFCURVE",
"283 557 CURVE",
"373 569 OFFCURVE",
"430 532 OFFCURVE",
"430 489 CURVE SMOOTH",
"430 436 OFFCURVE",
"372 383 OFFCURVE",
"253 367 CURVE"
);
},
{
closed = 1;
nodes = (
"216 172 OFFCURVE",
"233 229 OFFCURVE",
"246 274 CURVE",
"272 278 OFFCURVE",
"294 279 OFFCURVE",
"313 278 CURVE SMOOTH",
"367 273 OFFCURVE",
"387 243 OFFCURVE",
"384 213 CURVE SMOOTH",
"380 165 OFFCURVE",
"324 124 OFFCURVE",
"202 116 CURVE"
);
}
);
};
layerId = "AF1B7CCB-9C31-456C-8386-1D362D80AEF6";
name = "Bold Italic";
paths = (
{
closed = 1;
nodes = (
"521 353 OFFCURVE",
"575 426 OFFCURVE",
"575 496 CURVE SMOOTH",
"575 608 OFFCURVE",
"421 705 OFFCURVE",
"236 705 CURVE SMOOTH",
"194 705 OFFCURVE",
"150 699 OFFCURVE",
"89 685 CURVE",
"57 632 OFFCURVE",
"71 579 OFFCURVE",
"104 545 CURVE",
"139 550 LINE",
"120 442 OFFCURVE",
"54 154 OFFCURVE",
"54 123 CURVE SMOOTH",
"54 81 OFFCURVE",
"149 -5 OFFCURVE",
"211 -5 CURVE SMOOTH",
"409 -5 OFFCURVE",
"556 99 OFFCURVE",
"556 197 CURVE SMOOTH",
"556 252 OFFCURVE",
"511 304 OFFCURVE",
"416 319 CURVE"
);
},
{
closed = 1;
nodes = (
"264 421 OFFCURVE",
"273 490 OFFCURVE",
"283 552 CURVE",
"373 564 OFFCURVE",
"430 527 OFFCURVE",
"430 484 CURVE SMOOTH",
"430 431 OFFCURVE",
"372 383 OFFCURVE",
"253 367 CURVE"
);
},
{
closed = 1;
nodes = (
"216 172 OFFCURVE",
"233 229 OFFCURVE",
"246 274 CURVE",
"272 278 OFFCURVE",
"294 279 OFFCURVE",
"313 278 CURVE SMOOTH",
"367 273 OFFCURVE",
"387 243 OFFCURVE",
"384 213 CURVE SMOOTH",
"380 165 OFFCURVE",
"324 124 OFFCURVE",
"202 116 CURVE"
);
}
);
width = 604;
},
{
associatedMasterId = "AF1B7CCB-9C31-456C-8386-1D362D80AEF6";
background = {
paths = (
{
closed = 1;
nodes = (
"511 370 OFFCURVE",
"568 420 OFFCURVE",
"568 501 CURVE SMOOTH",
"568 600 OFFCURVE",
"414 697 OFFCURVE",
"229 697 CURVE SMOOTH",
"187 697 OFFCURVE",
"143 691 OFFCURVE",
"82 677 CURVE",
"50 624 OFFCURVE",
"66 568 OFFCURVE",
"99 534 CURVE",
"132 542 LINE",
"116 441 OFFCURVE",
"50 162 OFFCURVE",
"50 128 CURVE SMOOTH",
"50 89 OFFCURVE",
"160 0 OFFCURVE",
"207 0 CURVE SMOOTH",
"409 0 OFFCURVE",
"558 128 OFFCURVE",
"558 225 CURVE SMOOTH",
"558 278 OFFCURVE",
"512 322 OFFCURVE",
"406 330 CURVE"
);
},
{
closed = 1;
nodes = (
"257 421 OFFCURVE",
"266 482 OFFCURVE",
"276 544 CURVE",
"366 556 OFFCURVE",
"423 519 OFFCURVE",
"423 476 CURVE SMOOTH",
"423 428 OFFCURVE",
"365 383 OFFCURVE",
"246 365 CURVE"
);
},
{
closed = 1;
nodes = (
"217 173 OFFCURVE",
"226 227 OFFCURVE",
"235 273 CURVE",
"260 279 OFFCURVE",
"282 282 OFFCURVE",
"301 282 CURVE SMOOTH",
"356 282 OFFCURVE",
"385 259 OFFCURVE",
"385 229 CURVE SMOOTH",
"385 180 OFFCURVE",
"328 135 OFFCURVE",
"208 116 CURVE"
);
}
);
};
layerId = "83E1D8AD-2654-4F81-9DFF-85B49A14E451";
name = "Bold Italic Aug 13 15, 20:51";
paths = (
{
closed = 1;
nodes = (
"511 370 OFFCURVE",
"568 420 OFFCURVE",
"568 501 CURVE SMOOTH",
"568 600 OFFCURVE",
"414 697 OFFCURVE",
"229 697 CURVE SMOOTH",
"187 697 OFFCURVE",
"143 691 OFFCURVE",
"82 677 CURVE",
"50 624 OFFCURVE",
"66 568 OFFCURVE",
"99 534 CURVE",
"132 542 LINE",
"116 441 OFFCURVE",
"50 162 OFFCURVE",
"50 128 CURVE SMOOTH",
"50 89 OFFCURVE",
"160 0 OFFCURVE",
"207 0 CURVE SMOOTH",
"399 0 OFFCURVE",
"558 121 OFFCURVE",
"558 215 CURVE SMOOTH",
"558 278 OFFCURVE",
"498 330 OFFCURVE",
"406 330 CURVE"
);
},
{
closed = 1;
nodes = (
"257 421 OFFCURVE",
"266 482 OFFCURVE",
"276 544 CURVE",
"366 556 OFFCURVE",
"423 519 OFFCURVE",
"423 476 CURVE SMOOTH",
"423 428 OFFCURVE",
"365 383 OFFCURVE",
"246 365 CURVE"
);
},
{
closed = 1;
nodes = (
"217 173 OFFCURVE",
"226 227 OFFCURVE",
"235 273 CURVE",
"260 279 OFFCURVE",
"282 282 OFFCURVE",
"301 282 CURVE SMOOTH",
"356 282 OFFCURVE",
"385 259 OFFCURVE",
"385 229 CURVE SMOOTH",
"385 180 OFFCURVE",
"328 135 OFFCURVE",
"208 116 CURVE"
);
}
);
width = 605;
},
{
associatedMasterId = "AF1B7CCB-9C31-456C-8386-1D362D80AEF6";
background = {
paths = (
{
closed = 1;
nodes = (
"518 366 OFFCURVE",
"571 431 OFFCURVE",
"571 508 CURVE SMOOTH",
"571 613 OFFCURVE",
"417 710 OFFCURVE",
"232 710 CURVE SMOOTH",
"190 710 OFFCURVE",
"146 704 OFFCURVE",
"85 690 CURVE",
"53 637 OFFCURVE",
"69 581 OFFCURVE",
"102 547 CURVE",
"135 555 LINE",
"119 454 OFFCURVE",
"50 157 OFFCURVE",
"50 123 CURVE SMOOTH",
"50 84 OFFCURVE",
"160 -5 OFFCURVE",
"207 -5 CURVE SMOOTH",
"399 -5 OFFCURVE",
"560 116 OFFCURVE",
"560 210 CURVE SMOOTH",
"560 273 OFFCURVE",
"501 330 OFFCURVE",
"409 330 CURVE"
);
},
{
closed = 1;
nodes = (
"260 421 OFFCURVE",
"269 495 OFFCURVE",
"279 557 CURVE",
"369 569 OFFCURVE",
"426 532 OFFCURVE",
"426 489 CURVE SMOOTH",
"426 436 OFFCURVE",
"368 383 OFFCURVE",
"249 367 CURVE"
);
},
{
closed = 1;
nodes = (
"217 168 OFFCURVE",
"229 227 OFFCURVE",
"238 273 CURVE",
"263 279 OFFCURVE",
"285 282 OFFCURVE",
"304 282 CURVE SMOOTH",
"359 282 OFFCURVE",
"387 254 OFFCURVE",
"387 224 CURVE SMOOTH",
"387 175 OFFCURVE",
"328 130 OFFCURVE",
"208 111 CURVE"
);
}
);
};
layerId = "20610CCD-1E35-4977-909E-3B69CEE4473C";
name = "Bold Italic Aug 13 15, 21:43";
paths = (
{
closed = 1;
nodes = (
"518 367 OFFCURVE",
"571 431 OFFCURVE",
"571 508 CURVE SMOOTH",
"571 613 OFFCURVE",
"417 710 OFFCURVE",
"232 710 CURVE SMOOTH",
"190 710 OFFCURVE",
"146 704 OFFCURVE",
"85 690 CURVE",
"53 637 OFFCURVE",
"69 581 OFFCURVE",
"102 547 CURVE",
"135 555 LINE",
"119 454 OFFCURVE",
"50 157 OFFCURVE",
"50 123 CURVE SMOOTH",
"50 84 OFFCURVE",
"160 -5 OFFCURVE",
"207 -5 CURVE SMOOTH",
"399 -5 OFFCURVE",
"554 116 OFFCURVE",
"554 210 CURVE SMOOTH",
"554 273 OFFCURVE",
"498 326 OFFCURVE",
"403 332 CURVE"
);
},
{
closed = 1;
nodes = (
"260 421 OFFCURVE",
"269 495 OFFCURVE",
"279 557 CURVE",
"369 569 OFFCURVE",
"426 532 OFFCURVE",
"426 489 CURVE SMOOTH",
"426 436 OFFCURVE",
"368 383 OFFCURVE",
"249 367 CURVE"
);
},
{
closed = 1;
nodes = (
"217 168 OFFCURVE",
"229 227 OFFCURVE",
"238 273 CURVE",
"263 279 OFFCURVE",
"285 282 OFFCURVE",
"304 282 CURVE SMOOTH",
"359 282 OFFCURVE",
"381 254 OFFCURVE",
"381 224 CURVE SMOOTH",
"381 175 OFFCURVE",
"328 130 OFFCURVE",
"208 111 CURVE"
);
}
);
width = 600;
}
);
leftMetricsKey = D;
unicode = 0042;
},
{
glyphname = C;
lastChange = "2015-09-21 12:45:12 +0000";
layers = (
{
anchors = (
{
name = top;
position = "{348, 733}";
}
);
background = {
paths = (
{
closed = 1;
nodes = (
"513 161 OFFCURVE",
"484 234 OFFCURVE",
"401 254 CURVE",
"350 210 OFFCURVE",
"276 168 OFFCURVE",
"184 151 CURVE",
"186 326 OFFCURVE",
"273 565 OFFCURVE",
"337 565 CURVE SMOOTH",
"369 565 OFFCURVE",
"368 514 OFFCURVE",
"365 441 CURVE",
"442 413 OFFCURVE",
"531 435 OFFCURVE",
"530 513 CURVE SMOOTH",
"530 589 OFFCURVE",
"447 700 OFFCURVE",
"334 700 CURVE SMOOTH",
"124 700 OFFCURVE",
"20 387 OFFCURVE",
"19 190 CURVE SMOOTH",
"18 128 OFFCURVE",
"135 0 OFFCURVE",
"224 0 CURVE SMOOTH",
"316 0 OFFCURVE",
"444 62 OFFCURVE",
"484 102 CURVE"
);
}
);
};
layerId = "AF1B7CCB-9C31-456C-8386-1D362D80AEF6";
name = "Bold Italic";
paths = (
{
closed = 1;
nodes = (
"513 156 OFFCURVE",
"484 229 OFFCURVE",
"401 249 CURVE",
"350 205 OFFCURVE",
"276 163 OFFCURVE",
"182 146 CURVE",
"186 317 OFFCURVE",
"267 575 OFFCURVE",
"338 575 CURVE SMOOTH",
"370 575 OFFCURVE",
"369 524 OFFCURVE",
"366 451 CURVE",
"443 423 OFFCURVE",
"532 445 OFFCURVE",
"531 523 CURVE SMOOTH",
"531 599 OFFCURVE",
"448 710 OFFCURVE",
"335 710 CURVE SMOOTH",
"118 710 OFFCURVE",
"20 378 OFFCURVE",
"19 185 CURVE SMOOTH",
"19 112 OFFCURVE",
"147 -5 OFFCURVE",
"219 -5 CURVE SMOOTH",
"316 -5 OFFCURVE",
"444 57 OFFCURVE",
"484 97 CURVE"
);
}
);
width = 547;
},
{
associatedMasterId = "AF1B7CCB-9C31-456C-8386-1D362D80AEF6";
background = {
paths = (
{
closed = 1;
nodes = (
"516 161 OFFCURVE",
"486 234 OFFCURVE",
"403 254 CURVE",
"352 210 OFFCURVE",
"279 168 OFFCURVE",
"187 151 CURVE",
"187 326 OFFCURVE",
"272 565 OFFCURVE",
"336 565 CURVE SMOOTH",
"368 565 OFFCURVE",
"368 514 OFFCURVE",
"365 441 CURVE",
"442 413 OFFCURVE",
"531 435 OFFCURVE",
"530 513 CURVE SMOOTH",
"529 589 OFFCURVE",
"445 700 OFFCURVE",
"332 700 CURVE SMOOTH",
"122 700 OFFCURVE",
"21 387 OFFCURVE",
"21 190 CURVE SMOOTH",
"21 128 OFFCURVE",
"139 0 OFFCURVE",
"228 0 CURVE SMOOTH",
"320 0 OFFCURVE",
"447 62 OFFCURVE",
"487 102 CURVE"
);
}
);
};
layerId = "D522DEC0-BBF4-4D6C-BA58-6B08608F19D9";
name = "Bold Italic Aug 13 15, 20:46";
paths = (
{
closed = 1;
nodes = (
"517 161 OFFCURVE",
"488 234 OFFCURVE",
"405 254 CURVE",
"354 210 OFFCURVE",
"280 168 OFFCURVE",
"188 151 CURVE",
"190 326 OFFCURVE",
"277 565 OFFCURVE",
"341 565 CURVE SMOOTH",
"373 565 OFFCURVE",
"372 514 OFFCURVE",
"369 441 CURVE",
"446 413 OFFCURVE",
"535 435 OFFCURVE",
"534 513 CURVE SMOOTH",
"534 589 OFFCURVE",
"451 700 OFFCURVE",
"338 700 CURVE SMOOTH",
"128 700 OFFCURVE",
"24 387 OFFCURVE",
"23 190 CURVE SMOOTH",
"22 128 OFFCURVE",
"139 0 OFFCURVE",
"228 0 CURVE SMOOTH",
"320 0 OFFCURVE",
"448 62 OFFCURVE",
"488 102 CURVE"
);
}
);
width = 540;
}
);
leftMetricsKey = O;
unicode = 0043;
},
{
glyphname = D;
lastChange = "2015-09-21 12:44:42 +0000";
layers = (
{
anchors = (
{
name = top;
position = "{320, 733}";
}
);
background = {
paths = (
{
closed = 1;
nodes = (
"71 674 OFFCURVE",
"53 613 OFFCURVE",
"86 547 CURVE",
"127 545 LINE",
"116 487 OFFCURVE",
"94 428 OFFCURVE",
"83 370 CURVE SMOOTH",
"60 255 OFFCURVE",
"30 160 OFFCURVE",
"30 134 CURVE SMOOTH",
"30 95 OFFCURVE",
"135 0 OFFCURVE",
"187 0 CURVE SMOOTH",
"381 0 OFFCURVE",
"577 238 OFFCURVE",
"576 367 CURVE SMOOTH",
"574 537 OFFCURVE",
"374 689 OFFCURVE",
"129 710 CURVE"
);
},
{
closed = 1;
nodes = (
"215 264 OFFCURVE",
"243 380 OFFCURVE",
"270 517 CURVE",
"347 501 OFFCURVE",
"422 445 OFFCURVE",
"423 399 CURVE SMOOTH",
"423 325 OFFCURVE",
"321 199 OFFCURVE",
"190 131 CURVE"
);
}
);
};
layerId = "AF1B7CCB-9C31-456C-8386-1D362D80AEF6";
name = "Bold Italic";
paths = (
{
closed = 1;
nodes = (
"71 674 OFFCURVE",
"53 613 OFFCURVE",
"86 547 CURVE",
"127 545 LINE",
"116 487 OFFCURVE",
"94 428 OFFCURVE",
"83 370 CURVE SMOOTH",
"60 255 OFFCURVE",
"30 155 OFFCURVE",
"30 129 CURVE SMOOTH",
"30 89 OFFCURVE",
"138 -5 OFFCURVE",
"190 -5 CURVE SMOOTH",
"345 -5 OFFCURVE",
"577 216 OFFCURVE",
"576 367 CURVE SMOOTH",
"574 537 OFFCURVE",
"374 689 OFFCURVE",
"129 710 CURVE"
);
},
{
closed = 1;
nodes = (
"215 259 OFFCURVE",
"243 380 OFFCURVE",
"270 517 CURVE",
"347 501 OFFCURVE",
"423 447 OFFCURVE",
"423 394 CURVE SMOOTH",
"423 305 OFFCURVE",
"321 194 OFFCURVE",
"190 126 CURVE"
);
}
);
width = 597;
},
{
associatedMasterId = "AF1B7CCB-9C31-456C-8386-1D362D80AEF6";
background = {
paths = (
{
closed = 1;
nodes = (
"72 674 OFFCURVE",
"53 613 OFFCURVE",
"86 547 CURVE",
"127 545 LINE",
"115 487 OFFCURVE",
"93 428 OFFCURVE",
"81 370 CURVE SMOOTH",
"57 255 OFFCURVE",
"26 160 OFFCURVE",
"26 134 CURVE SMOOTH",
"26 95 OFFCURVE",
"130 0 OFFCURVE",
"182 0 CURVE SMOOTH",
"376 0 OFFCURVE",
"574 238 OFFCURVE",
"574 367 CURVE SMOOTH",
"574 537 OFFCURVE",
"375 689 OFFCURVE",
"130 710 CURVE"
);
},
{
closed = 1;
nodes = (
"212 264 OFFCURVE",
"241 380 OFFCURVE",
"270 517 CURVE",
"346 501 OFFCURVE",
"421 445 OFFCURVE",
"421 399 CURVE SMOOTH",
"421 325 OFFCURVE",
"318 199 OFFCURVE",
"186 131 CURVE"
);
}
);
};
layerId = "49FDD509-373B-43F5-A5FB-11FFBB58E2AB";
name = "Bold Italic Aug 13 15, 20:50";
paths = (
{
closed = 1;
nodes = (
"66 674 OFFCURVE",
"48 613 OFFCURVE",
"81 547 CURVE",
"122 545 LINE",
"111 487 OFFCURVE",
"89 428 OFFCURVE",
"78 370 CURVE SMOOTH",
"55 255 OFFCURVE",
"25 160 OFFCURVE",
"25 134 CURVE SMOOTH",
"25 95 OFFCURVE",
"130 0 OFFCURVE",
"182 0 CURVE SMOOTH",
"376 0 OFFCURVE",
"572 238 OFFCURVE",
"571 367 CURVE SMOOTH",
"569 537 OFFCURVE",
"369 689 OFFCURVE",
"124 710 CURVE"
);
},
{
closed = 1;
nodes = (
"210 264 OFFCURVE",
"238 380 OFFCURVE",
"265 517 CURVE",
"342 501 OFFCURVE",
"417 445 OFFCURVE",
"418 399 CURVE SMOOTH",
"418 325 OFFCURVE",
"316 199 OFFCURVE",
"185 131 CURVE"
);
}
);
width = 593;
}
);
rightMetricsKey = O;
unicode = 0044;
},
{
glyphname = E;
lastChange = "2015-09-21 12:45:49 +0000";
layers = (
{
anchors = (
{
name = top;
position = "{351, 733}";
},
{
name = top.dotaccent;
position = "{343, 733}";
}
);
background = {
paths = (
{
closed = 1;
nodes = (
"383 684 OFFCURVE",
"230 681 OFFCURVE",
"99 679 CURVE",
"50 630 OFFCURVE",
"64 559 OFFCURVE",
"110 536 CURVE",
"152 539 LINE",
"143 484 OFFCURVE",
"133 438 OFFCURVE",
"120 371 CURVE SMOOTH",
"99 260 OFFCURVE",
"66 135 OFFCURVE",
"64 102 CURVE SMOOTH",
"62 67 OFFCURVE",
"147 2 OFFCURVE",
"183 0 CURVE SMOOTH",
"257 -4 OFFCURVE",
"381 6 OFFCURVE",
"479 26 CURVE",
"530 76 OFFCURVE",
"516 159 OFFCURVE",
"451 187 CURVE",
"376 161 OFFCURVE",
"303 145 OFFCURVE",
"224 137 CURVE",
"232 177 OFFCURVE",
"242 223 OFFCURVE",
"252 275 CURVE",
"312 280 OFFCURVE",
"375 284 OFFCURVE",
"430 288 CURVE",
"473 320 OFFCURVE",
"474 396 OFFCURVE",
"421 426 CURVE",
"374 415 OFFCURVE",
"329 409 OFFCURVE",
"275 403 CURVE",
"286 458 OFFCURVE",
"295 501 OFFCURVE",
"307 544 CURVE",
"373 550 OFFCURVE",
"445 553 OFFCURVE",
"504 554 CURVE",
"542 590 OFFCURVE",
"546 671 OFFCURVE",
"495 700 CURVE"
);
}
);
};
layerId = "AF1B7CCB-9C31-456C-8386-1D362D80AEF6";
name = "Bold Italic";
paths = (
{
closed = 1;
nodes = (
"401 684 OFFCURVE",
"230 681 OFFCURVE",
"99 679 CURVE",
"50 630 OFFCURVE",
"64 559 OFFCURVE",
"110 536 CURVE",
"152 539 LINE",
"143 484 OFFCURVE",
"133 438 OFFCURVE",
"120 371 CURVE SMOOTH",
"99 260 OFFCURVE",
"64 126 OFFCURVE",
"64 101 CURVE SMOOTH",
"64 66 OFFCURVE",
"149 0 OFFCURVE",
"185 0 CURVE SMOOTH",
"261 0 OFFCURVE",
"377 6 OFFCURVE",
"467 24 CURVE",
"518 74 OFFCURVE",
"504 155 OFFCURVE",
"439 183 CURVE",
"364 157 OFFCURVE",
"303 145 OFFCURVE",
"224 137 CURVE",
"232 177 OFFCURVE",
"242 223 OFFCURVE",
"252 275 CURVE",
"312 280 OFFCURVE",
"398 285 OFFCURVE",
"453 289 CURVE",
"496 321 OFFCURVE",
"497 402 OFFCURVE",
"444 432 CURVE",
"397 421 OFFCURVE",
"339 413 OFFCURVE",
"275 408 CURVE",
"286 463 OFFCURVE",
"295 501 OFFCURVE",
"307 544 CURVE",
"373 550 OFFCURVE",
"463 553 OFFCURVE",
"522 554 CURVE",
"560 590 OFFCURVE",
"564 671 OFFCURVE",
"513 700 CURVE"
);
}
);
width = 553;
}
);
unicode = 0045;
},
{
glyphname = F;
lastChange = "2015-09-21 12:45:59 +0000";
layers = (
{
background = {
paths = (
{
closed = 1;
nodes = (
"401 684 OFFCURVE",
"230 681 OFFCURVE",
"99 679 CURVE",
"50 630 OFFCURVE",
"64 559 OFFCURVE",
"110 536 CURVE",
"152 539 LINE",
"136 407 OFFCURVE",
"65 146 OFFCURVE",
"65 97 CURVE SMOOTH",
"65 67 OFFCURVE",
"146 0 OFFCURVE",
"198 0 CURVE SMOOTH",
"231 0 OFFCURVE",
"231 120 OFFCURVE",
"255 275 CURVE",
"315 280 OFFCURVE",
"399 285 OFFCURVE",
"453 289 CURVE",
"496 321 OFFCURVE",
"497 402 OFFCURVE",
"444 432 CURVE",
"399 421 OFFCURVE",
"336 413 OFFCURVE",
"275 408 CURVE",
"284 449 OFFCURVE",
"295 502 OFFCURVE",
"307 544 CURVE",
"383 550 OFFCURVE",
"466 553 OFFCURVE",
"522 554 CURVE",
"560 590 OFFCURVE",
"564 671 OFFCURVE",
"513 700 CURVE"
);
}
);
};
layerId = "AF1B7CCB-9C31-456C-8386-1D362D80AEF6";
name = "Bold Italic";
paths = (
{
closed = 1;
nodes = (
"401 684 OFFCURVE",
"230 681 OFFCURVE",
"99 679 CURVE",
"50 630 OFFCURVE",
"64 559 OFFCURVE",
"110 536 CURVE",
"152 539 LINE",
"136 407 OFFCURVE",
"65 146 OFFCURVE",
"65 97 CURVE SMOOTH",
"65 67 OFFCURVE",
"146 0 OFFCURVE",
"198 0 CURVE SMOOTH",
"231 0 OFFCURVE",
"229 100 OFFCURVE",
"253 255 CURVE",
"313 260 OFFCURVE",
"397 265 OFFCURVE",
"451 269 CURVE",
"494 301 OFFCURVE",
"495 382 OFFCURVE",
"442 412 CURVE",
"397 401 OFFCURVE",
"334 393 OFFCURVE",
"273 388 CURVE",
"284 436 OFFCURVE",
"295 498 OFFCURVE",
"307 544 CURVE",
"383 550 OFFCURVE",
"466 553 OFFCURVE",
"522 554 CURVE",
"560 590 OFFCURVE",
"564 671 OFFCURVE",
"513 700 CURVE"
);
}
);
width = 517;
}
);
leftMetricsKey = E;
rightMetricsKey = E;
unicode = 0046;
},
{
glyphname = G;
lastChange = "2015-09-21 12:46:08 +0000";
layers = (
{
anchors = (
{
name = top;
position = "{380, 733}";
}
);
background = {
anchors = (
{
name = top;
position = "{348, 733}";
}
);
paths = (
{
closed = 1;
nodes = (
"338 55 LINE",
"328 40 OFFCURVE",
"305 2 OFFCURVE",
"304 -22 CURVE SMOOTH",
"303 -45 OFFCURVE",
"366 -78 OFFCURVE",
"407 -78 CURVE SMOOTH",
"458 -78 OFFCURVE",
"515 132 OFFCURVE",
"519 264 CURVE SMOOTH",
"522 345 OFFCURVE",
"489 396 OFFCURVE",
"382 396 CURVE SMOOTH",
"334 396 OFFCURVE",
"307 393 OFFCURVE",
"287 370 CURVE SMOOTH",
"272 354 OFFCURVE",
"260 284 OFFCURVE",
"270 258 CURVE SMOOTH",
"278 234 OFFCURVE",
"345 232 OFFCURVE",
"384 236 CURVE",
"380 190 LINE",
"302 161 OFFCURVE",
"225 143 OFFCURVE",
"138 144 CURVE",
"159 142 LINE",
"167 337 OFFCURVE",
"264 565 OFFCURVE",
"338 565 CURVE SMOOTH",
"381 565 OFFCURVE",
"387 529 OFFCURVE",
"379 457 CURVE",
"460 423 OFFCURVE",
"529 451 OFFCURVE",
"529 516 CURVE SMOOTH",
"529 608 OFFCURVE",
"456 700 OFFCURVE",
"351 700 CURVE SMOOTH",
"152 700 OFFCURVE",
"28 409 OFFCURVE",
"16 211 CURVE SMOOTH",
"11 133 OFFCURVE",
"116 3 OFFCURVE",
"181 3 CURVE SMOOTH",
"215 3 OFFCURVE",
"289 34 OFFCURVE",
"328 65 CURVE"
);
}
);
};
layerId = "AF1B7CCB-9C31-456C-8386-1D362D80AEF6";
name = "Bold Italic";
paths = (
{
closed = 1;
nodes = (
"338 49 LINE",
"328 34 OFFCURVE",
"305 -4 OFFCURVE",
"304 -28 CURVE SMOOTH",
"303 -51 OFFCURVE",
"366 -84 OFFCURVE",
"407 -84 CURVE SMOOTH",
"458 -84 OFFCURVE",
"519 162 OFFCURVE",
"519 258 CURVE SMOOTH",
"519 339 OFFCURVE",
"489 390 OFFCURVE",
"382 390 CURVE SMOOTH",
"334 390 OFFCURVE",
"307 387 OFFCURVE",
"287 364 CURVE SMOOTH",
"272 348 OFFCURVE",
"260 278 OFFCURVE",
"270 252 CURVE SMOOTH",
"278 228 OFFCURVE",
"345 226 OFFCURVE",
"384 230 CURVE",
"380 184 LINE",
"306 156 OFFCURVE",
"228 137 OFFCURVE",
"159 136 CURVE",
"167 331 OFFCURVE",
"272 575 OFFCURVE",
"338 575 CURVE SMOOTH",
"368 575 OFFCURVE",
"383 539 OFFCURVE",
"376 467 CURVE",
"457 433 OFFCURVE",
"528 461 OFFCURVE",
"528 526 CURVE SMOOTH",
"528 618 OFFCURVE",
"456 710 OFFCURVE",
"351 710 CURVE SMOOTH",
"145 710 OFFCURVE",
"28 403 OFFCURVE",
"16 205 CURVE SMOOTH",
"11 127 OFFCURVE",
"116 -3 OFFCURVE",
"181 -3 CURVE SMOOTH",
"215 -3 OFFCURVE",
"289 28 OFFCURVE",
"328 59 CURVE"
);
}
);
width = 561;
},
{
associatedMasterId = "AF1B7CCB-9C31-456C-8386-1D362D80AEF6";
background = {
paths = (
{
closed = 1;
nodes = (
"343 55 LINE",
"333 40 OFFCURVE",
"310 12 OFFCURVE",
"309 -12 CURVE SMOOTH",
"308 -41 OFFCURVE",
"364 -78 OFFCURVE",
"405 -78 CURVE SMOOTH",
"463 -78 OFFCURVE",
"520 132 OFFCURVE",
"524 264 CURVE SMOOTH",
"527 342 OFFCURVE",
"495 396 OFFCURVE",
"380 396 CURVE SMOOTH",
"332 396 OFFCURVE",
"305 393 OFFCURVE",
"285 370 CURVE SMOOTH",
"270 354 OFFCURVE",
"264 275 OFFCURVE",
"276 254 CURVE SMOOTH",
"285 238 OFFCURVE",
"350 232 OFFCURVE",
"389 236 CURVE",
"385 190 LINE",
"307 161 OFFCURVE",
"230 143 OFFCURVE",
"143 144 CURVE",
"164 142 LINE",
"172 337 OFFCURVE",
"269 565 OFFCURVE",
"355 565 CURVE SMOOTH",
"386 565 OFFCURVE",
"397 511 OFFCURVE",
"384 450 CURVE",
"460 419 OFFCURVE",
"531 452 OFFCURVE",
"534 522 CURVE SMOOTH",
"539 601 OFFCURVE",
"461 700 OFFCURVE",
"356 700 CURVE SMOOTH",
"157 700 OFFCURVE",
"33 409 OFFCURVE",
"21 211 CURVE SMOOTH",
"16 133 OFFCURVE",
"121 3 OFFCURVE",
"186 3 CURVE SMOOTH",
"220 3 OFFCURVE",
"294 34 OFFCURVE",
"333 65 CURVE"
);
}
);
};
layerId = "E2E0C9D0-86D0-4C3D-BDB4-FD671EDC8439";
name = "Bold Italic Aug 13 15, 20:48";
paths = (
{
closed = 1;
nodes = (
"343 55 LINE",
"333 40 OFFCURVE",
"310 2 OFFCURVE",
"309 -22 CURVE SMOOTH",
"308 -45 OFFCURVE",
"371 -78 OFFCURVE",
"412 -78 CURVE SMOOTH",
"463 -78 OFFCURVE",
"520 132 OFFCURVE",
"524 264 CURVE SMOOTH",
"527 345 OFFCURVE",
"494 396 OFFCURVE",
"387 396 CURVE SMOOTH",
"339 396 OFFCURVE",
"312 393 OFFCURVE",
"292 370 CURVE SMOOTH",
"277 354 OFFCURVE",
"265 284 OFFCURVE",
"275 258 CURVE SMOOTH",
"283 234 OFFCURVE",
"350 232 OFFCURVE",
"389 236 CURVE",
"385 190 LINE",
"307 161 OFFCURVE",
"230 143 OFFCURVE",
"143 144 CURVE",
"164 142 LINE",
"172 337 OFFCURVE",
"269 565 OFFCURVE",
"343 565 CURVE SMOOTH",
"386 565 OFFCURVE",
"392 529 OFFCURVE",
"384 457 CURVE",
"465 423 OFFCURVE",
"534 451 OFFCURVE",
"534 516 CURVE SMOOTH",
"534 608 OFFCURVE",
"461 700 OFFCURVE",
"356 700 CURVE SMOOTH",
"157 700 OFFCURVE",
"33 409 OFFCURVE",
"21 211 CURVE SMOOTH",
"16 133 OFFCURVE",
"121 3 OFFCURVE",
"186 3 CURVE SMOOTH",
"220 3 OFFCURVE",
"294 34 OFFCURVE",
"333 65 CURVE"
);
}
);
width = 566;
}
);
leftMetricsKey = C;
unicode = 0047;
},
{
glyphname = Gcommaaccent;
lastChange = "2015-09-19 14:08:09 +0000";
layers = (
{
components = (
{
name = G;
}
);
layerId = "AF1B7CCB-9C31-456C-8386-1D362D80AEF6";
name = "Bold Italic";
paths = (
{
closed = 1;
nodes = (
"254 -285 OFFCURVE",
"290 -231 OFFCURVE",
"326 -133 CURVE",
"305 -70 OFFCURVE",
"221 -46 OFFCURVE",
"151 -98 CURVE",
"162 -219 LINE",
"110 -307 LINE",
"119 -338 OFFCURVE",
"146 -351 OFFCURVE",
"182 -349 CURVE"
);
}
);
width = 563;
}
);
unicode = 0122;
},
{
glyphname = H;
lastChange = "2015-09-21 12:36:55 +0000";
layers = (
{
background = {
paths = (
{
closed = 1;
nodes = (
"436 420 LINE",
"358 408 OFFCURVE",
"252 398 OFFCURVE",
"185 396 CURVE",
"140 354 OFFCURVE",
"150 289 OFFCURVE",
"194 257 CURVE",
"238 259 OFFCURVE",
"342 271 OFFCURVE",
"409 281 CURVE"
);
},
{
closed = 1;
nodes = (
"189 0 OFFCURVE",
"187 135 OFFCURVE",
"216 303 CURVE SMOOTH",
"241 443 OFFCURVE",
"287 579 OFFCURVE",
"287 603 CURVE SMOOTH",
"287 638 OFFCURVE",
"190 700 OFFCURVE",
"151 700 CURVE SMOOTH",
"120 700 OFFCURVE",
"90 490 OFFCURVE",
"74 401 CURVE SMOOTH",
"50 260 OFFCURVE",
"17 127 OFFCURVE",
"18 94 CURVE SMOOTH",
"18 62 OFFCURVE",
"107 0 OFFCURVE",
"154 0 CURVE SMOOTH"
);
},
{
closed = 1;
nodes = (
"525 0 OFFCURVE",
"523 135 OFFCURVE",
"552 303 CURVE SMOOTH",
"577 443 OFFCURVE",
"623 579 OFFCURVE",
"623 603 CURVE SMOOTH",
"623 638 OFFCURVE",
"526 700 OFFCURVE",
"487 700 CURVE SMOOTH",
"456 700 OFFCURVE",
"426 490 OFFCURVE",
"410 401 CURVE SMOOTH",
"386 260 OFFCURVE",
"353 127 OFFCURVE",
"354 94 CURVE SMOOTH",
"354 62 OFFCURVE",
"443 0 OFFCURVE",
"490 0 CURVE SMOOTH"
);
}
);
};
layerId = "AF1B7CCB-9C31-456C-8386-1D362D80AEF6";
name = "Bold Italic";
paths = (
{
closed = 1;
nodes = (
"436 420 LINE",
"358 408 OFFCURVE",
"252 398 OFFCURVE",
"185 396 CURVE",
"140 354 OFFCURVE",
"150 289 OFFCURVE",
"194 257 CURVE",
"238 259 OFFCURVE",
"342 271 OFFCURVE",
"409 281 CURVE"
);
},
{
closed = 1;
nodes = (
"186 0 OFFCURVE",
"184 135 OFFCURVE",
"213 303 CURVE SMOOTH",
"238 443 OFFCURVE",
"284 579 OFFCURVE",
"284 603 CURVE SMOOTH",
"284 638 OFFCURVE",
"190 700 OFFCURVE",
"151 700 CURVE SMOOTH",
"120 700 OFFCURVE",
"90 490 OFFCURVE",
"74 401 CURVE SMOOTH",
"50 260 OFFCURVE",
"17 127 OFFCURVE",
"18 94 CURVE SMOOTH",
"18 62 OFFCURVE",
"104 0 OFFCURVE",
"151 0 CURVE SMOOTH"
);
},
{
closed = 1;
nodes = (
"522 0 OFFCURVE",
"520 135 OFFCURVE",
"549 303 CURVE SMOOTH",
"574 443 OFFCURVE",
"620 579 OFFCURVE",
"620 603 CURVE SMOOTH",
"620 638 OFFCURVE",
"526 700 OFFCURVE",
"487 700 CURVE SMOOTH",
"456 700 OFFCURVE",
"426 490 OFFCURVE",
"410 401 CURVE SMOOTH",
"386 261 OFFCURVE",
"353 130 OFFCURVE",
"354 94 CURVE SMOOTH",
"354 62 OFFCURVE",
"440 0 OFFCURVE",
"487 0 CURVE SMOOTH"
);
}
);
width = 619;
}
);
unicode = 0048;
},
{
glyphname = I;
lastChange = "2015-09-21 12:44:16 +0000";
layers = (
{
anchors = (
{
name = top;
position = "{211, 733}";
}
);
background = {
paths = (
{
closed = 1;
nodes = (
"189 0 OFFCURVE",
"187 135 OFFCURVE",
"216 303 CURVE SMOOTH",
"241 443 OFFCURVE",
"287 579 OFFCURVE",
"287 603 CURVE SMOOTH",
"287 638 OFFCURVE",
"190 700 OFFCURVE",
"151 700 CURVE SMOOTH",
"120 700 OFFCURVE",
"90 490 OFFCURVE",
"74 401 CURVE SMOOTH",
"50 260 OFFCURVE",
"17 127 OFFCURVE",
"18 94 CURVE SMOOTH",
"18 62 OFFCURVE",
"107 0 OFFCURVE",
"154 0 CURVE SMOOTH"
);
}
);
};
layerId = "AF1B7CCB-9C31-456C-8386-1D362D80AEF6";
name = "Bold Italic";
paths = (
{
closed = 1;
nodes = (
"186 0 OFFCURVE",
"184 135 OFFCURVE",
"213 303 CURVE SMOOTH",
"238 443 OFFCURVE",
"284 579 OFFCURVE",
"284 603 CURVE SMOOTH",
"284 638 OFFCURVE",
"190 700 OFFCURVE",
"151 700 CURVE SMOOTH",
"120 700 OFFCURVE",
"90 490 OFFCURVE",
"74 401 CURVE SMOOTH",
"50 260 OFFCURVE",
"17 127 OFFCURVE",
"18 94 CURVE SMOOTH",
"18 62 OFFCURVE",
"104 0 OFFCURVE",
"151 0 CURVE SMOOTH"
);
}
);
width = 283;
},
{
associatedMasterId = "AF1B7CCB-9C31-456C-8386-1D362D80AEF6";
background = {
paths = (
{
closed = 1;
nodes = (
"193 0 OFFCURVE",
"194 136 OFFCURVE",
"225 303 CURVE SMOOTH",
"253 443 OFFCURVE",
"306 579 OFFCURVE",
"306 603 CURVE SMOOTH",
"306 638 OFFCURVE",
"205 700 OFFCURVE",
"161 700 CURVE SMOOTH",
"126 700 OFFCURVE",
"94 490 OFFCURVE",
"76 401 CURVE SMOOTH",
"47 260 OFFCURVE",
"10 127 OFFCURVE",
"10 94 CURVE SMOOTH",
"10 62 OFFCURVE",
"105 0 OFFCURVE",
"155 0 CURVE SMOOTH"
);
}
);
};
layerId = "F654250B-93EB-420F-B6C8-8C659324C459";
name = "Bold Italic Aug 18 15, 18:05";
paths = (
{
closed = 1;
nodes = (
"181 0 OFFCURVE",
"179 135 OFFCURVE",
"208 303 CURVE SMOOTH",
"233 443 OFFCURVE",
"279 579 OFFCURVE",
"279 603 CURVE SMOOTH",
"279 638 OFFCURVE",
"185 700 OFFCURVE",
"146 700 CURVE SMOOTH",
"115 700 OFFCURVE",
"85 490 OFFCURVE",
"69 401 CURVE SMOOTH",
"45 260 OFFCURVE",
"12 127 OFFCURVE",
"13 94 CURVE SMOOTH",
"13 62 OFFCURVE",
"99 0 OFFCURVE",
"146 0 CURVE SMOOTH"
);
}
);
width = 283;
}
);
leftMetricsKey = H;
rightMetricsKey = H;
unicode = 0049;
},
{
glyphname = J;
lastChange = "2015-09-21 12:46:34 +0000";
layers = (
{
background = {
paths = (
{
closed = 1;
nodes = (
"322 700 OFFCURVE",
"214 694 OFFCURVE",
"127 672 CURVE",
"90 620 OFFCURVE",
"108 552 OFFCURVE",
"154 532 CURVE",
"211 543 OFFCURVE",
"276 546 OFFCURVE",
"334 554 CURVE",
"330 511 OFFCURVE",
"311 433 OFFCURVE",
"296 353 CURVE SMOOTH",
"275 237 OFFCURVE",
"242 121 OFFCURVE",
"206 121 CURVE SMOOTH",
"180 121 OFFCURVE",
"153 188 OFFCURVE",
"153 273 CURVE",
"98 310 OFFCURVE",
"-4 284 OFFCURVE",
"-4 194 CURVE SMOOTH",
"-4 97 OFFCURVE",
"114 0 OFFCURVE",
"203 0 CURVE SMOOTH",
"266 0 OFFCURVE",
"363 56 OFFCURVE",
"390 103 CURVE SMOOTH",
"408 137 OFFCURVE",
"432 291 OFFCURVE",
"445 353 CURVE SMOOTH",
"459 419 OFFCURVE",
"499 568 OFFCURVE",
"500 602 CURVE SMOOTH",
"500 632 OFFCURVE",
"418 700 OFFCURVE",
"384 700 CURVE SMOOTH"
);
}
);
};
layerId = "AF1B7CCB-9C31-456C-8386-1D362D80AEF6";
name = "Bold Italic";
paths = (
{
closed = 1;
nodes = (
"322 700 OFFCURVE",
"214 694 OFFCURVE",
"127 672 CURVE",
"90 620 OFFCURVE",
"108 552 OFFCURVE",
"154 532 CURVE",
"211 543 OFFCURVE",
"276 546 OFFCURVE",
"334 554 CURVE",
"330 511 OFFCURVE",
"311 433 OFFCURVE",
"296 353 CURVE SMOOTH",
"275 237 OFFCURVE",
"242 121 OFFCURVE",
"206 121 CURVE SMOOTH",
"178 121 OFFCURVE",
"149 203 OFFCURVE",
"157 289 CURVE",
"102 334 OFFCURVE",
"-8 304 OFFCURVE",
"-8 207 CURVE SMOOTH",
"-8 100 OFFCURVE",
"123 0 OFFCURVE",
"194 0 CURVE SMOOTH",
"266 0 OFFCURVE",
"360 50 OFFCURVE",
"384 92 CURVE SMOOTH",
"403 125 OFFCURVE",
"432 291 OFFCURVE",
"445 353 CURVE SMOOTH",
"459 419 OFFCURVE",
"499 568 OFFCURVE",
"500 602 CURVE SMOOTH",
"500 632 OFFCURVE",
"418 700 OFFCURVE",
"384 700 CURVE SMOOTH"
);
}
);
width = 500;
},
{
associatedMasterId = "AF1B7CCB-9C31-456C-8386-1D362D80AEF6";
background = {
paths = (
{
closed = 1;
nodes = (
"263 700 OFFCURVE",
"231 488 OFFCURVE",
"217 401 CURVE SMOOTH",
"180 174 OFFCURVE",
"160 -65 OFFCURVE",
"99 -62 CURVE SMOOTH",
"73 -61 OFFCURVE",
"54 -3 OFFCURVE",
"39 50 CURVE",
"-29 67 OFFCURVE",
"-105 34 OFFCURVE",
"-105 -39 CURVE SMOOTH",
"-105 -109 OFFCURVE",
"-7 -179 OFFCURVE",
"81 -183 CURVE SMOOTH",
"147 -185 OFFCURVE",
"241 -149 OFFCURVE",
"270 -97 CURVE SMOOTH",
"292 -57 OFFCURVE",
"324 108 OFFCURVE",
"356 303 CURVE SMOOTH",
"375 418 OFFCURVE",
"427 579 OFFCURVE",
"427 603 CURVE SMOOTH",
"427 638 OFFCURVE",
"333 700 OFFCURVE",
"294 700 CURVE SMOOTH"
);
}
);
};
layerId = "6A3E62E4-DD07-4503-A8ED-74BA39444732";
name = "Bold Italic Aug 18 15, 02:15";
paths = (
{
closed = 1;
nodes = (
"263 700 OFFCURVE",
"231 488 OFFCURVE",
"217 401 CURVE SMOOTH",
"180 174 OFFCURVE",
"160 -65 OFFCURVE",
"99 -62 CURVE SMOOTH",
"73 -61 OFFCURVE",
"54 -3 OFFCURVE",
"39 50 CURVE",
"-29 67 OFFCURVE",
"-105 34 OFFCURVE",
"-105 -39 CURVE SMOOTH",
"-105 -109 OFFCURVE",
"-7 -179 OFFCURVE",
"81 -183 CURVE SMOOTH",
"147 -185 OFFCURVE",
"241 -149 OFFCURVE",
"270 -97 CURVE SMOOTH",
"292 -57 OFFCURVE",
"324 108 OFFCURVE",
"356 303 CURVE SMOOTH",
"375 418 OFFCURVE",
"427 579 OFFCURVE",
"427 603 CURVE SMOOTH",
"427 638 OFFCURVE",
"333 700 OFFCURVE",
"294 700 CURVE SMOOTH"
);
}
);
width = 431;
},
{
associatedMasterId = "AF1B7CCB-9C31-456C-8386-1D362D80AEF6";
background = {
paths = (
{
closed = 1;
nodes = (
"299 700 OFFCURVE",
"275 486 OFFCURVE",
"263 401 CURVE SMOOTH",
"250 309 OFFCURVE",
"226 121 OFFCURVE",
"178 121 CURVE SMOOTH",
"152 121 OFFCURVE",
"132 180 OFFCURVE",
"116 233 CURVE",
"48 259 OFFCURVE",
"-27 221 OFFCURVE",
"-27 144 CURVE SMOOTH",
"-27 74 OFFCURVE",
"74 0 OFFCURVE",
"174 0 CURVE SMOOTH",
"239 0 OFFCURVE",
"336 47 OFFCURVE",
"361 93 CURVE SMOOTH",
"379 127 OFFCURVE",
"398 291 OFFCURVE",
"410 353 CURVE SMOOTH",
"423 419 OFFCURVE",
"465 579 OFFCURVE",
"464 603 CURVE SMOOTH",
"464 638 OFFCURVE",
"369 700 OFFCURVE",
"330 700 CURVE SMOOTH"
);
},
{
closed = 1;
nodes = (
"441 714 LINE",
"363 702 OFFCURVE",
"257 692 OFFCURVE",
"190 690 CURVE",
"145 648 OFFCURVE",
"155 583 OFFCURVE",
"199 551 CURVE",
"243 553 OFFCURVE",
"347 565 OFFCURVE",
"414 575 CURVE"
);
}
);
};
layerId = "7821D8C6-3F1C-47EA-9704-C62C513F57E1";
name = "Bold Italic Aug 18 15, 16:43";
paths = (
{
closed = 1;
nodes = (
"462 635 OFFCURVE",
"380 700 OFFCURVE",
"346 700 CURVE SMOOTH",
"309 700 OFFCURVE",
"231 694 OFFCURVE",
"186 690 CURVE",
"143 654 OFFCURVE",
"149 582 OFFCURVE",
"197 547 CURVE",
"227 549 OFFCURVE",
"256 552 OFFCURVE",
"289 555 CURVE",
"284 512 OFFCURVE",
"274 433 OFFCURVE",
"261 353 CURVE SMOOTH",
"242 237 OFFCURVE",
"211 121 OFFCURVE",
"175 121 CURVE SMOOTH",
"149 121 OFFCURVE",
"127 175 OFFCURVE",
"118 233 CURVE",
"41 259 OFFCURVE",
"-27 216 OFFCURVE",
"-27 144 CURVE SMOOTH",
"-27 74 OFFCURVE",
"74 0 OFFCURVE",
"174 0 CURVE SMOOTH",
"237 0 OFFCURVE",
"335 46 OFFCURVE",
"361 93 CURVE SMOOTH",
"379 127 OFFCURVE",
"398 291 OFFCURVE",
"410 353 CURVE SMOOTH",
"423 419 OFFCURVE",
"462 570 OFFCURVE",
"462 596 CURVE SMOOTH"
);
}
);
width = 468;
}
);
rightMetricsKey = I;
unicode = 004A;
},
{
glyphname = K;
lastChange = "2015-09-21 12:47:42 +0000";
layers = (
{
background = {
paths = (
{
closed = 1;
nodes = (
"383 605 OFFCURVE",
"321 510 OFFCURVE",
"232 434 CURVE",
"254 491 OFFCURVE",
"284 589 OFFCURVE",
"284 603 CURVE SMOOTH",
"284 638 OFFCURVE",
"190 700 OFFCURVE",
"151 700 CURVE SMOOTH",
"120 700 OFFCURVE",
"90 490 OFFCURVE",
"74 401 CURVE SMOOTH",
"50 260 OFFCURVE",
"17 127 OFFCURVE",
"18 94 CURVE SMOOTH",
"18 62 OFFCURVE",
"104 0 OFFCURVE",
"151 0 CURVE SMOOTH",
"180 0 OFFCURVE",
"188 103 OFFCURVE",
"198 241 CURVE",
"263 140 OFFCURVE",
"331 55 OFFCURVE",
"431 0 CURVE",
"512 17 OFFCURVE",
"547 87 OFFCURVE",
"523 153 CURVE",
"440 188 OFFCURVE",
"336 255 OFFCURVE",
"267 325 CURVE",
"390 392 OFFCURVE",
"481 477 OFFCURVE",
"563 567 CURVE",
"582 634 OFFCURVE",
"535 692 OFFCURVE",
"446 689 CURVE"
);
}
);
};
guideLines = (
{
angle = 80.5;
position = "{525, 241}";
}
);
layerId = "AF1B7CCB-9C31-456C-8386-1D362D80AEF6";
name = "Bold Italic";
paths = (
{
closed = 1;
nodes = (
"383 598 OFFCURVE",
"321 510 OFFCURVE",
"232 434 CURVE",
"254 491 OFFCURVE",
"284 589 OFFCURVE",
"284 603 CURVE SMOOTH",
"284 638 OFFCURVE",
"190 700 OFFCURVE",
"151 700 CURVE SMOOTH",
"120 700 OFFCURVE",
"90 490 OFFCURVE",
"74 401 CURVE SMOOTH",
"50 260 OFFCURVE",
"17 127 OFFCURVE",
"18 94 CURVE SMOOTH",
"18 62 OFFCURVE",
"104 0 OFFCURVE",
"151 0 CURVE SMOOTH",
"180 0 OFFCURVE",
"188 103 OFFCURVE",
"198 241 CURVE",
"263 140 OFFCURVE",
"325 62 OFFCURVE",
"429 0 CURVE",
"512 12 OFFCURVE",
"547 81 OFFCURVE",
"532 153 CURVE",
"444 187 OFFCURVE",
"342 253 OFFCURVE",
"267 325 CURVE",
"396 396 OFFCURVE",
"489 482 OFFCURVE",
"563 567 CURVE",
"582 642 OFFCURVE",
"535 692 OFFCURVE",
"446 689 CURVE"
);
}
);
width = 577;
},
{
associatedMasterId = "AF1B7CCB-9C31-456C-8386-1D362D80AEF6";
background = {
paths = (
{
closed = 1;
nodes = (
"214 0 OFFCURVE",
"212 135 OFFCURVE",
"241 303 CURVE SMOOTH",
"266 443 OFFCURVE",
"312 579 OFFCURVE",
"312 603 CURVE SMOOTH",
"312 638 OFFCURVE",
"218 700 OFFCURVE",
"179 700 CURVE SMOOTH",
"148 700 OFFCURVE",
"118 490 OFFCURVE",
"102 401 CURVE SMOOTH",
"78 260 OFFCURVE",
"45 127 OFFCURVE",
"46 94 CURVE SMOOTH",
"46 62 OFFCURVE",
"132 0 OFFCURVE",
"179 0 CURVE SMOOTH"
);
},
{
closed = 0;
nodes = (
"269 224 LINE",
"312 126 OFFCURVE",
"390 46 OFFCURVE",
"491 0 CURVE",
"583 15 OFFCURVE",
"609 85 OFFCURVE",
"585 153 CURVE",
"502 176 OFFCURVE",
"423 211 OFFCURVE",
"366 268 CURVE"
);
},
{
closed = 0;
nodes = (
"296 314 LINE",
"402 389 OFFCURVE",
"510 455 OFFCURVE",
"644 579 CURVE",
"661 648 OFFCURVE",
"612 707 OFFCURVE",
"526 700 CURVE",
"454 609 OFFCURVE",
"327 498 OFFCURVE",
"191 404 CURVE",
"196 307 LINE"
);
}
);
};
layerId = "8C47E6A5-C1BE-4791-AF31-488B63EF383E";
name = "Bold Italic Aug 17 15, 23:47";
paths = (
{
closed = 1;
nodes = (
"635 669 OFFCURVE",
"580 709 OFFCURVE",
"515 700 CURVE",
"452 603 OFFCURVE",
"335 481 OFFCURVE",
"208 375 CURVE",
"222 279 LINE",
"265 155 OFFCURVE",
"372 0 OFFCURVE",
"463 0 CURVE SMOOTH",
"552 0 OFFCURVE",
"601 54 OFFCURVE",
"601 110 CURVE SMOOTH",
"601 147 OFFCURVE",
"581 184 OFFCURVE",
"539 210 CURVE",
"508 192 OFFCURVE",
"486 181 OFFCURVE",
"451 170 CURVE",
"403 196 OFFCURVE",
"354 262 OFFCURVE",
"323 310 CURVE",
"421 395 OFFCURVE",
"523 470 OFFCURVE",
"635 605 CURVE"
);
},
{
closed = 1;
nodes = (
"214 0 OFFCURVE",
"212 135 OFFCURVE",
"241 303 CURVE SMOOTH",
"266 443 OFFCURVE",
"312 579 OFFCURVE",
"312 603 CURVE SMOOTH",
"312 638 OFFCURVE",
"218 700 OFFCURVE",
"179 700 CURVE SMOOTH",
"148 700 OFFCURVE",
"118 490 OFFCURVE",
"102 401 CURVE SMOOTH",
"78 260 OFFCURVE",
"45 127 OFFCURVE",
"46 94 CURVE SMOOTH",
"46 62 OFFCURVE",
"132 0 OFFCURVE",
"179 0 CURVE SMOOTH"
);
}
);
width = 624;
},
{
associatedMasterId = "AF1B7CCB-9C31-456C-8386-1D362D80AEF6";
background = {
paths = (
{
closed = 1;
nodes = (
"181 0 OFFCURVE",
"179 135 OFFCURVE",
"208 303 CURVE SMOOTH",
"233 443 OFFCURVE",
"279 579 OFFCURVE",
"279 603 CURVE SMOOTH",
"279 638 OFFCURVE",
"185 700 OFFCURVE",
"146 700 CURVE SMOOTH",
"115 700 OFFCURVE",
"85 490 OFFCURVE",
"69 401 CURVE SMOOTH",
"45 260 OFFCURVE",
"12 127 OFFCURVE",
"13 94 CURVE SMOOTH",
"13 62 OFFCURVE",
"99 0 OFFCURVE",
"146 0 CURVE SMOOTH"
);
},
{
closed = 1;
nodes = (
"243 305 LINE",
"349 379 OFFCURVE",
"458 444 OFFCURVE",
"592 567 CURVE",
"610 636 OFFCURVE",
"561 696 OFFCURVE",
"475 689 CURVE",
"403 599 OFFCURVE",
"275 488 OFFCURVE",
"138 395 CURVE",
"105 345 LINE",
"190 223 OFFCURVE",
"308 62 OFFCURVE",
"446 2 CURVE",
"539 16 OFFCURVE",
"565 86 OFFCURVE",
"542 154 CURVE",
"437 187 OFFCURVE",
"322 263 OFFCURVE",
"253 345 CURVE"
);
}
);
};
layerId = "C19F4B72-54CF-450E-A136-2DAD077AAB34";
name = "Bold Italic Aug 17 15, 23:55";
paths = (
{
closed = 1;
nodes = (
"410 607 OFFCURVE",
"320 510 OFFCURVE",
"227 434 CURVE",
"249 491 OFFCURVE",
"279 589 OFFCURVE",
"279 603 CURVE SMOOTH",
"279 638 OFFCURVE",
"185 700 OFFCURVE",
"146 700 CURVE SMOOTH",
"115 700 OFFCURVE",
"85 490 OFFCURVE",
"69 401 CURVE SMOOTH",
"45 260 OFFCURVE",
"12 127 OFFCURVE",
"13 94 CURVE SMOOTH",
"13 62 OFFCURVE",
"99 0 OFFCURVE",
"146 0 CURVE SMOOTH",
"175 0 OFFCURVE",
"183 103 OFFCURVE",
"193 241 CURVE",
"252 146 OFFCURVE",
"341 44 OFFCURVE",
"460 0 CURVE",
"541 17 OFFCURVE",
"571 89 OFFCURVE",
"547 155 CURVE",
"454 182 OFFCURVE",
"338 256 OFFCURVE",
"262 324 CURVE",
"387 385 OFFCURVE",
"490 460 OFFCURVE",
"592 567 CURVE",
"611 634 OFFCURVE",
"564 692 OFFCURVE",
"475 689 CURVE"
);
}
);
width = 598;
}
);
leftMetricsKey = I;
rightMetricsKey = R;
unicode = 004B;
},
{
glyphname = Kcommaaccent;
lastChange = "2015-09-19 14:08:28 +0000";
layers = (
{
components = (
{
name = K;
}
);
layerId = "AF1B7CCB-9C31-456C-8386-1D362D80AEF6";
name = "Bold Italic";
paths = (
{
closed = 1;
nodes = (
"254 -285 OFFCURVE",
"290 -231 OFFCURVE",
"326 -133 CURVE",
"305 -70 OFFCURVE",
"221 -46 OFFCURVE",
"151 -98 CURVE",
"162 -219 LINE",
"110 -307 LINE",
"119 -338 OFFCURVE",
"146 -351 OFFCURVE",
"182 -349 CURVE"
);
}
);
width = 572;
}
);
unicode = 0136;
},
{
glyphname = L;
lastChange = "2015-09-21 12:47:54 +0000";
layers = (
{
anchors = (
{
name = top;
position = "{350, 733}";
}
);
background = {
paths = (
{
closed = 1;
nodes = (
"328 161 OFFCURVE",
"255 145 OFFCURVE",
"176 137 CURVE",
"190 197 OFFCURVE",
"201 241 OFFCURVE",
"213 303 CURVE SMOOTH",
"241 443 OFFCURVE",
"284 579 OFFCURVE",
"284 603 CURVE SMOOTH",
"284 638 OFFCURVE",
"190 700 OFFCURVE",
"151 700 CURVE SMOOTH",
"120 700 OFFCURVE",
"90 490 OFFCURVE",
"74 401 CURVE SMOOTH",
"50 260 OFFCURVE",
"18 135 OFFCURVE",
"17 102 CURVE SMOOTH",
"15 67 OFFCURVE",
"101 2 OFFCURVE",
"137 0 CURVE SMOOTH",
"211 -4 OFFCURVE",
"335 6 OFFCURVE",
"433 26 CURVE",
"483 76 OFFCURVE",
"468 159 OFFCURVE",
"403 187 CURVE"
);
}
);
};
layerId = "AF1B7CCB-9C31-456C-8386-1D362D80AEF6";
name = "Bold Italic";
paths = (
{
closed = 1;
nodes = (
"330 161 OFFCURVE",
"257 145 OFFCURVE",
"178 137 CURVE",
"193 197 OFFCURVE",
"204 241 OFFCURVE",
"217 303 CURVE SMOOTH",
"247 443 OFFCURVE",
"292 579 OFFCURVE",
"292 603 CURVE SMOOTH",
"292 638 OFFCURVE",
"199 700 OFFCURVE",
"160 700 CURVE SMOOTH",
"129 700 OFFCURVE",
"96 490 OFFCURVE",
"79 401 CURVE SMOOTH",
"53 260 OFFCURVE",
"20 135 OFFCURVE",
"18 102 CURVE SMOOTH",
"16 67 OFFCURVE",
"101 2 OFFCURVE",
"137 0 CURVE SMOOTH",
"211 -4 OFFCURVE",
"335 6 OFFCURVE",
"433 26 CURVE",
"484 76 OFFCURVE",
"470 159 OFFCURVE",
"405 187 CURVE"
);
}
);
width = 498;
}
);
leftMetricsKey = I;
unicode = 004C;
},
{
glyphname = Lcaron;
lastChange = "2015-09-19 13:09:00 +0000";
layers = (
{
background = {
paths = (
{
closed = 1;
nodes = (
"504 605 OFFCURVE",
"540 659 OFFCURVE",
"576 757 CURVE",
"555 820 OFFCURVE",
"471 844 OFFCURVE",
"401 792 CURVE",
"412 671 LINE",
"360 583 LINE",
"369 552 OFFCURVE",
"396 539 OFFCURVE",
"432 541 CURVE"
);
}
);
};
components = (
{
name = L;
}
);
layerId = "AF1B7CCB-9C31-456C-8386-1D362D80AEF6";
name = "Bold Italic";
paths = (
{
closed = 1;
nodes = (
"504 605 OFFCURVE",
"540 659 OFFCURVE",
"576 757 CURVE",
"555 820 OFFCURVE",
"471 844 OFFCURVE",
"401 792 CURVE",
"412 671 LINE",
"360 583 LINE",
"369 552 OFFCURVE",
"396 539 OFFCURVE",
"432 541 CURVE"
);
}
);
width = 498;
}
);
leftMetricsKey = L;
unicode = 013D;
},
{
glyphname = Lcommaaccent;
lastChange = "2015-09-19 14:08:41 +0000";
layers = (
{
components = (
{
name = L;
}
);
layerId = "AF1B7CCB-9C31-456C-8386-1D362D80AEF6";
name = "Bold Italic";
paths = (
{
closed = 1;
nodes = (
"216 -285 OFFCURVE",
"252 -231 OFFCURVE",
"288 -133 CURVE",
"267 -70 OFFCURVE",
"183 -46 OFFCURVE",
"113 -98 CURVE",
"124 -219 LINE",
"72 -307 LINE",
"81 -338 OFFCURVE",
"108 -351 OFFCURVE",
"144 -349 CURVE"
);
}
);
width = 493;
}
);
unicode = 013B;
},
{
glyphname = M;
lastChange = "2015-08-14 14:44:29 +0000";
layers = (
{
background = {
paths = (
{
closed = 1;
nodes = (
"181 0 OFFCURVE",
"179 135 OFFCURVE",
"208 303 CURVE",
"215 429 LINE",
"245 333 OFFCURVE",
"256 207 OFFCURVE",
"279 185 CURVE SMOOTH",
"300 164 OFFCURVE",
"378 177 OFFCURVE",
"402 205 CURVE SMOOTH",
"427 235 OFFCURVE",
"470 325 OFFCURVE",
"512 411 CURVE",
"526 406 LINE",
"490 295 LINE",
"469 193 OFFCURVE",
"452 117 OFFCURVE",
"453 94 CURVE SMOOTH",
"453 62 OFFCURVE",
"539 0 OFFCURVE",
"586 0 CURVE SMOOTH",
"621 0 OFFCURVE",
"619 135 OFFCURVE",
"648 303 CURVE SMOOTH",
"673 443 OFFCURVE",
"701 579 OFFCURVE",
"701 603 CURVE SMOOTH",
"701 638 OFFCURVE",
"607 700 OFFCURVE",
"568 700 CURVE SMOOTH",
"522 700 OFFCURVE",
"412 424 OFFCURVE",
"352 343 CURVE",
"329 418 OFFCURVE",
"309 554 OFFCURVE",
"283 610 CURVE SMOOTH",
"264 651 OFFCURVE",
"181 700 OFFCURVE",
"146 700 CURVE SMOOTH",
"115 700 OFFCURVE",
"85 490 OFFCURVE",
"69 401 CURVE SMOOTH",
"45 260 OFFCURVE",
"12 127 OFFCURVE",
"13 94 CURVE SMOOTH",
"13 62 OFFCURVE",
"99 0 OFFCURVE",
"146 0 CURVE SMOOTH"
);
}
);
};
layerId = "AF1B7CCB-9C31-456C-8386-1D362D80AEF6";
name = "Bold Italic";
paths = (
{
closed = 1;
nodes = (
"181 0 OFFCURVE",
"179 135 OFFCURVE",
"208 303 CURVE",
"215 429 LINE",
"245 333 OFFCURVE",
"256 207 OFFCURVE",
"279 185 CURVE SMOOTH",
"298 166 OFFCURVE",
"380 179 OFFCURVE",
"401 203 CURVE SMOOTH",
"426 233 OFFCURVE",
"470 325 OFFCURVE",
"512 411 CURVE",
"526 406 LINE",
"490 295 LINE",
"469 193 OFFCURVE",
"452 117 OFFCURVE",
"453 94 CURVE SMOOTH",
"453 62 OFFCURVE",
"539 0 OFFCURVE",
"586 0 CURVE SMOOTH",
"621 0 OFFCURVE",
"619 135 OFFCURVE",
"648 303 CURVE SMOOTH",
"673 443 OFFCURVE",
"701 579 OFFCURVE",
"701 603 CURVE SMOOTH",
"701 638 OFFCURVE",
"607 700 OFFCURVE",
"568 700 CURVE SMOOTH",
"522 700 OFFCURVE",
"450 490 OFFCURVE",
"352 343 CURVE",
"329 418 OFFCURVE",
"309 554 OFFCURVE",
"283 610 CURVE SMOOTH",
"264 651 OFFCURVE",
"181 700 OFFCURVE",
"146 700 CURVE SMOOTH",
"115 700 OFFCURVE",
"85 490 OFFCURVE",
"69 401 CURVE SMOOTH",
"45 260 OFFCURVE",
"12 127 OFFCURVE",
"13 94 CURVE SMOOTH",
"13 62 OFFCURVE",
"99 0 OFFCURVE",
"146 0 CURVE SMOOTH"
);
}
);
width = 709;
}
);
leftMetricsKey = N;
rightMetricsKey = I;
unicode = 004D;
},
{
glyphname = N;
lastChange = "2015-09-21 12:48:10 +0000";
layers = (
{
anchors = (
{
name = top;
position = "{380, 733}";
}
);
background = {
components = (
{
name = I;
transform = "{1, 0, 0, 1, 5, 0}";
},
{
name = I;
transform = "{1, 0, 0, 1, 338, 0}";
}
);
paths = (
{
closed = 1;
nodes = (
"173 542 LINE",
"212 427 OFFCURVE",
"292 131 OFFCURVE",
"382 51 CURVE",
"445 166 LINE",
"380 317 OFFCURVE",
"310 550 OFFCURVE",
"281 615 CURVE"
);
}
);
};
layerId = "AF1B7CCB-9C31-456C-8386-1D362D80AEF6";
name = "Bold Italic";
paths = (
{
closed = 1;
nodes = (
"456 700 OFFCURVE",
"426 490 OFFCURVE",
"410 401 CURVE",
"398 270 LINE",
"359 392 OFFCURVE",
"310 537 OFFCURVE",
"283 610 CURVE SMOOTH",
"269 649 OFFCURVE",
"186 700 OFFCURVE",
"151 700 CURVE SMOOTH",
"120 700 OFFCURVE",
"90 490 OFFCURVE",
"74 401 CURVE SMOOTH",
"50 260 OFFCURVE",
"17 127 OFFCURVE",
"18 94 CURVE SMOOTH",
"18 62 OFFCURVE",
"104 0 OFFCURVE",
"151 0 CURVE SMOOTH",
"186 0 OFFCURVE",
"184 135 OFFCURVE",
"213 303 CURVE",
"220 429 LINE",
"247 294 OFFCURVE",
"324 122 OFFCURVE",
"353 85 CURVE SMOOTH",
"390 37 OFFCURVE",
"449 0 OFFCURVE",
"487 0 CURVE SMOOTH",
"522 0 OFFCURVE",
"520 135 OFFCURVE",
"549 303 CURVE SMOOTH",
"574 443 OFFCURVE",
"620 579 OFFCURVE",
"620 603 CURVE SMOOTH",
"620 638 OFFCURVE",
"526 700 OFFCURVE",
"487 700 CURVE SMOOTH"
);
}
);
width = 619;
}
);
leftMetricsKey = H;
rightMetricsKey = H;
unicode = 004E;
},
{
glyphname = Ncommaaccent;
lastChange = "2015-09-19 14:08:49 +0000";
layers = (
{
components = (
{
name = N;
}
);
layerId = "AF1B7CCB-9C31-456C-8386-1D362D80AEF6";
name = "Bold Italic";
paths = (
{
closed = 1;
nodes = (
"284 -285 OFFCURVE",
"320 -231 OFFCURVE",
"356 -133 CURVE",
"335 -70 OFFCURVE",
"251 -46 OFFCURVE",
"181 -98 CURVE",
"192 -219 LINE",
"140 -307 LINE",
"149 -338 OFFCURVE",
"176 -351 OFFCURVE",
"212 -349 CURVE"
);
}
);
width = 619;
}
);
unicode = 0145;
},
{
glyphname = O;
lastChange = "2015-09-21 12:43:48 +0000";
layers = (
{
anchors = (
{
name = top;
position = "{366, 733}";
}
);
background = {
paths = (
{
closed = 1;
nodes = (
"262 573 OFFCURVE",
"216 614 OFFCURVE",
"112 583 CURVE",
"77 497 OFFCURVE",
"18 299 OFFCURVE",
"18 196 CURVE SMOOTH",
"18 110 OFFCURVE",
"155 0 OFFCURVE",
"230 0 CURVE SMOOTH",
"376 0 OFFCURVE",
"558 245 OFFCURVE",
"558 453 CURVE SMOOTH",
"558 580 OFFCURVE",
"430 700 OFFCURVE",
"281 700 CURVE",
"205 675 OFFCURVE",
"182 585 OFFCURVE",
"234 522 CURVE",
"316 525 OFFCURVE",
"390 503 OFFCURVE",
"428 475 CURVE",
"399 342 OFFCURVE",
"320 194 OFFCURVE",
"181 137 CURVE",
"180 297 OFFCURVE",
"212 376 OFFCURVE",
"267 492 CURVE"
);
}
);
};
layerId = "AF1B7CCB-9C31-456C-8386-1D362D80AEF6";
name = "Bold Italic";
paths = (
{
closed = 1;
nodes = (
"262 583 OFFCURVE",
"216 624 OFFCURVE",
"112 593 CURVE",
"74 507 OFFCURVE",
"15 269 OFFCURVE",
"15 191 CURVE SMOOTH",
"15 117 OFFCURVE",
"142 -5 OFFCURVE",
"224 -5 CURVE SMOOTH",
"385 -5 OFFCURVE",
"564 267 OFFCURVE",
"564 463 CURVE SMOOTH",
"564 590 OFFCURVE",
"430 710 OFFCURVE",
"281 710 CURVE",
"205 685 OFFCURVE",
"182 595 OFFCURVE",
"234 532 CURVE",
"316 535 OFFCURVE",
"390 513 OFFCURVE",
"431 485 CURVE",
"399 345 OFFCURVE",
"317 182 OFFCURVE",
"178 132 CURVE",
"176 261 OFFCURVE",
"205 386 OFFCURVE",
"267 502 CURVE"
);
}
);
width = 571;
},
{
associatedMasterId = "AF1B7CCB-9C31-456C-8386-1D362D80AEF6";
background = {
paths = (
{
closed = 1;
nodes = (
"263 575 OFFCURVE",
"214 608 OFFCURVE",
"116 581 CURVE",
"84 498 OFFCURVE",
"25 300 OFFCURVE",
"25 196 CURVE SMOOTH",
"25 109 OFFCURVE",
"161 0 OFFCURVE",
"233 0 CURVE SMOOTH",
"376 0 OFFCURVE",
"557 244 OFFCURVE",
"557 453 CURVE SMOOTH",
"557 577 OFFCURVE",
"450 690 OFFCURVE",
"284 700 CURVE",
"213 676 OFFCURVE",
"191 581 OFFCURVE",
"237 522 CURVE",
"313 526 OFFCURVE",
"392 506 OFFCURVE",
"435 475 CURVE",
"400 314 OFFCURVE",
"311 189 OFFCURVE",
"180 135 CURVE",
"180 295 OFFCURVE",
"212 373 OFFCURVE",
"266 492 CURVE"
);
}
);
};
layerId = "74E5C324-0BC5-419D-8931-9C788B0CC5D7";
name = "Bold Italic Aug 13 15, 20:44";
paths = (
{
closed = 1;
nodes = (
"265 573 OFFCURVE",
"219 614 OFFCURVE",
"115 583 CURVE",
"80 497 OFFCURVE",
"21 299 OFFCURVE",
"21 196 CURVE SMOOTH",
"21 110 OFFCURVE",
"158 0 OFFCURVE",
"233 0 CURVE SMOOTH",
"379 0 OFFCURVE",
"561 245 OFFCURVE",
"561 453 CURVE SMOOTH",
"561 580 OFFCURVE",
"433 700 OFFCURVE",
"284 700 CURVE",
"208 675 OFFCURVE",
"185 585 OFFCURVE",
"237 522 CURVE",
"319 525 OFFCURVE",
"393 503 OFFCURVE",
"431 475 CURVE",
"402 342 OFFCURVE",
"323 194 OFFCURVE",
"184 137 CURVE",
"183 297 OFFCURVE",
"215 376 OFFCURVE",
"270 492 CURVE"
);
}
);
width = 572;
}
);
unicode = 004F;
},
{
glyphname = OE;
lastChange = "2015-09-17 17:45:03 +0000";
layers = (
{
background = {
paths = (
{
closed = 1;
nodes = (
"682 684 OFFCURVE",
"511 681 OFFCURVE",
"380 679 CURVE",
"331 630 OFFCURVE",
"345 559 OFFCURVE",
"391 536 CURVE",
"433 539 LINE",
"424 484 OFFCURVE",
"414 438 OFFCURVE",
"401 371 CURVE SMOOTH",
"380 260 OFFCURVE",
"345 126 OFFCURVE",
"345 101 CURVE SMOOTH",
"345 66 OFFCURVE",
"430 0 OFFCURVE",
"466 0 CURVE SMOOTH",
"542 0 OFFCURVE",
"658 6 OFFCURVE",
"748 24 CURVE",
"799 74 OFFCURVE",
"785 155 OFFCURVE",
"720 183 CURVE",
"645 157 OFFCURVE",
"584 145 OFFCURVE",
"505 137 CURVE",
"513 177 OFFCURVE",
"523 223 OFFCURVE",
"533 275 CURVE",
"593 280 OFFCURVE",
"679 285 OFFCURVE",
"734 289 CURVE",
"777 321 OFFCURVE",
"778 402 OFFCURVE",
"725 432 CURVE",
"678 421 OFFCURVE",
"620 413 OFFCURVE",
"556 408 CURVE",
"567 463 OFFCURVE",
"576 501 OFFCURVE",
"588 544 CURVE",
"654 550 OFFCURVE",
"744 553 OFFCURVE",
"803 554 CURVE",
"841 590 OFFCURVE",
"845 671 OFFCURVE",
"794 700 CURVE"
);
},
{
closed = 1;
nodes = (
"264 583 OFFCURVE",
"218 624 OFFCURVE",
"114 593 CURVE",
"76 507 OFFCURVE",
"17 269 OFFCURVE",
"17 191 CURVE SMOOTH",
"17 117 OFFCURVE",
"144 -5 OFFCURVE",
"226 -5 CURVE SMOOTH",
"387 -5 OFFCURVE",
"566 267 OFFCURVE",
"566 463 CURVE SMOOTH",
"566 590 OFFCURVE",
"432 710 OFFCURVE",
"283 710 CURVE",
"207 685 OFFCURVE",
"184 595 OFFCURVE",
"236 532 CURVE",
"318 535 OFFCURVE",
"392 513 OFFCURVE",
"433 485 CURVE",
"401 345 OFFCURVE",
"319 182 OFFCURVE",
"180 132 CURVE",
"178 261 OFFCURVE",
"207 386 OFFCURVE",
"269 502 CURVE"
);
}
);
};
layerId = "AF1B7CCB-9C31-456C-8386-1D362D80AEF6";
name = "Bold Italic";
paths = (
{
closed = 1;
nodes = (
"684 686 OFFCURVE",
"543 678 OFFCURVE",
"423 674 CURVE",
"384 693 OFFCURVE",
"346 705 OFFCURVE",
"283 710 CURVE",
"232 693 OFFCURVE",
"205 647 OFFCURVE",
"208 599 CURVE",
"185 606 OFFCURVE",
"153 605 OFFCURVE",
"114 593 CURVE",
"76 507 OFFCURVE",
"17 269 OFFCURVE",
"17 191 CURVE SMOOTH",
"17 117 OFFCURVE",
"144 -5 OFFCURVE",
"226 -5 CURVE SMOOTH",
"276 -5 OFFCURVE",
"328 21 OFFCURVE",
"367 63 CURVE",
"389 34 OFFCURVE",
"442 0 OFFCURVE",
"466 0 CURVE SMOOTH",
"542 0 OFFCURVE",
"658 6 OFFCURVE",
"748 24 CURVE",
"799 74 OFFCURVE",
"785 155 OFFCURVE",
"720 183 CURVE",
"646 158 OFFCURVE",
"578 146 OFFCURVE",
"498 136 CURVE",
"506 177 OFFCURVE",
"516 223 OFFCURVE",
"526 275 CURVE",
"586 280 OFFCURVE",
"679 285 OFFCURVE",
"734 289 CURVE",
"777 321 OFFCURVE",
"778 402 OFFCURVE",
"725 432 CURVE",
"678 421 OFFCURVE",
"620 413 OFFCURVE",
"556 408 CURVE",
"567 463 OFFCURVE",
"576 501 OFFCURVE",
"588 544 CURVE",
"654 550 OFFCURVE",
"744 553 OFFCURVE",
"803 554 CURVE",
"841 590 OFFCURVE",
"845 671 OFFCURVE",
"794 700 CURVE"
);
},
{
closed = 1;
nodes = (
"178 261 OFFCURVE",
"207 386 OFFCURVE",
"269 502 CURVE",
"268 513 OFFCURVE",
"267 523 OFFCURVE",
"265 532 CURVE",
"335 530 OFFCURVE",
"397 510 OFFCURVE",
"433 485 CURVE",
"401 345 OFFCURVE",
"319 182 OFFCURVE",
"180 132 CURVE"
);
}
);
width = 835;
},
{
associatedMasterId = "AF1B7CCB-9C31-456C-8386-1D362D80AEF6";
layerId = UUID0;
name = Bold;
paths = (
{
closed = 1;
nodes = (
"533 -7 OFFCURVE",
"656 143 OFFCURVE",
"656 339 CURVE SMOOTH",
"656 536 OFFCURVE",
"534 685 OFFCURVE",
"363 685 CURVE SMOOTH",
"163 685 OFFCURVE",
"40 545 OFFCURVE",
"40 339 CURVE",
"40 132 OFFCURVE",
"162 -7 OFFCURVE",
"363 -7 CURVE SMOOTH"
);
},
{
closed = 1;
nodes = (
"263 133 OFFCURVE",
"205 213 OFFCURVE",
"205 339 CURVE",
"205 465 OFFCURVE",
"263 545 OFFCURVE",
"363 545 CURVE SMOOTH",
"463 545 OFFCURVE",
"521 465 OFFCURVE",
"521 339 CURVE SMOOTH",
"521 213 OFFCURVE",
"463 133 OFFCURVE",
"363 133 CURVE SMOOTH"
);
},
{
closed = 1;
nodes = (
"940 0 LINE",
"940 123 LINE",
"579 123 LINE",
"579 0 LINE"
);
},
{
closed = 1;
nodes = (
"666 0 LINE",
"666 674 LINE",
"521 674 LINE",
"521 0 LINE"
);
},
{
closed = 1;
nodes = (
"908 276 LINE",
"908 398 LINE",
"579 398 LINE",
"579 276 LINE"
);
},
{
closed = 1;
nodes = (
"936 551 LINE",
"936 674 LINE",
"579 674 LINE",
"579 551 LINE"
);
}
);
width = 1000;
}
);
leftMetricsKey = O;
rightMetricsKey = E;
unicode = 0152;
},
{
glyphname = P;
lastChange = "2015-09-21 12:47:13 +0000";
layers = (
{
background = {
paths = (
{
closed = 1;
nodes = (
"419 705 OFFCURVE",
"252 705 CURVE SMOOTH",
"198 705 OFFCURVE",
"142 698 OFFCURVE",
"88 684 CURVE",
"59 629 OFFCURVE",
"68 580 OFFCURVE",
"102 547 CURVE",
"139 553 LINE",
"123 455 OFFCURVE",
"51 132 OFFCURVE",
"52 94 CURVE SMOOTH",
"52 62 OFFCURVE",
"138 0 OFFCURVE",
"185 0 CURVE SMOOTH",
"218 0 OFFCURVE",
"221 137 OFFCURVE",
"237 237 CURVE",
"459 251 OFFCURVE",
"590 375 OFFCURVE",
"585 493 CURVE SMOOTH",
"580 638 OFFCURVE"
);
},
{
closed = 1;
nodes = (
"262 421 OFFCURVE",
"273 479 OFFCURVE",
"286 559 CURVE",
"379 573 OFFCURVE",
"439 537 OFFCURVE",
"441 489 CURVE SMOOTH",
"443 437 OFFCURVE",
"369 371 OFFCURVE",
"251 351 CURVE"
);
}
);
};
layerId = "AF1B7CCB-9C31-456C-8386-1D362D80AEF6";
name = "Bold Italic";
paths = (
{
closed = 1;
nodes = (
"218 0 OFFCURVE",
"221 137 OFFCURVE",
"237 235 CURVE",
"459 251 OFFCURVE",
"585 368 OFFCURVE",
"585 493 CURVE SMOOTH",
"585 642 OFFCURVE",
"419 705 OFFCURVE",
"252 705 CURVE SMOOTH",
"198 705 OFFCURVE",
"142 698 OFFCURVE",
"88 684 CURVE",
"59 629 OFFCURVE",
"68 580 OFFCURVE",
"102 547 CURVE",
"139 553 LINE",
"123 455 OFFCURVE",
"51 132 OFFCURVE",
"52 94 CURVE SMOOTH",
"52 62 OFFCURVE",
"138 0 OFFCURVE",
"185 0 CURVE SMOOTH"
);
},
{
closed = 1;
nodes = (
"263 431 OFFCURVE",
"273 479 OFFCURVE",
"286 559 CURVE",
"379 573 OFFCURVE",
"434 537 OFFCURVE",
"434 491 CURVE SMOOTH",
"434 434 OFFCURVE",
"371 382 OFFCURVE",
"252 359 CURVE"
);
}
);
width = 582;
},
{
associatedMasterId = "AF1B7CCB-9C31-456C-8386-1D362D80AEF6";
background = {
paths = (
{
closed = 1;
nodes = (
"516 353 OFFCURVE",
"570 426 OFFCURVE",
"570 496 CURVE SMOOTH",
"570 608 OFFCURVE",
"416 705 OFFCURVE",
"231 705 CURVE SMOOTH",
"189 705 OFFCURVE",
"145 699 OFFCURVE",
"84 685 CURVE",
"52 632 OFFCURVE",
"66 579 OFFCURVE",
"99 545 CURVE",
"134 550 LINE",
"115 442 OFFCURVE",
"49 154 OFFCURVE",
"49 123 CURVE SMOOTH",
"49 81 OFFCURVE",
"144 -5 OFFCURVE",
"206 -5 CURVE SMOOTH",
"404 -5 OFFCURVE",
"551 99 OFFCURVE",
"551 197 CURVE SMOOTH",
"551 252 OFFCURVE",
"506 304 OFFCURVE",
"411 319 CURVE"
);
},
{
closed = 1;
nodes = (
"259 421 OFFCURVE",
"268 490 OFFCURVE",
"278 552 CURVE",
"368 564 OFFCURVE",
"425 527 OFFCURVE",
"425 484 CURVE SMOOTH",
"425 431 OFFCURVE",
"367 383 OFFCURVE",
"248 367 CURVE"
);
},
{
closed = 1;
nodes = (
"211 172 OFFCURVE",
"228 229 OFFCURVE",
"241 274 CURVE",
"267 278 OFFCURVE",
"289 279 OFFCURVE",
"308 278 CURVE SMOOTH",
"362 273 OFFCURVE",
"382 243 OFFCURVE",
"379 213 CURVE SMOOTH",
"375 165 OFFCURVE",
"319 124 OFFCURVE",
"197 116 CURVE"
);
}
);
};
layerId = "19886ACE-C7E0-45A9-B74A-9D14E0215658";
name = "Bold Italic Aug 13 15, 22:43";
paths = (
{
closed = 1;
nodes = (
"516 353 OFFCURVE",
"570 426 OFFCURVE",
"570 496 CURVE SMOOTH",
"570 608 OFFCURVE",
"416 705 OFFCURVE",
"231 705 CURVE SMOOTH",
"189 705 OFFCURVE",
"145 699 OFFCURVE",
"84 685 CURVE",
"52 632 OFFCURVE",
"66 579 OFFCURVE",
"99 545 CURVE",
"134 550 LINE",
"115 442 OFFCURVE",
"49 154 OFFCURVE",
"49 123 CURVE SMOOTH",
"49 81 OFFCURVE",
"144 -5 OFFCURVE",
"206 -5 CURVE SMOOTH",
"404 -5 OFFCURVE",
"551 99 OFFCURVE",
"551 197 CURVE SMOOTH",
"551 252 OFFCURVE",
"506 304 OFFCURVE",
"411 319 CURVE"
);
},
{
closed = 1;
nodes = (
"259 421 OFFCURVE",
"268 490 OFFCURVE",
"278 552 CURVE",
"368 564 OFFCURVE",
"425 527 OFFCURVE",
"425 484 CURVE SMOOTH",
"425 431 OFFCURVE",
"367 383 OFFCURVE",
"248 367 CURVE"
);
},
{
closed = 1;
nodes = (
"211 172 OFFCURVE",
"228 229 OFFCURVE",
"241 274 CURVE",
"267 278 OFFCURVE",
"289 279 OFFCURVE",
"308 278 CURVE SMOOTH",
"362 273 OFFCURVE",
"382 243 OFFCURVE",
"379 213 CURVE SMOOTH",
"375 165 OFFCURVE",
"319 124 OFFCURVE",
"197 116 CURVE"
);
}
);
width = 599;
}
);
leftMetricsKey = D;
unicode = 0050;
},
{
glyphname = Q;
lastChange = "2015-09-21 12:48:35 +0000";
layers = (
{
background = {
paths = (
{
closed = 1;
nodes = (
"478 25 OFFCURVE",
"418 -8 OFFCURVE",
"360 -20 CURVE",
"343 23 LINE",
"489 117 OFFCURVE",
"570 310 OFFCURVE",
"568 456 CURVE SMOOTH",
"566 575 OFFCURVE",
"407 710 OFFCURVE",
"253 710 CURVE",
"202 693 OFFCURVE",
"178 647 OFFCURVE",
"180 599 CURVE",
"156 606 OFFCURVE",
"128 605 OFFCURVE",
"87 593 CURVE",
"56 507 OFFCURVE",
"15 264 OFFCURVE",
"21 186 CURVE SMOOTH",
"27 121 OFFCURVE",
"145 23 OFFCURVE",
"238 0 CURVE",
"258 -76 OFFCURVE",
"302 -165 OFFCURVE",
"369 -170 CURVE SMOOTH",
"486 -178 OFFCURVE",
"597 -124 OFFCURVE",
"603 -63 CURVE SMOOTH",
"608 -12 OFFCURVE",
"579 25 OFFCURVE",
"514 53 CURVE"
);
},
{
closed = 1;
nodes = (
"419 380 OFFCURVE",
"369 248 OFFCURVE",
"273 155 CURVE",
"260 200 OFFCURVE",
"221 224 OFFCURVE",
"182 226 CURVE",
"200 325 OFFCURVE",
"219 418 OFFCURVE",
"251 502 CURVE",
"250 513 OFFCURVE",
"248 523 OFFCURVE",
"245 532 CURVE",
"319 530 OFFCURVE",
"391 510 OFFCURVE",
"429 485 CURVE"
);
}
);
};
layerId = "AF1B7CCB-9C31-456C-8386-1D362D80AEF6";
name = "Bold Italic";
paths = (
{
closed = 1;
nodes = (
"475 30 OFFCURVE",
"415 -3 OFFCURVE",
"357 -15 CURVE",
"340 28 LINE",
"508 145 OFFCURVE",
"570 317 OFFCURVE",
"568 456 CURVE SMOOTH",
"566 576 OFFCURVE",
"427 712 OFFCURVE",
"253 710 CURVE",
"203 693 OFFCURVE",
"181 651 OFFCURVE",
"181 603 CURVE",
"149 604 OFFCURVE",
"131 603 OFFCURVE",
"97 593 CURVE",
"66 507 OFFCURVE",
"13 264 OFFCURVE",
"19 186 CURVE SMOOTH",
"25 121 OFFCURVE",
"135 23 OFFCURVE",
"228 0 CURVE",
"248 -76 OFFCURVE",
"292 -165 OFFCURVE",
"359 -170 CURVE SMOOTH",
"476 -178 OFFCURVE",
"594 -119 OFFCURVE",
"600 -58 CURVE SMOOTH",
"605 -7 OFFCURVE",
"576 30 OFFCURVE",
"521 58 CURVE"
);
},
{
closed = 1;
nodes = (
"419 380 OFFCURVE",
"367 244 OFFCURVE",
"271 151 CURVE",
"259 191 OFFCURVE",
"221 224 OFFCURVE",
"178 222 CURVE",
"191 320 OFFCURVE",
"225 417 OFFCURVE",
"264 502 CURVE",
"263 513 OFFCURVE",
"261 523 OFFCURVE",
"258 532 CURVE",
"332 530 OFFCURVE",
"391 510 OFFCURVE",
"429 485 CURVE"
);
}
);
width = 589;
}
);
leftMetricsKey = O;
unicode = 0051;
},
{
glyphname = R;
lastChange = "2015-09-21 12:47:37 +0000";
layers = (
{
associatedMasterId = "AF1B7CCB-9C31-456C-8386-1D362D80AEF6";
background = {
paths = (
{
closed = 1;
nodes = (
"488 192 OFFCURVE",
"466 181 OFFCURVE",
"431 170 CURVE",
"385 193 OFFCURVE",
"353 228 OFFCURVE",
"319 269 CURVE",
"476 294 OFFCURVE",
"580 372 OFFCURVE",
"580 493 CURVE SMOOTH",
"580 642 OFFCURVE",
"414 705 OFFCURVE",
"247 705 CURVE SMOOTH",
"193 705 OFFCURVE",
"137 698 OFFCURVE",
"83 684 CURVE",
"54 629 OFFCURVE",
"63 580 OFFCURVE",
"97 547 CURVE",
"134 553 LINE",
"118 455 OFFCURVE",
"46 132 OFFCURVE",
"47 94 CURVE SMOOTH",
"47 62 OFFCURVE",
"133 0 OFFCURVE",
"180 0 CURVE SMOOTH",
"208 0 OFFCURVE",
"218 118 OFFCURVE",
"230 233 CURVE",
"267 125 OFFCURVE",
"358 0 OFFCURVE",
"443 0 CURVE SMOOTH",
"532 0 OFFCURVE",
"581 54 OFFCURVE",
"581 110 CURVE SMOOTH",
"581 147 OFFCURVE",
"561 184 OFFCURVE",
"519 210 CURVE"
);
},
{
closed = 1;
nodes = (
"429 428 OFFCURVE",
"351 378 OFFCURVE",
"249 368 CURVE",
"257 425 OFFCURVE",
"272 499 OFFCURVE",
"281 559 CURVE",
"374 573 OFFCURVE",
"429 537 OFFCURVE",
"429 491 CURVE SMOOTH"
);
}
);
};
layerId = "C23BCC6C-FEB0-4F91-84EC-E02318F1B1DC";
name = "Bold Italic Aug 17 15, 22:10";
paths = (
{
closed = 1;
nodes = (
"488 192 OFFCURVE",
"466 181 OFFCURVE",
"431 170 CURVE",
"385 193 OFFCURVE",
"353 228 OFFCURVE",
"319 269 CURVE",
"476 294 OFFCURVE",
"580 372 OFFCURVE",
"580 493 CURVE SMOOTH",
"580 642 OFFCURVE",
"414 705 OFFCURVE",
"247 705 CURVE SMOOTH",
"193 705 OFFCURVE",
"137 698 OFFCURVE",
"83 684 CURVE",
"54 629 OFFCURVE",
"63 580 OFFCURVE",
"97 547 CURVE",
"134 553 LINE",
"118 455 OFFCURVE",
"46 132 OFFCURVE",
"47 94 CURVE SMOOTH",
"47 62 OFFCURVE",
"133 0 OFFCURVE",
"180 0 CURVE SMOOTH",
"208 0 OFFCURVE",
"218 118 OFFCURVE",
"230 233 CURVE",
"267 125 OFFCURVE",
"358 0 OFFCURVE",
"443 0 CURVE SMOOTH",
"532 0 OFFCURVE",
"581 54 OFFCURVE",
"581 110 CURVE SMOOTH",
"581 147 OFFCURVE",
"561 184 OFFCURVE",
"519 210 CURVE"
);
},
{
closed = 1;
nodes = (
"429 428 OFFCURVE",
"351 378 OFFCURVE",
"249 368 CURVE",
"257 425 OFFCURVE",
"272 499 OFFCURVE",
"281 559 CURVE",
"374 573 OFFCURVE",
"429 537 OFFCURVE",
"429 491 CURVE SMOOTH"
);
}
);
width = 624;
},
{
anchors = (
{
name = top;
position = "{361, 733}";
}
);
background = {
paths = (
{
closed = 1;
nodes = (
"501 300 OFFCURVE",
"585 385 OFFCURVE",
"585 493 CURVE SMOOTH",
"585 642 OFFCURVE",
"419 705 OFFCURVE",
"252 705 CURVE SMOOTH",
"198 705 OFFCURVE",
"142 698 OFFCURVE",
"88 684 CURVE",
"59 629 OFFCURVE",
"68 580 OFFCURVE",
"102 547 CURVE",
"139 553 LINE",
"123 455 OFFCURVE",
"51 132 OFFCURVE",
"52 94 CURVE SMOOTH",
"52 62 OFFCURVE",
"138 0 OFFCURVE",
"185 0 CURVE SMOOTH",
"215 0 OFFCURVE",
"223 128 OFFCURVE",
"234 224 CURVE",
"274 126 OFFCURVE",
"354 46 OFFCURVE",
"459 0 CURVE",
"557 18 OFFCURVE",
"574 85 OFFCURVE",
"552 153 CURVE",
"475 175 OFFCURVE",
"360 232 OFFCURVE",
"331 268 CURVE"
);
},
{
closed = 1;
nodes = (
"265 440 OFFCURVE",
"273 479 OFFCURVE",
"286 559 CURVE",
"379 573 OFFCURVE",
"434 537 OFFCURVE",
"434 491 CURVE SMOOTH",
"434 428 OFFCURVE",
"359 379 OFFCURVE",
"254 368 CURVE"
);
}
);
};
layerId = "AF1B7CCB-9C31-456C-8386-1D362D80AEF6";
name = "Bold Italic";
paths = (
{
closed = 1;
nodes = (
"541 3 OFFCURVE",
"573 68 OFFCURVE",
"557 141 CURVE",
"458 175 OFFCURVE",
"397 207 OFFCURVE",
"329 271 CURVE",
"503 298 OFFCURVE",
"585 386 OFFCURVE",
"585 493 CURVE SMOOTH",
"585 642 OFFCURVE",
"419 705 OFFCURVE",
"252 705 CURVE SMOOTH",
"198 705 OFFCURVE",
"142 698 OFFCURVE",
"88 684 CURVE",
"59 629 OFFCURVE",
"68 580 OFFCURVE",
"102 547 CURVE",
"139 553 LINE",
"123 455 OFFCURVE",
"51 132 OFFCURVE",
"52 94 CURVE SMOOTH",
"52 62 OFFCURVE",
"138 0 OFFCURVE",
"185 0 CURVE SMOOTH",
"215 0 OFFCURVE",
"224 134 OFFCURVE",
"235 235 CURVE",
"281 128 OFFCURVE",
"358 47 OFFCURVE",
"450 -6 CURVE"
);
},
{
closed = 1;
nodes = (
"265 440 OFFCURVE",
"273 479 OFFCURVE",
"286 559 CURVE",
"379 573 OFFCURVE",
"434 537 OFFCURVE",
"434 491 CURVE SMOOTH",
"434 428 OFFCURVE",
"359 379 OFFCURVE",
"254 368 CURVE"
);
}
);
width = 605;
},
{
associatedMasterId = "AF1B7CCB-9C31-456C-8386-1D362D80AEF6";
background = {
paths = (
{
closed = 1;
nodes = (
"496 300 OFFCURVE",
"580 385 OFFCURVE",
"580 493 CURVE SMOOTH",
"580 642 OFFCURVE",
"414 705 OFFCURVE",
"247 705 CURVE SMOOTH",
"193 705 OFFCURVE",
"137 698 OFFCURVE",
"83 684 CURVE",
"54 629 OFFCURVE",
"63 580 OFFCURVE",
"97 547 CURVE",
"134 553 LINE",
"118 455 OFFCURVE",
"46 132 OFFCURVE",
"47 94 CURVE SMOOTH",
"47 62 OFFCURVE",
"133 0 OFFCURVE",
"180 0 CURVE SMOOTH",
"210 0 OFFCURVE",
"218 128 OFFCURVE",
"229 224 CURVE",
"272 126 OFFCURVE",
"350 46 OFFCURVE",
"451 0 CURVE",
"543 15 OFFCURVE",
"569 85 OFFCURVE",
"545 153 CURVE",
"462 176 OFFCURVE",
"383 211 OFFCURVE",
"326 268 CURVE"
);
},
{
closed = 1;
nodes = (
"260 440 OFFCURVE",
"268 479 OFFCURVE",
"281 559 CURVE",
"374 573 OFFCURVE",
"429 537 OFFCURVE",
"429 491 CURVE SMOOTH",
"429 428 OFFCURVE",
"354 379 OFFCURVE",
"249 368 CURVE"
);
}
);
};
layerId = "F61A23D5-202E-4DF2-A0FB-2AB583D14A52";
name = "Bold Italic Sep 17 15, 18:30";
paths = (
{
closed = 1;
nodes = (
"496 300 OFFCURVE",
"580 385 OFFCURVE",
"580 493 CURVE SMOOTH",
"580 642 OFFCURVE",
"414 705 OFFCURVE",
"247 705 CURVE SMOOTH",
"193 705 OFFCURVE",
"137 698 OFFCURVE",
"83 684 CURVE",
"54 629 OFFCURVE",
"63 580 OFFCURVE",
"97 547 CURVE",
"134 553 LINE",
"118 455 OFFCURVE",
"46 132 OFFCURVE",
"47 94 CURVE SMOOTH",
"47 62 OFFCURVE",
"133 0 OFFCURVE",
"180 0 CURVE SMOOTH",
"210 0 OFFCURVE",
"218 128 OFFCURVE",
"229 224 CURVE",
"274 140 OFFCURVE",
"350 46 OFFCURVE",
"456 -8 CURVE",
"548 0 OFFCURVE",
"579 68 OFFCURVE",
"560 138 CURVE",
"472 171 OFFCURVE",
"396 206 OFFCURVE",
"326 268 CURVE"
);
},
{
closed = 1;
nodes = (
"260 440 OFFCURVE",
"268 479 OFFCURVE",
"281 559 CURVE",
"374 573 OFFCURVE",
"429 537 OFFCURVE",
"429 491 CURVE SMOOTH",
"429 428 OFFCURVE",
"354 379 OFFCURVE",
"249 368 CURVE"
);
}
);
width = 597;
}
);
leftMetricsKey = D;
unicode = 0052;
},
{
glyphname = Rcommaaccent;
lastChange = "2015-09-19 14:09:03 +0000";
layers = (
{
components = (
{
name = R;
}
);
layerId = "AF1B7CCB-9C31-456C-8386-1D362D80AEF6";
name = "Bold Italic";
paths = (
{
closed = 1;
nodes = (
"296 -285 OFFCURVE",
"332 -231 OFFCURVE",
"368 -133 CURVE",
"347 -70 OFFCURVE",
"263 -46 OFFCURVE",
"193 -98 CURVE",
"204 -219 LINE",
"152 -307 LINE",
"161 -338 OFFCURVE",
"188 -351 OFFCURVE",
"224 -349 CURVE"
);
}
);
width = 597;
}
);
unicode = 0156;
},
{
glyphname = S;
lastChange = "2015-09-21 12:49:03 +0000";
layers = (
{
anchors = (
{
name = top;
position = "{343, 733}";
}
);
background = {
paths = (
{
closed = 1;
nodes = (
"400 418 OFFCURVE",
"495 442 OFFCURVE",
"493 521 CURVE SMOOTH",
"491 600 OFFCURVE",
"403 710 OFFCURVE",
"312 710 CURVE SMOOTH",
"182 710 OFFCURVE",
"72 531 OFFCURVE",
"72 442 CURVE SMOOTH",
"72 347 OFFCURVE",
"218 247 OFFCURVE",
"287 173 CURVE",
"254 147 OFFCURVE",
"215 134 OFFCURVE",
"166 126 CURVE",
"155 158 OFFCURVE",
"146 190 OFFCURVE",
"139 221 CURVE",
"46 241 OFFCURVE",
"-18 201 OFFCURVE",
"-16 129 CURVE SMOOTH",
"-15 82 OFFCURVE",
"93 0 OFFCURVE",
"185 0 CURVE SMOOTH",
"300 0 OFFCURVE",
"460 72 OFFCURVE",
"457 161 CURVE SMOOTH",
"455 226 OFFCURVE",
"238 335 OFFCURVE",
"236 420 CURVE SMOOTH",
"234 481 OFFCURVE",
"280 576 OFFCURVE",
"318 576 CURVE SMOOTH",
"344 576 OFFCURVE",
"334 492 OFFCURVE",
"327 449 CURVE"
);
}
);
};
layerId = "AF1B7CCB-9C31-456C-8386-1D362D80AEF6";
name = "Bold Italic";
paths = (
{
closed = 1;
nodes = (
"405 415 OFFCURVE",
"500 447 OFFCURVE",
"497.998 521 CURVE SMOOTH",
"496.034 598.588 OFFCURVE",
"406.904 710 OFFCURVE",
"312 710 CURVE SMOOTH",
"177.74 710 OFFCURVE",
"70 530 OFFCURVE",
"70 442 CURVE SMOOTH",
"70 354 OFFCURVE",
"214 238 OFFCURVE",
"293 178 CURVE",
"256 158 OFFCURVE",
"217 139 OFFCURVE",
"165 126 CURVE",
"155 158 OFFCURVE",
"148 199 OFFCURVE",
"143.877 221 CURVE",
"45 247 OFFCURVE",
"-23 201 OFFCURVE",
"-20.998 129 CURVE SMOOTH",
"-20.031 83.524 OFFCURVE",
"90 0 OFFCURVE",
"185 0 CURVE SMOOTH",
"302 0 OFFCURVE",
"470 87 OFFCURVE",
"467 175 CURVE SMOOTH",
"465 239 OFFCURVE",
"240 334 OFFCURVE",
"237 428 CURVE SMOOTH",
"236 483 OFFCURVE",
"286.265 576 OFFCURVE",
"318 576 CURVE SMOOTH",
"330.75 576 OFFCURVE",
"334.087 522.849 OFFCURVE",
"322 451 CURVE"
);
}
);
width = 494;
},
{
associatedMasterId = "AF1B7CCB-9C31-456C-8386-1D362D80AEF6";
background = {
paths = (
{
closed = 1;
nodes = (
"293 0 OFFCURVE",
"428 78 OFFCURVE",
"428 149 CURVE SMOOTH",
"428 223 OFFCURVE",
"255 316 OFFCURVE",
"255 375 CURVE SMOOTH",
"255 448 OFFCURVE",
"363 533 OFFCURVE",
"438 558 CURVE",
"456 645 OFFCURVE",
"419 697 OFFCURVE",
"321 700 CURVE",
"169 642 OFFCURVE",
"81 485 OFFCURVE",
"81 406 CURVE SMOOTH",
"81 320 OFFCURVE",
"183 256 OFFCURVE",
"258 187 CURVE",
"228 157 OFFCURVE",
"209 130 OFFCURVE",
"169 117 CURVE",
"161 138 OFFCURVE",
"154 195 OFFCURVE",
"148 221 CURVE",
"59 231 OFFCURVE",
"-6 196 OFFCURVE",
"-6 135 CURVE SMOOTH",
"-6 72 OFFCURVE",
"93 0 OFFCURVE",
"156 0 CURVE SMOOTH"
);
}
);
};
layerId = "5899F4B3-88A5-4B1C-90C5-F6702AC28A65";
name = "Bold Italic Aug 19 15, 15:54";
paths = (
{
closed = 1;
nodes = (
"293 0 OFFCURVE",
"428 78 OFFCURVE",
"428 149 CURVE SMOOTH",
"428 223 OFFCURVE",
"255 316 OFFCURVE",
"255 375 CURVE SMOOTH",
"255 448 OFFCURVE",
"363 533 OFFCURVE",
"438 558 CURVE",
"456 645 OFFCURVE",
"419 697 OFFCURVE",
"321 700 CURVE",
"169 642 OFFCURVE",
"81 485 OFFCURVE",
"81 406 CURVE SMOOTH",
"81 320 OFFCURVE",
"183 256 OFFCURVE",
"258 187 CURVE",
"228 157 OFFCURVE",
"209 130 OFFCURVE",
"169 117 CURVE",
"161 138 OFFCURVE",
"154 195 OFFCURVE",
"148 221 CURVE",
"59 231 OFFCURVE",
"-6 196 OFFCURVE",
"-6 135 CURVE SMOOTH",
"-6 72 OFFCURVE",
"93 0 OFFCURVE",
"156 0 CURVE SMOOTH"
);
}
);
width = 473;
},
{
associatedMasterId = "AF1B7CCB-9C31-456C-8386-1D362D80AEF6";
background = {
paths = (
{
closed = 1;
nodes = (
"397 421 OFFCURVE",
"485 443 OFFCURVE",
"485 521 CURVE SMOOTH",
"485 597 OFFCURVE",
"401 710 OFFCURVE",
"306 710 CURVE SMOOTH",
"203 710 OFFCURVE",
"81 526 OFFCURVE",
"81 421 CURVE SMOOTH",
"81 304 OFFCURVE",
"212 248 OFFCURVE",
"267 169 CURVE",
"243 144 OFFCURVE",
"208 123 OFFCURVE",
"166 119 CURVE",
"156 151 OFFCURVE",
"148 190 OFFCURVE",
"142 221 CURVE",
"55 241 OFFCURVE",
"-6 201 OFFCURVE",
"-6 129 CURVE SMOOTH",
"-6 72 OFFCURVE",
"93 0 OFFCURVE",
"166 0 CURVE SMOOTH",
"274 0 OFFCURVE",
"428 75 OFFCURVE",
"428 149 CURVE SMOOTH",
"428 217 OFFCURVE",
"255 309 OFFCURVE",
"255 375 CURVE SMOOTH",
"255 428 OFFCURVE",
"269 508 OFFCURVE",
"324 557 CURVE",
"324 525 OFFCURVE",
"329 486 OFFCURVE",
"323 449 CURVE"
);
}
);
};
layerId = "B12390A9-8C5F-44D4-9023-7ECF7ABB9F2D";
name = "Bold Italic Aug 19 15, 16:09";
paths = (
{
closed = 1;
nodes = (
"397 421 OFFCURVE",
"485 443 OFFCURVE",
"485 521 CURVE SMOOTH",
"485 597 OFFCURVE",
"401 710 OFFCURVE",
"315 710 CURVE SMOOTH",
"203 710 OFFCURVE",
"81 526 OFFCURVE",
"81 421 CURVE SMOOTH",
"81 304 OFFCURVE",
"212 248 OFFCURVE",
"267 169 CURVE",
"243 144 OFFCURVE",
"208 123 OFFCURVE",
"166 119 CURVE",
"156 151 OFFCURVE",
"148 190 OFFCURVE",
"142 221 CURVE",
"55 241 OFFCURVE",
"-6 201 OFFCURVE",
"-6 129 CURVE SMOOTH",
"-6 72 OFFCURVE",
"93 0 OFFCURVE",
"166 0 CURVE SMOOTH",
"274 0 OFFCURVE",
"428 75 OFFCURVE",
"428 149 CURVE SMOOTH",
"428 209 OFFCURVE",
"277 303 OFFCURVE",
"255 365 CURVE SMOOTH",
"236 418 OFFCURVE",
"269 508 OFFCURVE",
"324 557 CURVE",
"324 525 OFFCURVE",
"329 486 OFFCURVE",
"323 449 CURVE"
);
}
);
width = 473;
}
);
unicode = 0053;
},
{
glyphname = Scommaaccent;
lastChange = "2015-09-19 14:09:10 +0000";
layers = (
{
components = (
{
name = S;
}
);
layerId = "AF1B7CCB-9C31-456C-8386-1D362D80AEF6";
name = "Bold Italic";
paths = (
{
closed = 1;
nodes = (
"214 -285 OFFCURVE",
"250 -231 OFFCURVE",
"286 -133 CURVE",
"265 -70 OFFCURVE",
"181 -46 OFFCURVE",
"111 -98 CURVE",
"122 -219 LINE",
"70 -307 LINE",
"79 -338 OFFCURVE",
"106 -351 OFFCURVE",
"142 -349 CURVE"
);
}
);
width = 484;
}
);
unicode = 0218;
},
{
glyphname = T;
lastChange = "2015-09-21 12:49:16 +0000";
layers = (
{
anchors = (
{
name = top;
position = "{380, 733}";
}
);
background = {
paths = (
{
closed = 1;
nodes = (
"474 684 OFFCURVE",
"227 692 OFFCURVE",
"93 674 CURVE",
"44 625 OFFCURVE",
"58 554 OFFCURVE",
"104 531 CURVE",
"260 550 LINE",
"251 495 OFFCURVE",
"239 438 OFFCURVE",
"227 371 CURVE SMOOTH",
"208 260 OFFCURVE",
"175 127 OFFCURVE",
"176 94 CURVE SMOOTH",
"176 62 OFFCURVE",
"262 0 OFFCURVE",
"309 0 CURVE SMOOTH",
"344 0 OFFCURVE",
"342 135 OFFCURVE",
"371 303 CURVE SMOOTH",
"390 410 OFFCURVE",
"402 485 OFFCURVE",
"415 555 CURVE",
"481 557 OFFCURVE",
"532 559 OFFCURVE",
"582 557 CURVE",
"620 593 OFFCURVE",
"624 674 OFFCURVE",
"573 703 CURVE"
);
}
);
};
layerId = "AF1B7CCB-9C31-456C-8386-1D362D80AEF6";
name = "Bold Italic";
paths = (
{
closed = 1;
nodes = (
"474 681 OFFCURVE",
"227 689 OFFCURVE",
"93 671 CURVE",
"44 622 OFFCURVE",
"58 551 OFFCURVE",
"104 528 CURVE",
"260 547 LINE",
"251 492 OFFCURVE",
"239 438 OFFCURVE",
"227 371 CURVE SMOOTH",
"208 260 OFFCURVE",
"175 127 OFFCURVE",
"176 94 CURVE SMOOTH",
"176 62 OFFCURVE",
"262 0 OFFCURVE",
"309 0 CURVE SMOOTH",
"344 0 OFFCURVE",
"342 135 OFFCURVE",
"371 303 CURVE SMOOTH",
"390 410 OFFCURVE",
"402 482 OFFCURVE",
"415 552 CURVE",
"481 554 OFFCURVE",
"532 556 OFFCURVE",
"582 554 CURVE",
"620 590 OFFCURVE",
"624 671 OFFCURVE",
"573 700 CURVE"
);
}
);
width = 567;
}
);
unicode = 0054;
},
{
glyphname = Tcommaaccent;
lastChange = "2015-09-19 14:09:21 +0000";
layers = (
{
components = (
{
name = T;
}
);
layerId = "AF1B7CCB-9C31-456C-8386-1D362D80AEF6";
name = "Bold Italic";
paths = (
{
closed = 1;
nodes = (
"245 -285 OFFCURVE",
"281 -231 OFFCURVE",
"317 -133 CURVE",
"296 -70 OFFCURVE",
"212 -46 OFFCURVE",
"142 -98 CURVE",
"153 -219 LINE",
"101 -307 LINE",
"110 -338 OFFCURVE",
"137 -351 OFFCURVE",
"173 -349 CURVE"
);
}
);
width = 568;
}
);
unicode = 021A;
},
{
glyphname = U;
lastChange = "2015-09-18 17:21:35 +0000";
layers = (
{
anchors = (
{
name = top;
position = "{351, 733}";
}
);
background = {
paths = (
{
closed = 1;
nodes = (
"502 721 OFFCURVE",
"437 700 OFFCURVE",
"386 645 CURVE",
"397 604 OFFCURVE",
"402 561 OFFCURVE",
"402 517 CURVE SMOOTH",
"402 330 OFFCURVE",
"313 138 OFFCURVE",
"225 138 CURVE SMOOTH",
"154 138 OFFCURVE",
"233 504 OFFCURVE",
"284 621 CURVE",
"266 694 OFFCURVE",
"187 719 OFFCURVE",
"111 683 CURVE",
"63 519 OFFCURVE",
"26 251 OFFCURVE",
"26 169 CURVE SMOOTH",
"26 103 OFFCURVE",
"164 -5 OFFCURVE",
"247 -5 CURVE SMOOTH",
"407 -5 OFFCURVE",
"577 223 OFFCURVE",
"577 532 CURVE SMOOTH",
"577 577 OFFCURVE",
"573 624 OFFCURVE",
"565 673 CURVE"
);
}
);
};
layerId = "AF1B7CCB-9C31-456C-8386-1D362D80AEF6";
name = "Bold Italic";
paths = (
{
closed = 1;
nodes = (
"502 721 OFFCURVE",
"437 700 OFFCURVE",
"386 645 CURVE",
"397 604 OFFCURVE",
"402 561 OFFCURVE",
"402 517 CURVE SMOOTH",
"402 330 OFFCURVE",
"313 138 OFFCURVE",
"225 138 CURVE SMOOTH",
"154 138 OFFCURVE",
"229 484 OFFCURVE",
"280 601 CURVE",
"262 674 OFFCURVE",
"183 699 OFFCURVE",
"107 663 CURVE",
"59 499 OFFCURVE",
"26 251 OFFCURVE",
"26 169 CURVE SMOOTH",
"26 103 OFFCURVE",
"164 -5 OFFCURVE",
"247 -5 CURVE SMOOTH",
"407 -5 OFFCURVE",
"577 223 OFFCURVE",
"577 532 CURVE SMOOTH",
"577 577 OFFCURVE",
"573 624 OFFCURVE",
"565 673 CURVE"
);
}
);
width = 587;
}
);
unicode = 0055;
},
{
glyphname = V;
lastChange = "2015-09-21 15:08:44 +0000";
layers = (
{
background = {
paths = (
{
closed = 1;
nodes = (
"326 0 OFFCURVE",
"535 457 OFFCURVE",
"602 619 CURVE",
"575 703 OFFCURVE",
"511 716 OFFCURVE",
"434 692 CURVE",
"384 543 OFFCURVE",
"315 345 OFFCURVE",
"241 193 CURVE",
"239 341 OFFCURVE",
"254 580 OFFCURVE",
"246 610 CURVE SMOOTH",
"237 644 OFFCURVE",
"131 686 OFFCURVE",
"92 677 CURVE SMOOTH",
"62 668 OFFCURVE",
"85 478 OFFCURVE",
"94 373 CURVE SMOOTH",
"104 250 OFFCURVE",
"112 124 OFFCURVE",
"119 94 CURVE SMOOTH",
"127 64 OFFCURVE",
"239 0 OFFCURVE",
"280 0 CURVE SMOOTH"
);
}
);
};
layerId = "AF1B7CCB-9C31-456C-8386-1D362D80AEF6";
name = "Bold Italic";
paths = (
{
closed = 1;
nodes = (
"317 0 OFFCURVE",
"526 454 OFFCURVE",
"599 613 CURVE",
"583 700 OFFCURVE",
"508 716 OFFCURVE",
"431 692 CURVE",
"381 543 OFFCURVE",
"315 355 OFFCURVE",
"241 193 CURVE",
"239 341 OFFCURVE",
"254 580 OFFCURVE",
"246 610 CURVE SMOOTH",
"237 644 OFFCURVE",
"131 686 OFFCURVE",
"92 677 CURVE SMOOTH",
"62 668 OFFCURVE",
"85 478 OFFCURVE",
"94 373 CURVE SMOOTH",
"104 250 OFFCURVE",
"112 124 OFFCURVE",
"119 94 CURVE SMOOTH",
"128 60 OFFCURVE",
"236 0 OFFCURVE",
"275 0 CURVE SMOOTH"
);
}
);
width = 566;
}
);
unicode = 0056;
},
{
glyphname = W;
lastChange = "2015-09-21 12:50:13 +0000";
layers = (
{
background = {
paths = (
{
closed = 1;
nodes = (
"628 0 OFFCURVE",
"710 358 OFFCURVE",
"710 470 CURVE SMOOTH",
"710 593 OFFCURVE",
"621 677 OFFCURVE",
"472 700 CURVE",
"398 670 OFFCURVE",
"389 594 OFFCURVE",
"433 535 CURVE",
"486 537 OFFCURVE",
"525 526 OFFCURVE",
"571 503 CURVE",
"571 378 OFFCURVE",
"548 234 OFFCURVE",
"472 151 CURVE",
"457 286 OFFCURVE",
"425 409 OFFCURVE",
"351 409 CURVE SMOOTH",
"309 409 OFFCURVE",
"254 306 OFFCURVE",
"189 210 CURVE",
"173 216 LINE",
"210 361 OFFCURVE",
"284 545 OFFCURVE",
"284 603 CURVE SMOOTH",
"284 638 OFFCURVE",
"190 700 OFFCURVE",
"151 700 CURVE SMOOTH",
"120 700 OFFCURVE",
"90 490 OFFCURVE",
"74 401 CURVE SMOOTH",
"50 260 OFFCURVE",
"17 127 OFFCURVE",
"18 94 CURVE SMOOTH",
"18 62 OFFCURVE",
"104 0 OFFCURVE",
"151 0 CURVE SMOOTH",
"191 0 OFFCURVE",
"268 129 OFFCURVE",
"331 253 CURVE",
"336 189 OFFCURVE",
"341 96 OFFCURVE",
"346 78 CURVE SMOOTH",
"355 50 OFFCURVE",
"448 0 OFFCURVE",
"512 0 CURVE SMOOTH"
);
}
);
};
layerId = "AF1B7CCB-9C31-456C-8386-1D362D80AEF6";
name = "Bold Italic";
paths = (
{
closed = 1;
nodes = (
"628 0 OFFCURVE",
"710 358 OFFCURVE",
"710 480 CURVE SMOOTH",
"710 593 OFFCURVE",
"629 677 OFFCURVE",
"486 700 CURVE",
"399 677 OFFCURVE",
"392 605 OFFCURVE",
"433 535 CURVE",
"486 537 OFFCURVE",
"525 526 OFFCURVE",
"571 503 CURVE",
"571 378 OFFCURVE",
"548 234 OFFCURVE",
"472 151 CURVE",
"457 286 OFFCURVE",
"425 409 OFFCURVE",
"351 409 CURVE SMOOTH",
"309 409 OFFCURVE",
"254 306 OFFCURVE",
"189 210 CURVE",
"173 216 LINE",
"210 361 OFFCURVE",
"284 545 OFFCURVE",
"284 603 CURVE SMOOTH",
"284 638 OFFCURVE",
"190 700 OFFCURVE",
"151 700 CURVE SMOOTH",
"120 700 OFFCURVE",
"90 490 OFFCURVE",
"74 401 CURVE SMOOTH",
"50 260 OFFCURVE",
"18 127 OFFCURVE",
"18 94 CURVE SMOOTH",
"18 62 OFFCURVE",
"104 0 OFFCURVE",
"151 0 CURVE SMOOTH",
"191 0 OFFCURVE",
"268 129 OFFCURVE",
"331 253 CURVE",
"336 189 OFFCURVE",
"341 96 OFFCURVE",
"346 78 CURVE SMOOTH",
"355 50 OFFCURVE",
"448 0 OFFCURVE",
"512 0 CURVE SMOOTH"
);
}
);
width = 716;
},
{
associatedMasterId = "AF1B7CCB-9C31-456C-8386-1D362D80AEF6";
components = (
{
name = M;
transform = "{-1, 0, 0, -1, 789, 693}";
}
);
layerId = "F7D591C9-CA77-4966-89C5-9000621887F9";
name = "Bold Italic Aug 14 15, 22:38";
width = 876;
}
);
leftMetricsKey = I;
rightMetricsKey = O;
unicode = 0057;
},
{
glyphname = X;
lastChange = "2015-08-18 13:30:43 +0000";
layers = (
{
background = {
paths = (
{
closed = 1;
nodes = (
"260 177 OFFCURVE",
"477 431 OFFCURVE",
"606 585 CURVE",
"599 672 OFFCURVE",
"543 721 OFFCURVE",
"439 694 CURVE",
"357 495 OFFCURVE",
"197 303 OFFCURVE",
"-7 142 CURVE",
"-23 67 OFFCURVE",
"31 -2 OFFCURVE",
"134 0 CURVE"
);
},
{
closed = 1;
nodes = (
"291 147 OFFCURVE",
"341 71 OFFCURVE",
"426 0 CURVE",
"510 -1 OFFCURVE",
"556 62 OFFCURVE",
"552 135 CURVE",
"470 184 OFFCURVE",
"376 268 OFFCURVE",
"315 355 CURVE SMOOTH",
"251 447 OFFCURVE",
"221 674 OFFCURVE",
"174 674 CURVE SMOOTH",
"134 674 OFFCURVE",
"59 624 OFFCURVE",
"59 588 CURVE SMOOTH",
"59 538 OFFCURVE",
"140 401 OFFCURVE",
"230 289 CURVE"
);
}
);
};
layerId = "AF1B7CCB-9C31-456C-8386-1D362D80AEF6";
name = "Bold Italic";
paths = (
{
closed = 1;
nodes = (
"177 60 OFFCURVE",
"227 124 OFFCURVE",
"276 192 CURVE",
"324 107 OFFCURVE",
"368 52 OFFCURVE",
"426 0 CURVE",
"510 -1 OFFCURVE",
"556 62 OFFCURVE",
"552 135 CURVE",
"489 172 OFFCURVE",
"420 230 OFFCURVE",
"361 299 CURVE",
"451 402 OFFCURVE",
"540 506 OFFCURVE",
"606 585 CURVE",
"599 672 OFFCURVE",
"543 721 OFFCURVE",
"439 694 CURVE",
"401 602 OFFCURVE",
"347 512 OFFCURVE",
"281 421 CURVE",
"238 531 OFFCURVE",
"211 674 OFFCURVE",
"174 674 CURVE SMOOTH",
"134 674 OFFCURVE",
"59 624 OFFCURVE",
"59 588 CURVE SMOOTH",
"59 544 OFFCURVE",
"122 433 OFFCURVE",
"203 328 CURVE",
"139 262 OFFCURVE",
"70 199 OFFCURVE",
"-7 142 CURVE",
"-23 67 OFFCURVE",
"31 -2 OFFCURVE",
"134 0 CURVE"
);
}
);
width = 593;
},
{
associatedMasterId = "AF1B7CCB-9C31-456C-8386-1D362D80AEF6";
background = {
paths = (
{
closed = 1;
nodes = (
"182 68 OFFCURVE",
"241 147 OFFCURVE",
"280 202 CURVE",
"240 192 LINE",
"278 108 OFFCURVE",
"347 0 OFFCURVE",
"401 0 CURVE SMOOTH",
"474 0 OFFCURVE",
"609 75 OFFCURVE",
"609 135 CURVE SMOOTH",
"609 185 OFFCURVE",
"573 240 OFFCURVE",
"491 252 CURVE",
"448 214 OFFCURVE",
"421 192 OFFCURVE",
"361 160 CURVE",
"381 142 LINE",
"322 254 LINE",
"443 381 OFFCURVE",
"537 498 OFFCURVE",
"595 587 CURVE",
"589 672 OFFCURVE",
"533 721 OFFCURVE",
"429 694 CURVE",
"382 592 OFFCURVE",
"337 486 OFFCURVE",
"265 388 CURVE",
"287 382 LINE",
"236 522 OFFCURVE",
"236 679 OFFCURVE",
"191 679 CURVE SMOOTH",
"145 679 OFFCURVE",
"67 631 OFFCURVE",
"67 596 CURVE SMOOTH",
"67 541 OFFCURVE",
"123 426 OFFCURVE",
"194 313 CURVE",
"123 243 OFFCURVE",
"65 196 OFFCURVE",
"-21 142 CURVE",
"-37 67 OFFCURVE",
"17 -2 OFFCURVE",
"120 0 CURVE"
);
}
);
};
layerId = "678C86A9-BFB5-414A-8FEF-18E9345C3B60";
name = "Bold Italic Aug 18 15, 18:53";
paths = (
{
closed = 1;
nodes = (
"182 68 OFFCURVE",
"241 147 OFFCURVE",
"280 202 CURVE",
"240 192 LINE",
"279 109 OFFCURVE",
"353 0 OFFCURVE",
"412 0 CURVE SMOOTH",
"480 0 OFFCURVE",
"613 80 OFFCURVE",
"613 140 CURVE SMOOTH",
"613 197 OFFCURVE",
"574 243 OFFCURVE",
"496 256 CURVE",
"450 215 OFFCURVE",
"424 193 OFFCURVE",
"364 156 CURVE",
"385 142 LINE",
"319 249 LINE",
"441 382 OFFCURVE",
"537 498 OFFCURVE",
"595 587 CURVE",
"589 672 OFFCURVE",
"533 721 OFFCURVE",
"429 694 CURVE",
"382 592 OFFCURVE",
"337 486 OFFCURVE",
"265 388 CURVE",
"287 382 LINE",
"236 522 OFFCURVE",
"236 679 OFFCURVE",
"191 679 CURVE SMOOTH",
"145 679 OFFCURVE",
"67 631 OFFCURVE",
"67 596 CURVE SMOOTH",
"67 541 OFFCURVE",
"123 426 OFFCURVE",
"194 313 CURVE",
"123 243 OFFCURVE",
"65 196 OFFCURVE",
"-21 142 CURVE",
"-37 67 OFFCURVE",
"17 -2 OFFCURVE",
"120 0 CURVE"
);
}
);
width = 645;
}
);
unicode = 0058;
},
{
glyphname = Y;
lastChange = "2015-09-21 12:50:38 +0000";
layers = (
{
anchors = (
{
name = top;
position = "{342, 733}";
}
);
background = {
paths = (
{
closed = 1;
nodes = (
"607 668 OFFCURVE",
"552 719 OFFCURVE",
"441 689 CURVE",
"401 600 OFFCURVE",
"346 483 OFFCURVE",
"280 372 CURVE",
"240 525 OFFCURVE",
"227 678 OFFCURVE",
"185 678 CURVE SMOOTH",
"139 678 OFFCURVE",
"61 626 OFFCURVE",
"61 591 CURVE SMOOTH",
"61 538 OFFCURVE",
"131 415 OFFCURVE",
"189 292 CURVE",
"166 197 OFFCURVE",
"146 124 OFFCURVE",
"147 94 CURVE SMOOTH",
"147 62 OFFCURVE",
"233 0 OFFCURVE",
"280 0 CURVE SMOOTH",
"312 0 OFFCURVE",
"312 96 OFFCURVE",
"330 230 CURVE",
"444 365 OFFCURVE",
"542 496 OFFCURVE",
"611 583 CURVE"
);
}
);
};
layerId = "AF1B7CCB-9C31-456C-8386-1D362D80AEF6";
name = "Bold Italic";
paths = (
{
closed = 1;
nodes = (
"607 668 OFFCURVE",
"552 719 OFFCURVE",
"441 689 CURVE",
"401 600 OFFCURVE",
"346 493 OFFCURVE",
"281 382 CURVE",
"240 535 OFFCURVE",
"233 678 OFFCURVE",
"191 678 CURVE SMOOTH",
"140 678 OFFCURVE",
"58 617 OFFCURVE",
"58 582 CURVE SMOOTH",
"58 530 OFFCURVE",
"130 408 OFFCURVE",
"187 284 CURVE",
"163 188 OFFCURVE",
"146 124 OFFCURVE",
"147 94 CURVE SMOOTH",
"147 62 OFFCURVE",
"233 0 OFFCURVE",
"280 0 CURVE SMOOTH",
"312 0 OFFCURVE",
"312 96 OFFCURVE",
"330 231 CURVE",
"444 365 OFFCURVE",
"542 496 OFFCURVE",
"611 583 CURVE"
);
}
);
width = 573;
}
);
unicode = 0059;
},
{
glyphname = Z;
lastChange = "2015-09-21 12:50:49 +0000";
layers = (
{
anchors = (
{
name = top;
position = "{310, 733}";
}
);
background = {
paths = (
{
closed = 1;
nodes = (
"460 693 OFFCURVE",
"254 694 OFFCURVE",
"141 691 CURVE",
"84 645 OFFCURVE",
"99 553 OFFCURVE",
"149 526 CURVE",
"246 536 OFFCURVE",
"307 540 OFFCURVE",
"398 549 CURVE",
"301 441 OFFCURVE",
"16 199 OFFCURVE",
"3 159 CURVE SMOOTH",
"-7 127 OFFCURVE",
"32 39 OFFCURVE",
"65 11 CURVE SMOOTH",
"88 -8 OFFCURVE",
"399 6 OFFCURVE",
"464 10 CURVE",
"510 59 OFFCURVE",
"499 154 OFFCURVE",
"444 179 CURVE",
"363 167 OFFCURVE",
"286 155 OFFCURVE",
"180 135 CURVE",
"319 268 OFFCURVE",
"536 482 OFFCURVE",
"557 538 CURVE SMOOTH",
"567 565 OFFCURVE",
"524 665 OFFCURVE",
"485 682 CURVE SMOOTH"
);
}
);
};
layerId = "AF1B7CCB-9C31-456C-8386-1D362D80AEF6";
name = "Bold Italic";
paths = (
{
closed = 1;
nodes = (
"434 693 OFFCURVE",
"224 694 OFFCURVE",
"111 691 CURVE",
"54 645 OFFCURVE",
"69 553 OFFCURVE",
"119 526 CURVE",
"216 536 OFFCURVE",
"282 540 OFFCURVE",
"373 549 CURVE",
"276 441 OFFCURVE",
"16 199 OFFCURVE",
"3 159 CURVE SMOOTH",
"-7 127 OFFCURVE",
"32 39 OFFCURVE",
"65 11 CURVE SMOOTH",
"88 -8 OFFCURVE",
"399 6 OFFCURVE",
"464 10 CURVE",
"510 59 OFFCURVE",
"499 154 OFFCURVE",
"444 179 CURVE",
"363 167 OFFCURVE",
"286 155 OFFCURVE",
"180 135 CURVE",
"319 268 OFFCURVE",
"510 482 OFFCURVE",
"531 538 CURVE SMOOTH",
"541 565 OFFCURVE",
"498 665 OFFCURVE",
"459 682 CURVE SMOOTH"
);
}
);
width = 539;
}
);
unicode = 005A;
},
{
color = 3;
glyphname = G.ss03;
lastChange = "2015-08-24 17:33:25 +0000";
layers = (
{
associatedMasterId = "AF1B7CCB-9C31-456C-8386-1D362D80AEF6";
background = {
paths = (
{
closed = 1;
nodes = (
"495 -75 OFFCURVE",
"551 124 OFFCURVE",
"557 263 CURVE SMOOTH",
"559 354 OFFCURVE",
"504 396 OFFCURVE",
"385 396 CURVE SMOOTH",
"332 396 OFFCURVE",
"304 388 OFFCURVE",
"288 365 CURVE SMOOTH",
"272 342 OFFCURVE",
"278 264 OFFCURVE",
"296 249 CURVE SMOOTH",
"309 237 OFFCURVE",
"359 232 OFFCURVE",
"408 237 CURVE",
"412 203 LINE",
"343 173 OFFCURVE",
"247 154 OFFCURVE",
"154 156 CURVE",
"185 142 LINE",
"191 345 OFFCURVE",
"281 565 OFFCURVE",
"350 565 CURVE SMOOTH",
"379 565 OFFCURVE",
"385 529 OFFCURVE",
"380 450 CURVE",
"458 420 OFFCURVE",
"541 448 OFFCURVE",
"542 522 CURVE SMOOTH",
"544 599 OFFCURVE",
"461 700 OFFCURVE",
"351 700 CURVE SMOOTH",
"145 700 OFFCURVE",
"30 408 OFFCURVE",
"23 210 CURVE SMOOTH",
"22 129 OFFCURVE",
"139 0 OFFCURVE",
"216 0 CURVE SMOOTH",
"264 0 OFFCURVE",
"318 27 OFFCURVE",
"363 52 CURVE",
"355 28 OFFCURVE",
"346 3 OFFCURVE",
"346 -8 CURVE SMOOTH",
"346 -38 OFFCURVE",
"414 -75 OFFCURVE",
"464 -75 CURVE SMOOTH"
);
}
);
};
layerId = "87D3CB61-04AB-46CE-9A04-9D7AFE3B704D";
name = "Bold Italic Aug 8 15, 18:43";
paths = (
{
closed = 1;
nodes = (
"493 -75 OFFCURVE",
"547 104 OFFCURVE",
"553 250 CURVE SMOOTH",
"556 348 OFFCURVE",
"503 396 OFFCURVE",
"382 396 CURVE SMOOTH",
"329 396 OFFCURVE",
"301 388 OFFCURVE",
"285 365 CURVE SMOOTH",
"271 345 OFFCURVE",
"277 262 OFFCURVE",
"293 249 CURVE SMOOTH",
"306 237 OFFCURVE",
"356 232 OFFCURVE",
"405 237 CURVE",
"409 203 LINE",
"340 173 OFFCURVE",
"247 154 OFFCURVE",
"154 156 CURVE",
"185 142 LINE",
"191 345 OFFCURVE",
"281 565 OFFCURVE",
"350 565 CURVE SMOOTH",
"379 565 OFFCURVE",
"385 529 OFFCURVE",
"380 450 CURVE",
"458 420 OFFCURVE",
"541 448 OFFCURVE",
"542 522 CURVE SMOOTH",
"544 599 OFFCURVE",
"461 700 OFFCURVE",
"351 700 CURVE SMOOTH",
"145 700 OFFCURVE",
"30 408 OFFCURVE",
"23 210 CURVE SMOOTH",
"22 129 OFFCURVE",
"139 0 OFFCURVE",
"216 0 CURVE SMOOTH",
"264 0 OFFCURVE",
"321 25 OFFCURVE",
"364 52 CURVE",
"356 28 OFFCURVE",
"347 3 OFFCURVE",
"347 -8 CURVE SMOOTH",
"347 -38 OFFCURVE",
"411 -75 OFFCURVE",
"461 -75 CURVE SMOOTH"
);
}
);
width = 648;
},
{
associatedMasterId = "AF1B7CCB-9C31-456C-8386-1D362D80AEF6";
background = {
paths = (
{
closed = 1;
nodes = (
"551 598 OFFCURVE",
"470 700 OFFCURVE",
"357 700 CURVE SMOOTH",
"147 700 OFFCURVE",
"35 407 OFFCURVE",
"28 210 CURVE SMOOTH",
"27 142 OFFCURVE",
"139 20 OFFCURVE",
"201 20 CURVE SMOOTH",
"261 20 OFFCURVE",
"324 46 OFFCURVE",
"364 75 CURVE",
"347 -8 OFFCURVE",
"326 -169 OFFCURVE",
"282 -169 CURVE SMOOTH",
"255 -169 OFFCURVE",
"238 -118 OFFCURVE",
"220 -59 CURVE",
"147 -26 OFFCURVE",
"79 -78 OFFCURVE",
"78 -135 CURVE SMOOTH",
"78 -204 OFFCURVE",
"179 -280 OFFCURVE",
"269 -280 CURVE SMOOTH",
"335 -280 OFFCURVE",
"403 -256 OFFCURVE",
"438 -215 CURVE SMOOTH",
"472 -174 OFFCURVE",
"533 213 OFFCURVE",
"533 277 CURVE SMOOTH",
"533 312 OFFCURVE",
"445 363 OFFCURVE",
"406 363 CURVE SMOOTH",
"390 363 OFFCURVE",
"377 306 OFFCURVE",
"369 239 CURVE",
"316 206 OFFCURVE",
"266 182 OFFCURVE",
"193 171 CURVE",
"199 346 OFFCURVE",
"292 565 OFFCURVE",
"356 565 CURVE SMOOTH",
"382 565 OFFCURVE",
"390 523 OFFCURVE",
"385 450 CURVE",
"460 422 OFFCURVE",
"548 444 OFFCURVE",
"549 522 CURVE SMOOTH"
);
}
);
};
layerId = "6FDC454D-CFF7-413A-B78F-E0023CDDCC76";
name = "Bold Italic Aug 8 15, 18:56";
paths = (
{
closed = 1;
nodes = (
"338 -111 OFFCURVE",
"307 -192 OFFCURVE",
"267 -239 CURVE",
"236 -229 OFFCURVE",
"199 -211 OFFCURVE",
"198 -186 CURVE SMOOTH",
"196 -144 OFFCURVE",
"286 -73 OFFCURVE",
"356 -29 CURVE"
);
},
{
closed = 1;
nodes = (
"214 51 OFFCURVE",
"307 102 OFFCURVE",
"345 130 CURVE",
"365 100 LINE",
"210 6 OFFCURVE",
"56 -81 OFFCURVE",
"56 -190 CURVE SMOOTH",
"56 -250 OFFCURVE",
"174 -341 OFFCURVE",
"246 -341 CURVE SMOOTH",
"319 -340 OFFCURVE",
"405 -284 OFFCURVE",
"432 -239 CURVE SMOOTH",
"470 -176 OFFCURVE",
"533 204 OFFCURVE",
"533 277 CURVE SMOOTH",
"533 312 OFFCURVE",
"445 363 OFFCURVE",
"406 363 CURVE SMOOTH",
"390 363 OFFCURVE",
"377 306 OFFCURVE",
"369 239 CURVE",
"316 218 OFFCURVE",
"245 204 OFFCURVE",
"193 204 CURVE",
"203 363 OFFCURVE",
"294 565 OFFCURVE",
"356 565 CURVE SMOOTH",
"382 565 OFFCURVE",
"390 523 OFFCURVE",
"385 450 CURVE",
"460 422 OFFCURVE",
"548 444 OFFCURVE",
"549 522 CURVE SMOOTH",
"551 598 OFFCURVE",
"470 700 OFFCURVE",
"357 700 CURVE SMOOTH",
"166 700 OFFCURVE",
"35 441 OFFCURVE",
"28 243 CURVE SMOOTH",
"27 175 OFFCURVE",
"123 52 OFFCURVE",
"165 52 CURVE SMOOTH"
);
}
);
width = 593;
},
{
background = {
paths = (
{
closed = 1;
nodes = (
"544 599 OFFCURVE",
"461 700 OFFCURVE",
"351 700 CURVE SMOOTH",
"145 700 OFFCURVE",
"30 408 OFFCURVE",
"23 210 CURVE SMOOTH",
"22 141 OFFCURVE",
"136 20 OFFCURVE",
"195 20 CURVE SMOOTH",
"245 20 OFFCURVE",
"319 40 OFFCURVE",
"359 57 CURVE",
"338 -4 OFFCURVE",
"311 -165 OFFCURVE",
"263 -163 CURVE SMOOTH",
"237 -162 OFFCURVE",
"218 -104 OFFCURVE",
"203 -51 CURVE",
"135 -22 OFFCURVE",
"66 -60 OFFCURVE",
"62 -121 CURVE SMOOTH",
"59 -191 OFFCURVE",
"157 -270 OFFCURVE",
"245 -274 CURVE SMOOTH",
"310 -276 OFFCURVE",
"376 -256 OFFCURVE",
"414 -216 CURVE SMOOTH",
"448 -177 OFFCURVE",
"526 208 OFFCURVE",
"529 278 CURVE SMOOTH",
"530 305 OFFCURVE",
"449 361 OFFCURVE",
"417 363 CURVE SMOOTH",
"400 363 OFFCURVE",
"383 314 OFFCURVE",
"371 221 CURVE",
"313 195 OFFCURVE",
"253 181 OFFCURVE",
"185 171 CURVE",
"191 345 OFFCURVE",
"281 565 OFFCURVE",
"350 565 CURVE SMOOTH",
"379 565 OFFCURVE",
"385 529 OFFCURVE",
"380 450 CURVE",
"458 420 OFFCURVE",
"541 448 OFFCURVE",
"542 522 CURVE SMOOTH"
);
}
);
};
layerId = "AF1B7CCB-9C31-456C-8386-1D362D80AEF6";
name = "Bold Italic";
paths = (
{
closed = 1;
nodes = (
"544 599 OFFCURVE",
"461 700 OFFCURVE",
"351 700 CURVE SMOOTH",
"145 700 OFFCURVE",
"30 408 OFFCURVE",
"23 210 CURVE SMOOTH",
"22 148 OFFCURVE",
"124 20 OFFCURVE",
"184 20 CURVE SMOOTH",
"245 20 OFFCURVE",
"306 46 OFFCURVE",
"359 77 CURVE",
"345 -15 OFFCURVE",
"311 -165 OFFCURVE",
"263 -163 CURVE SMOOTH",
"237 -162 OFFCURVE",
"218 -104 OFFCURVE",
"203 -51 CURVE",
"135 -22 OFFCURVE",
"66 -60 OFFCURVE",
"62 -121 CURVE SMOOTH",
"59 -191 OFFCURVE",
"157 -270 OFFCURVE",
"245 -274 CURVE SMOOTH",
"310 -276 OFFCURVE",
"376 -256 OFFCURVE",
"414 -216 CURVE SMOOTH",
"448 -177 OFFCURVE",
"526 208 OFFCURVE",
"529 278 CURVE SMOOTH",
"530 305 OFFCURVE",
"449 361 OFFCURVE",
"417 363 CURVE SMOOTH",
"400 363 OFFCURVE",
"383 302 OFFCURVE",
"371 241 CURVE",
"322 209 OFFCURVE",
"253 181 OFFCURVE",
"185 171 CURVE",
"191 345 OFFCURVE",
"281 565 OFFCURVE",
"350 565 CURVE SMOOTH",
"379 565 OFFCURVE",
"385 529 OFFCURVE",
"380 450 CURVE",
"458 420 OFFCURVE",
"541 448 OFFCURVE",
"542 522 CURVE SMOOTH"
);
}
);
width = 586;
}
);
leftMetricsKey = C;
},
{
color = 3;
glyphname = R.ss03;
lastChange = "2015-08-24 17:23:58 +0000";
layers = (
{
background = {
paths = (
{
closed = 1;
nodes = (
"488 192 OFFCURVE",
"466 181 OFFCURVE",
"431 170 CURVE",
"385 193 OFFCURVE",
"353 228 OFFCURVE",
"319 269 CURVE",
"476 294 OFFCURVE",
"580 372 OFFCURVE",
"580 493 CURVE SMOOTH",
"580 642 OFFCURVE",
"414 705 OFFCURVE",
"247 705 CURVE SMOOTH",
"193 705 OFFCURVE",
"137 698 OFFCURVE",
"83 684 CURVE",
"54 629 OFFCURVE",
"63 580 OFFCURVE",
"97 547 CURVE",
"134 553 LINE",
"118 455 OFFCURVE",
"46 132 OFFCURVE",
"47 94 CURVE SMOOTH",
"47 62 OFFCURVE",
"133 0 OFFCURVE",
"180 0 CURVE SMOOTH",
"208 0 OFFCURVE",
"218 118 OFFCURVE",
"230 233 CURVE",
"267 125 OFFCURVE",
"358 0 OFFCURVE",
"443 0 CURVE SMOOTH",
"532 0 OFFCURVE",
"581 54 OFFCURVE",
"581 110 CURVE SMOOTH",
"581 147 OFFCURVE",
"561 184 OFFCURVE",
"519 210 CURVE"
);
},
{
closed = 1;
nodes = (
"429 428 OFFCURVE",
"351 378 OFFCURVE",
"249 368 CURVE",
"257 425 OFFCURVE",
"272 499 OFFCURVE",
"281 559 CURVE",
"374 573 OFFCURVE",
"429 537 OFFCURVE",
"429 491 CURVE SMOOTH"
);
}
);
};
layerId = "AF1B7CCB-9C31-456C-8386-1D362D80AEF6";
name = "Bold Italic";
paths = (
{
closed = 1;
nodes = (
"488 192 OFFCURVE",
"466 181 OFFCURVE",
"431 170 CURVE",
"385 193 OFFCURVE",
"353 228 OFFCURVE",
"319 269 CURVE",
"476 294 OFFCURVE",
"580 372 OFFCURVE",
"580 493 CURVE SMOOTH",
"580 642 OFFCURVE",
"414 705 OFFCURVE",
"247 705 CURVE SMOOTH",
"193 705 OFFCURVE",
"137 698 OFFCURVE",
"83 684 CURVE",
"54 629 OFFCURVE",
"63 580 OFFCURVE",
"97 547 CURVE",
"134 553 LINE",
"118 455 OFFCURVE",
"46 132 OFFCURVE",
"47 94 CURVE SMOOTH",
"47 62 OFFCURVE",
"133 0 OFFCURVE",
"180 0 CURVE SMOOTH",
"208 0 OFFCURVE",
"218 118 OFFCURVE",
"230 233 CURVE",
"267 125 OFFCURVE",
"358 0 OFFCURVE",
"443 0 CURVE SMOOTH",
"532 0 OFFCURVE",
"581 54 OFFCURVE",
"581 110 CURVE SMOOTH",
"581 147 OFFCURVE",
"561 184 OFFCURVE",
"519 210 CURVE"
);
},
{
closed = 1;
nodes = (
"429 428 OFFCURVE",
"351 378 OFFCURVE",
"249 368 CURVE",
"257 425 OFFCURVE",
"272 499 OFFCURVE",
"281 559 CURVE",
"374 573 OFFCURVE",
"429 537 OFFCURVE",
"429 491 CURVE SMOOTH"
);
}
);
width = 625;
},
{
associatedMasterId = "AF1B7CCB-9C31-456C-8386-1D362D80AEF6";
background = {
paths = (
{
closed = 1;
nodes = (
"496 300 OFFCURVE",
"580 385 OFFCURVE",
"580 493 CURVE SMOOTH",
"580 642 OFFCURVE",
"414 705 OFFCURVE",
"247 705 CURVE SMOOTH",
"193 705 OFFCURVE",
"137 698 OFFCURVE",
"83 684 CURVE",
"54 629 OFFCURVE",
"63 580 OFFCURVE",
"97 547 CURVE",
"134 553 LINE",
"118 455 OFFCURVE",
"46 132 OFFCURVE",
"47 94 CURVE SMOOTH",
"47 62 OFFCURVE",
"133 0 OFFCURVE",
"180 0 CURVE SMOOTH",
"210 0 OFFCURVE",
"218 128 OFFCURVE",
"229 224 CURVE",
"269 126 OFFCURVE",
"349 46 OFFCURVE",
"454 0 CURVE",
"552 18 OFFCURVE",
"569 85 OFFCURVE",
"547 153 CURVE",
"470 175 OFFCURVE",
"355 232 OFFCURVE",
"326 268 CURVE"
);
},
{
closed = 1;
nodes = (
"260 440 OFFCURVE",
"268 479 OFFCURVE",
"281 559 CURVE",
"374 573 OFFCURVE",
"429 537 OFFCURVE",
"429 491 CURVE SMOOTH",
"429 428 OFFCURVE",
"354 379 OFFCURVE",
"249 368 CURVE"
);
}
);
};
layerId = "D5DE1FAE-331E-4571-9C04-BCE9D7CB8215";
name = "Bold Italic Aug 14 15, 20:15";
paths = (
{
closed = 1;
nodes = (
"496 300 OFFCURVE",
"580 385 OFFCURVE",
"580 493 CURVE SMOOTH",
"580 642 OFFCURVE",
"414 705 OFFCURVE",
"247 705 CURVE SMOOTH",
"193 705 OFFCURVE",
"137 698 OFFCURVE",
"83 684 CURVE",
"54 629 OFFCURVE",
"63 580 OFFCURVE",
"97 547 CURVE",
"134 553 LINE",
"118 455 OFFCURVE",
"46 132 OFFCURVE",
"47 94 CURVE SMOOTH",
"47 62 OFFCURVE",
"133 0 OFFCURVE",
"180 0 CURVE SMOOTH",
"210 0 OFFCURVE",
"218 128 OFFCURVE",
"229 224 CURVE",
"272 126 OFFCURVE",
"350 46 OFFCURVE",
"451 0 CURVE",
"543 15 OFFCURVE",
"569 85 OFFCURVE",
"545 153 CURVE",
"462 176 OFFCURVE",
"383 211 OFFCURVE",
"326 268 CURVE"
);
},
{
closed = 1;
nodes = (
"260 440 OFFCURVE",
"268 479 OFFCURVE",
"281 559 CURVE",
"374 573 OFFCURVE",
"429 537 OFFCURVE",
"429 491 CURVE SMOOTH",
"429 428 OFFCURVE",
"354 379 OFFCURVE",
"249 368 CURVE"
);
}
);
width = 600;
}
);
leftMetricsKey = P;
},
{
glyphname = a;
lastChange = "2015-09-21 11:06:00 +0000";
layers = (
{
anchors = (
{
name = top;
position = "{384, 593}";
}
);
background = {
paths = (
{
closed = 1;
nodes = (
"527 171 OFFCURVE",
"505 159 OFFCURVE",
"455 140 CURVE",
"485 227 OFFCURVE",
"546 377 OFFCURVE",
"547 416 CURVE SMOOTH",
"547 442 OFFCURVE",
"473 511 OFFCURVE",
"420 511 CURVE SMOOTH",
"405 511 OFFCURVE",
"392 483 OFFCURVE",
"387 459 CURVE",
"376 493 OFFCURVE",
"329 537 OFFCURVE",
"290 537 CURVE SMOOTH",
"122 537 OFFCURVE",
"13 324 OFFCURVE",
"13 159 CURVE SMOOTH",
"13 99 OFFCURVE",
"94 0 OFFCURVE",
"158 0 CURVE SMOOTH",
"224 0 OFFCURVE",
"291 95 OFFCURVE",
"346 184 CURVE",
"369 170 LINE",
"351 138 OFFCURVE",
"331 105 OFFCURVE",
"331 87 CURVE SMOOTH",
"331 64 OFFCURVE",
"407 0 OFFCURVE",
"451 0 CURVE SMOOTH",
"501 0 OFFCURVE",
"636 44 OFFCURVE",
"637 92 CURVE SMOOTH",
"639 141 OFFCURVE",
"616 175 OFFCURVE",
"562 198 CURVE"
);
},
{
closed = 1;
nodes = (
"175 275 OFFCURVE",
"232 416 OFFCURVE",
"327 416 CURVE SMOOTH",
"342 416 OFFCURVE",
"358 412 OFFCURVE",
"375 405 CURVE",
"353 296 OFFCURVE",
"260 196 OFFCURVE",
"163 132 CURVE"
);
}
);
};
layerId = "AF1B7CCB-9C31-456C-8386-1D362D80AEF6";
name = "Bold Italic";
paths = (
{
closed = 1;
nodes = (
"184 289 OFFCURVE",
"244 437 OFFCURVE",
"343 437 CURVE SMOOTH",
"359 437 OFFCURVE",
"376 433 OFFCURVE",
"394 425 CURVE",
"363 301 OFFCURVE",
"273 202 OFFCURVE",
"171 139 CURVE"
);
},
{
closed = 1;
nodes = (
"509 238 OFFCURVE",
"573 396 OFFCURVE",
"574 437 CURVE SMOOTH",
"574 464 OFFCURVE",
"497 537 OFFCURVE",
"441 537 CURVE SMOOTH",
"425 537 OFFCURVE",
"412 507 OFFCURVE",
"406 482 CURVE",
"395 518 OFFCURVE",
"346 564 OFFCURVE",
"305 564 CURVE SMOOTH",
"128 564 OFFCURVE",
"14 340 OFFCURVE",
"14 167 CURVE SMOOTH",
"14 104 OFFCURVE",
"99 0 OFFCURVE",
"166 0 CURVE SMOOTH",
"235 0 OFFCURVE",
"306 100 OFFCURVE",
"363 193 CURVE",
"388 179 LINE",
"369 145 OFFCURVE",
"348 110 OFFCURVE",
"348 93 CURVE SMOOTH",
"347 66 OFFCURVE",
"425 0 OFFCURVE",
"473 0 CURVE SMOOTH",
"538 0 OFFCURVE",
"668 57 OFFCURVE",
"668 109 CURVE SMOOTH",
"668 153 OFFCURVE",
"641 190 OFFCURVE",
"581 211 CURVE",
"548 184 OFFCURVE",
"517 166 OFFCURVE",
"478 147 CURVE"
);
}
);
width = 700;
}
);
rightMetricsKey = u;
unicode = 0061;
},
{
glyphname = ae;
lastChange = "2015-09-17 17:49:16 +0000";
layers = (
{
background = {
paths = (
{
closed = 1;
nodes = (
"178 289 OFFCURVE",
"238 437 OFFCURVE",
"337 437 CURVE SMOOTH",
"353 437 OFFCURVE",
"370 433 OFFCURVE",
"388 425 CURVE",
"357 301 OFFCURVE",
"267 202 OFFCURVE",
"165 139 CURVE"
);
},
{
closed = 1;
nodes = (
"503 238 OFFCURVE",
"567 396 OFFCURVE",
"568 437 CURVE SMOOTH",
"568 464 OFFCURVE",
"491 537 OFFCURVE",
"435 537 CURVE SMOOTH",
"419 537 OFFCURVE",
"406 507 OFFCURVE",
"400 482 CURVE",
"389 518 OFFCURVE",
"340 564 OFFCURVE",
"299 564 CURVE SMOOTH",
"122 564 OFFCURVE",
"8 340 OFFCURVE",
"8 167 CURVE SMOOTH",
"8 104 OFFCURVE",
"93 0 OFFCURVE",
"160 0 CURVE SMOOTH",
"229 0 OFFCURVE",
"300 100 OFFCURVE",
"357 193 CURVE",
"382 179 LINE",
"363 145 OFFCURVE",
"342 110 OFFCURVE",
"342 93 CURVE SMOOTH",
"341 66 OFFCURVE",
"419 0 OFFCURVE",
"467 0 CURVE SMOOTH",
"532 0 OFFCURVE",
"662 57 OFFCURVE",
"662 109 CURVE SMOOTH",
"662 153 OFFCURVE",
"635 190 OFFCURVE",
"575 211 CURVE",
"542 184 OFFCURVE",
"511 166 OFFCURVE",
"472 147 CURVE"
);
},
{
closed = 1;
nodes = (
"646 0 OFFCURVE",
"780 57 OFFCURVE",
"780 121 CURVE SMOOTH",
"780 169 OFFCURVE",
"753 205 OFFCURVE",
"701 221 CURVE",
"629 172 OFFCURVE",
"565 139 OFFCURVE",
"495 132 CURVE",
"492 160 OFFCURVE",
"492 186 OFFCURVE",
"494 213 CURVE",
"673 239 OFFCURVE",
"793 327 OFFCURVE",
"793 410 CURVE SMOOTH",
"793 477 OFFCURVE",
"716 564 OFFCURVE",
"599 564 CURVE SMOOTH",
"435 564 OFFCURVE",
"331 334 OFFCURVE",
"331 196 CURVE SMOOTH",
"331 113 OFFCURVE",
"451 0 OFFCURVE",
"551 0 CURVE SMOOTH"
);
},
{
closed = 1;
nodes = (
"526 350 OFFCURVE",
"563 403 OFFCURVE",
"613 440 CURVE",
"640 433 OFFCURVE",
"652 419 OFFCURVE",
"652 402 CURVE SMOOTH",
"652 371 OFFCURVE",
"593 318 OFFCURVE",
"509 288 CURVE"
);
}
);
};
layerId = "AF1B7CCB-9C31-456C-8386-1D362D80AEF6";
name = "Bold Italic";
paths = (
{
closed = 1;
nodes = (
"644 182 OFFCURVE",
"572 139 OFFCURVE",
"495 132 CURVE",
"492 161 OFFCURVE",
"492 186 OFFCURVE",
"494 213 CURVE",
"674 240 OFFCURVE",
"793 327 OFFCURVE",
"793 410 CURVE SMOOTH",
"793 477 OFFCURVE",
"716 564 OFFCURVE",
"599 564 CURVE SMOOTH",
"534 564 OFFCURVE",
"481 528 OFFCURVE",
"440 482 CURVE",
"404 526 OFFCURVE",
"357 564 OFFCURVE",
"299 564 CURVE SMOOTH",
"122 564 OFFCURVE",
"8 340 OFFCURVE",
"8 167 CURVE SMOOTH",
"8 104 OFFCURVE",
"93 0 OFFCURVE",
"160 0 CURVE SMOOTH",
"221 0 OFFCURVE",
"301 71 OFFCURVE",
"353 154 CURVE",
"392 72 OFFCURVE",
"465 0 OFFCURVE",
"551 0 CURVE SMOOTH",
"646 0 OFFCURVE",
"780 57 OFFCURVE",
"780 121 CURVE SMOOTH",
"780 169 OFFCURVE",
"753 205 OFFCURVE",
"701 221 CURVE"
);
},
{
closed = 1;
nodes = (
"640 433 OFFCURVE",
"652 419 OFFCURVE",
"652 402 CURVE SMOOTH",
"652 373 OFFCURVE",
"599 321 OFFCURVE",
"509 288 CURVE",
"526 350 OFFCURVE",
"563 403 OFFCURVE",
"613 440 CURVE"
);
},
{
closed = 1;
nodes = (
"178 289 OFFCURVE",
"238 437 OFFCURVE",
"337 437 CURVE SMOOTH",
"353 437 OFFCURVE",
"370 433 OFFCURVE",
"388 425 CURVE",
"357 301 OFFCURVE",
"267 202 OFFCURVE",
"165 139 CURVE"
);
}
);
width = 834;
},
{
associatedMasterId = "AF1B7CCB-9C31-456C-8386-1D362D80AEF6";
layerId = UUID0;
name = Bold;
paths = (
{
closed = 1;
nodes = (
"323 -4 OFFCURVE",
"374 46 OFFCURVE",
"392 88 CURVE",
"432 21 OFFCURVE",
"518 -5 OFFCURVE",
"585 -5 CURVE SMOOTH",
"637 -5 OFFCURVE",
"701 6 OFFCURVE",
"737 29 CURVE",
"737 151 LINE",
"705 127 OFFCURVE",
"663 108 OFFCURVE",
"603 108 CURVE SMOOTH",
"535 108 OFFCURVE",
"482 139 OFFCURVE",
"461 196 CURVE",
"760 196 LINE",
"763 217 OFFCURVE",
"768 253 OFFCURVE",
"768 275 CURVE SMOOTH",
"768 437 OFFCURVE",
"679 512 OFFCURVE",
"548 512 CURVE SMOOTH",
"482 512 OFFCURVE",
"422 486 OFFCURVE",
"391 442 CURVE",
"370 486 OFFCURVE",
"315 516 OFFCURVE",
"242 516 CURVE SMOOTH",
"163 516 OFFCURVE",
"109 499 OFFCURVE",
"79 482 CURVE",
"79 351 LINE",
"117 376 OFFCURVE",
"172 397 OFFCURVE",
"231 397 CURVE SMOOTH",
"296 397 OFFCURVE",
"316 371 OFFCURVE",
"316 333 CURVE SMOOTH",
"316 298 LINE",
"252 298 LINE SMOOTH",
"108 298 OFFCURVE",
"40 238 OFFCURVE",
"40 144 CURVE SMOOTH",
"40 56 OFFCURVE",
"102 -4 OFFCURVE",
"218 -4 CURVE SMOOTH"
);
},
{
closed = 1;
nodes = (
"211 100 OFFCURVE",
"192 118 OFFCURVE",
"192 151 CURVE SMOOTH",
"192 184 OFFCURVE",
"219 208 OFFCURVE",
"269 208 CURVE SMOOTH",
"316 208 LINE",
"316 171 LINE",
"316 128 OFFCURVE",
"293 100 OFFCURVE",
"251 100 CURVE SMOOTH"
);
},
{
closed = 1;
nodes = (
"469 369 OFFCURVE",
"511 401 OFFCURVE",
"554 401 CURVE SMOOTH",
"610 401 OFFCURVE",
"628 361 OFFCURVE",
"632 311 CURVE",
"632 300 LINE",
"456 300 LINE"
);
}
);
width = 808;
}
);
leftMetricsKey = a;
rightMetricsKey = e;
unicode = 00E6;
},
{
glyphname = b;
lastChange = "2015-09-21 14:34:44 +0000";
layers = (
{
associatedMasterId = "AF1B7CCB-9C31-456C-8386-1D362D80AEF6";
background = {
paths = (
{
closed = 1;
nodes = (
"217 436 LINE",
"241 487 OFFCURVE",
"284 593 OFFCURVE",
"284 631 CURVE SMOOTH",
"284 665 OFFCURVE",
"203 738 OFFCURVE",
"146 738 CURVE SMOOTH",
"121 738 OFFCURVE",
"102 717 OFFCURVE",
"102 690 CURVE SMOOTH",
"102 632 OFFCURVE",
"83 457 OFFCURVE",
"63 370 CURVE SMOOTH",
"46 295 OFFCURVE",
"22 210 OFFCURVE",
"22 164 CURVE SMOOTH",
"22 106 OFFCURVE",
"108 0 OFFCURVE",
"185 0 CURVE SMOOTH",
"347 0 OFFCURVE",
"494 198 OFFCURVE",
"494 346 CURVE SMOOTH",
"494 445 OFFCURVE",
"423 496 OFFCURVE",
"317 501 CURVE",
"210 468 LINE"
);
},
{
closed = 1;
nodes = (
"132 120 OFFCURVE",
"180 375 OFFCURVE",
"227 399 CURVE SMOOTH",
"255 413 OFFCURVE",
"342 372 OFFCURVE",
"342 347 CURVE SMOOTH",
"342 271 OFFCURVE",
"259 120 OFFCURVE",
"187 120 CURVE SMOOTH"
);
}
);
};
layerId = "24251565-7769-4E4E-8D5D-CA25AB8DFF0C";
name = "Bold Italic Aug 4 15, 14:39";
paths = (
{
closed = 1;
nodes = (
"228 462 LINE",
"252 513 OFFCURVE",
"284 593 OFFCURVE",
"284 631 CURVE SMOOTH",
"284 665 OFFCURVE",
"203 738 OFFCURVE",
"146 738 CURVE SMOOTH",
"121 738 OFFCURVE",
"102 717 OFFCURVE",
"102 690 CURVE SMOOTH",
"102 632 OFFCURVE",
"83 457 OFFCURVE",
"63 370 CURVE SMOOTH",
"46 295 OFFCURVE",
"22 210 OFFCURVE",
"22 164 CURVE SMOOTH",
"22 106 OFFCURVE",
"108 0 OFFCURVE",
"185 0 CURVE SMOOTH",
"369 0 OFFCURVE",
"502 226 OFFCURVE",
"502 372 CURVE SMOOTH",
"502 459 OFFCURVE",
"446 519 OFFCURVE",
"354 537 CURVE",
"218 474 LINE"
);
},
{
closed = 1;
nodes = (
"132 120 OFFCURVE",
"188 401 OFFCURVE",
"235 425 CURVE SMOOTH",
"263 439 OFFCURVE",
"350 398 OFFCURVE",
"350 373 CURVE SMOOTH",
"350 294 OFFCURVE",
"269 120 OFFCURVE",
"187 120 CURVE SMOOTH"
);
}
);
width = 525;
},
{
associatedMasterId = "AF1B7CCB-9C31-456C-8386-1D362D80AEF6";
background = {
paths = (
{
closed = 1;
nodes = (
"228 462 LINE",
"252 513 OFFCURVE",
"284 593 OFFCURVE",
"284 631 CURVE SMOOTH",
"284 665 OFFCURVE",
"203 738 OFFCURVE",
"146 738 CURVE SMOOTH",
"121 738 OFFCURVE",
"102 717 OFFCURVE",
"102 690 CURVE SMOOTH",
"102 632 OFFCURVE",
"83 457 OFFCURVE",
"63 370 CURVE SMOOTH",
"46 295 OFFCURVE",
"22 210 OFFCURVE",
"22 164 CURVE SMOOTH",
"22 106 OFFCURVE",
"108 0 OFFCURVE",
"185 0 CURVE SMOOTH",
"369 0 OFFCURVE",
"502 226 OFFCURVE",
"502 372 CURVE SMOOTH",
"502 459 OFFCURVE",
"446 519 OFFCURVE",
"354 537 CURVE",
"218 474 LINE"
);
},
{
closed = 1;
nodes = (
"132 120 OFFCURVE",
"188 401 OFFCURVE",
"235 425 CURVE SMOOTH",
"263 439 OFFCURVE",
"350 398 OFFCURVE",
"350 373 CURVE SMOOTH",
"350 294 OFFCURVE",
"269 120 OFFCURVE",
"187 120 CURVE SMOOTH"
);
}
);
};
layerId = "4A0E8CD1-B310-4B4E-A494-123E4C998E73";
name = "Bold Italic Aug 11 15, 23:39";
paths = (
{
closed = 1;
nodes = (
"132 120 OFFCURVE",
"188 390 OFFCURVE",
"235 414 CURVE SMOOTH",
"263 428 OFFCURVE",
"353 386 OFFCURVE",
"353 361 CURVE SMOOTH",
"353 282 OFFCURVE",
"269 120 OFFCURVE",
"187 120 CURVE SMOOTH"
);
},
{
closed = 1;
nodes = (
"24 98 OFFCURVE",
"128 0 OFFCURVE",
"185 0 CURVE SMOOTH",
"369 0 OFFCURVE",
"505 214 OFFCURVE",
"505 360 CURVE SMOOTH",
"505 447 OFFCURVE",
"446 508 OFFCURVE",
"354 526 CURVE",
"218 463 LINE",
"228 443 LINE",
"234 461 OFFCURVE",
"240 477 OFFCURVE",
"245 490 CURVE SMOOTH",
"262 532 OFFCURVE",
"324 597 OFFCURVE",
"324 632 CURVE SMOOTH",
"324 668 OFFCURVE",
"216 738 OFFCURVE",
"183 738 CURVE SMOOTH",
"134 738 OFFCURVE",
"100 521 OFFCURVE",
"80 414 CURVE SMOOTH",
"58 297 OFFCURVE",
"24 211 OFFCURVE",
"24 153 CURVE SMOOTH"
);
}
);
width = 530;
},
{
background = {
paths = (
{
closed = 1;
nodes = (
"223 436 LINE",
"247 497 OFFCURVE",
"277 582 OFFCURVE",
"277 629 CURVE SMOOTH",
"277 665 OFFCURVE",
"188 738 OFFCURVE",
"134 738 CURVE SMOOTH",
"109 738 OFFCURVE",
"90 717 OFFCURVE",
"90 690 CURVE SMOOTH",
"90 632 OFFCURVE",
"71 457 OFFCURVE",
"48 370 CURVE SMOOTH",
"28 295 OFFCURVE",
"10 210 OFFCURVE",
"10 164 CURVE SMOOTH",
"10 112 OFFCURVE",
"100 0 OFFCURVE",
"191 0 CURVE SMOOTH",
"350 0 OFFCURVE",
"493 202 OFFCURVE",
"493 357 CURVE SMOOTH",
"493 447 OFFCURVE",
"410 503 OFFCURVE",
"307 503 CURVE",
"216 468 LINE"
);
},
{
closed = 1;
nodes = (
"133 120 OFFCURVE",
"172 370 OFFCURVE",
"218 396 CURVE SMOOTH",
"245 411 OFFCURVE",
"335 375 OFFCURVE",
"335 350 CURVE SMOOTH",
"335 268 OFFCURVE",
"258 120 OFFCURVE",
"188 120 CURVE SMOOTH"
);
}
);
};
layerId = "AF1B7CCB-9C31-456C-8386-1D362D80AEF6";
name = "Bold Italic";
paths = (
{
closed = 1;
nodes = (
"236 469 LINE",
"257 522 OFFCURVE",
"291 611 OFFCURVE",
"292 660 CURVE SMOOTH",
"293 698 OFFCURVE",
"208 775 OFFCURVE",
"151 775 CURVE SMOOTH",
"125 775 OFFCURVE",
"105 753 OFFCURVE",
"104 725 CURVE SMOOTH",
"103 664 OFFCURVE",
"79 480 OFFCURVE",
"52 389 CURVE SMOOTH",
"29 310 OFFCURVE",
"9 221 OFFCURVE",
"8 172 CURVE SMOOTH",
"6 118 OFFCURVE",
"99 0 OFFCURVE",
"194 0 CURVE SMOOTH",
"374 0 OFFCURVE",
"520 227 OFFCURVE",
"520 375 CURVE SMOOTH",
"520 464 OFFCURVE",
"436 528 OFFCURVE",
"326 530 CURVE",
"231 491 LINE"
);
},
{
closed = 1;
nodes = (
"136 126 OFFCURVE",
"183 389 OFFCURVE",
"232 416 CURVE SMOOTH",
"260 432 OFFCURVE",
"354 394 OFFCURVE",
"354 368 CURVE SMOOTH",
"354 285 OFFCURVE",
"270 126 OFFCURVE",
"194 126 CURVE SMOOTH"
);
}
);
width = 537;
}
);
unicode = 0062;
},
{
glyphname = c;
lastChange = "2015-09-21 14:34:33 +0000";
layers = (
{
anchors = (
{
name = top;
position = "{342, 593}";
}
);
background = {
paths = (
{
closed = 1;
nodes = (
"162 223 OFFCURVE",
"188 358 OFFCURVE",
"290 415 CURVE",
"310 395 OFFCURVE",
"328 372 OFFCURVE",
"336 341 CURVE",
"410 317 OFFCURVE",
"469 355 OFFCURVE",
"467 410 CURVE SMOOTH",
"466 466 OFFCURVE",
"380 537 OFFCURVE",
"267 537 CURVE SMOOTH",
"111 537 OFFCURVE",
"12 318 OFFCURVE",
"12 187 CURVE SMOOTH",
"12 108 OFFCURVE",
"126 0 OFFCURVE",
"222 0 CURVE SMOOTH",
"315 0 OFFCURVE",
"439 54 OFFCURVE",
"437 117 CURVE SMOOTH",
"436 172 OFFCURVE",
"394 207 OFFCURVE",
"334 218 CURVE",
"286 163 OFFCURVE",
"231 129 OFFCURVE",
"168 126 CURVE"
);
}
);
};
layerId = "AF1B7CCB-9C31-456C-8386-1D362D80AEF6";
name = "Bold Italic";
paths = (
{
closed = 1;
nodes = (
"166 236 OFFCURVE",
"203 376 OFFCURVE",
"309 445 CURVE",
"332 426 OFFCURVE",
"351 391 OFFCURVE",
"364 359 CURVE",
"443 344 OFFCURVE",
"491 391 OFFCURVE",
"491 436 CURVE SMOOTH",
"491 502 OFFCURVE",
"399 564 OFFCURVE",
"297 564 CURVE SMOOTH",
"126 564 OFFCURVE",
"13 349 OFFCURVE",
"13 196 CURVE SMOOTH",
"13 113 OFFCURVE",
"133 0 OFFCURVE",
"233 0 CURVE SMOOTH",
"331 0 OFFCURVE",
"461 57 OFFCURVE",
"459 123 CURVE SMOOTH",
"458 181 OFFCURVE",
"414 217 OFFCURVE",
"351 229 CURVE",
"301 171 OFFCURVE",
"243 135 OFFCURVE",
"177 132 CURVE"
);
}
);
width = 519;
},
{
associatedMasterId = "AF1B7CCB-9C31-456C-8386-1D362D80AEF6";
background = {
paths = (
{
closed = 1;
nodes = (
"145 125 OFFCURVE",
"167 358 OFFCURVE",
"297 415 CURVE",
"316 395 OFFCURVE",
"334 372 OFFCURVE",
"341 341 CURVE",
"414 317 OFFCURVE",
"474 355 OFFCURVE",
"474 410 CURVE SMOOTH",
"474 466 OFFCURVE",
"390 537 OFFCURVE",
"277 537 CURVE SMOOTH",
"111 537 OFFCURVE",
"8 304 OFFCURVE",
"8 187 CURVE SMOOTH",
"8 105 OFFCURVE",
"130 0 OFFCURVE",
"213 0 CURVE SMOOTH",
"306 0 OFFCURVE",
"431 54 OFFCURVE",
"431 117 CURVE SMOOTH",
"431 172 OFFCURVE",
"390 207 OFFCURVE",
"331 218 CURVE",
"281 163 OFFCURVE",
"225 125 OFFCURVE",
"182 125 CURVE SMOOTH"
);
}
);
};
layerId = "2B4D29C4-F824-467E-B199-CB74C1A12E33";
name = "Bold Italic Aug 4 15, 13:46";
paths = (
{
closed = 1;
nodes = (
"168 223 OFFCURVE",
"194 358 OFFCURVE",
"296 415 CURVE",
"316 395 OFFCURVE",
"334 372 OFFCURVE",
"342 341 CURVE",
"416 317 OFFCURVE",
"475 355 OFFCURVE",
"473 410 CURVE SMOOTH",
"472 466 OFFCURVE",
"386 537 OFFCURVE",
"273 537 CURVE SMOOTH",
"117 537 OFFCURVE",
"18 318 OFFCURVE",
"18 187 CURVE SMOOTH",
"18 108 OFFCURVE",
"132 0 OFFCURVE",
"228 0 CURVE SMOOTH",
"321 0 OFFCURVE",
"445 54 OFFCURVE",
"443 117 CURVE SMOOTH",
"442 172 OFFCURVE",
"400 207 OFFCURVE",
"340 218 CURVE",
"292 163 OFFCURVE",
"237 129 OFFCURVE",
"174 126 CURVE"
);
}
);
width = 494;
}
);
leftMetricsKey = o;
unicode = 0063;
},
{
glyphname = d;
lastChange = "2015-09-21 11:11:53 +0000";
layers = (
{
background = {
paths = (
{
closed = 1;
nodes = (
"317 258 OFFCURVE",
"233 185 OFFCURVE",
"163 132 CURVE",
"175 275 OFFCURVE",
"232 416 OFFCURVE",
"327 416 CURVE SMOOTH",
"352 416 OFFCURVE",
"380 406 OFFCURVE",
"412 384 CURVE",
"442 416 LINE",
"408 478 OFFCURVE",
"342 537 OFFCURVE",
"279 537 CURVE SMOOTH",
"137 537 OFFCURVE",
"13 337 OFFCURVE",
"13 159 CURVE SMOOTH",
"13 99 OFFCURVE",
"101 0 OFFCURVE",
"164 0 CURVE SMOOTH",
"224 0 OFFCURVE",
"291 95 OFFCURVE",
"346 184 CURVE",
"369 170 LINE",
"351 138 OFFCURVE",
"331 105 OFFCURVE",
"331 87 CURVE SMOOTH",
"331 64 OFFCURVE",
"407 0 OFFCURVE",
"451 0 CURVE SMOOTH",
"501 0 OFFCURVE",
"636 44 OFFCURVE",
"637 92 CURVE SMOOTH",
"639 141 OFFCURVE",
"616 175 OFFCURVE",
"562 198 CURVE",
"527 171 OFFCURVE",
"505 159 OFFCURVE",
"455 140 CURVE",
"464 192 OFFCURVE",
"481 272 OFFCURVE",
"494 327 CURVE SMOOTH",
"517 425 OFFCURVE",
"581 574 OFFCURVE",
"581 631 CURVE SMOOTH",
"581 665 OFFCURVE",
"500 738 OFFCURVE",
"443 738 CURVE SMOOTH",
"418 738 OFFCURVE",
"399 717 OFFCURVE",
"399 690 CURVE SMOOTH",
"399 632 OFFCURVE",
"397 458 OFFCURVE",
"370 366 CURVE"
);
}
);
};
layerId = "AF1B7CCB-9C31-456C-8386-1D362D80AEF6";
name = "Bold Italic";
paths = (
{
closed = 1;
nodes = (
"388 179 LINE",
"369 145 OFFCURVE",
"348 110 OFFCURVE",
"348 93 CURVE SMOOTH",
"347 66 OFFCURVE",
"425 0 OFFCURVE",
"473 0 CURVE SMOOTH",
"538 0 OFFCURVE",
"668 57 OFFCURVE",
"668 109 CURVE SMOOTH",
"668 153 OFFCURVE",
"641 190 OFFCURVE",
"581 211 CURVE",
"548 184 OFFCURVE",
"517 166 OFFCURVE",
"478 147 CURVE",
"487 202 OFFCURVE",
"505 286 OFFCURVE",
"519 343 CURVE SMOOTH",
"543 446 OFFCURVE",
"610 603 OFFCURVE",
"610 663 CURVE SMOOTH",
"610 698 OFFCURVE",
"525 775 OFFCURVE",
"465 775 CURVE SMOOTH",
"439 775 OFFCURVE",
"419 753 OFFCURVE",
"419 725 CURVE SMOOTH",
"419 664 OFFCURVE",
"417 481 OFFCURVE",
"389 384 CURVE",
"333 271 OFFCURVE",
"245 194 OFFCURVE",
"171 139 CURVE",
"184 289 OFFCURVE",
"244 437 OFFCURVE",
"343 437 CURVE SMOOTH",
"370 437 OFFCURVE",
"399 426 OFFCURVE",
"433 403 CURVE",
"464 437 LINE",
"429 502 OFFCURVE",
"359 564 OFFCURVE",
"293 564 CURVE SMOOTH",
"144 564 OFFCURVE",
"14 354 OFFCURVE",
"14 167 CURVE SMOOTH",
"14 104 OFFCURVE",
"106 0 OFFCURVE",
"172 0 CURVE SMOOTH",
"235 0 OFFCURVE",
"306 100 OFFCURVE",
"363 193 CURVE"
);
}
);
width = 700;
}
);
leftMetricsKey = a;
rightMetricsKey = u;
unicode = 0064;
},
{
glyphname = dcaron;
lastChange = "2015-09-19 13:10:39 +0000";
layers = (
{
components = (
{
name = d;
}
);
layerId = "AF1B7CCB-9C31-456C-8386-1D362D80AEF6";
name = "Bold Italic";
paths = (
{
closed = 1;
nodes = (
"804 645 OFFCURVE",
"840 699 OFFCURVE",
"876 797 CURVE",
"855 860 OFFCURVE",
"771 884 OFFCURVE",
"701 832 CURVE",
"712 711 LINE",
"660 623 LINE",
"669 592 OFFCURVE",
"696 579 OFFCURVE",
"732 581 CURVE"
);
}
);
width = 802;
}
);
leftMetricsKey = d;
unicode = 010F;
},
{
glyphname = e;
lastChange = "2015-09-21 14:37:47 +0000";
layers = (
{
anchors = (
{
name = top;
position = "{310, 593}";
}
);
background = {
paths = (
{
closed = 1;
nodes = (
"151 199 LINE",
"330 222 OFFCURVE",
"452 308 OFFCURVE",
"452 390 CURVE SMOOTH",
"452 455 OFFCURVE",
"380 537 OFFCURVE",
"267 537 CURVE SMOOTH",
"111 537 OFFCURVE",
"12 318 OFFCURVE",
"12 187 CURVE SMOOTH",
"12 108 OFFCURVE",
"126 0 OFFCURVE",
"222 0 CURVE SMOOTH",
"312 0 OFFCURVE",
"440 54 OFFCURVE",
"440 115 CURVE SMOOTH",
"440 161 OFFCURVE",
"414 195 OFFCURVE",
"364 210 CURVE",
"296 164 OFFCURVE",
"235 132 OFFCURVE",
"168 126 CURVE",
"158 248 OFFCURVE",
"201 360 OFFCURVE",
"290 415 CURVE",
"306 407 OFFCURVE",
"306 394 OFFCURVE",
"306 381 CURVE SMOOTH",
"306 346 OFFCURVE",
"247 288 OFFCURVE",
"145 261 CURVE"
);
}
);
};
layerId = "AF1B7CCB-9C31-456C-8386-1D362D80AEF6";
name = "Bold Italic";
paths = (
{
closed = 1;
nodes = (
"328 0 OFFCURVE",
"462 57 OFFCURVE",
"462 121 CURVE SMOOTH",
"462 169 OFFCURVE",
"435 205 OFFCURVE",
"383 221 CURVE",
"311 172 OFFCURVE",
"247 139 OFFCURVE",
"177 132 CURVE",
"174 160 OFFCURVE",
"174 186 OFFCURVE",
"176 213 CURVE",
"355 239 OFFCURVE",
"475 327 OFFCURVE",
"475 410 CURVE SMOOTH",
"475 477 OFFCURVE",
"398 564 OFFCURVE",
"281 564 CURVE SMOOTH",
"117 564 OFFCURVE",
"13 334 OFFCURVE",
"13 196 CURVE SMOOTH",
"13 113 OFFCURVE",
"133 0 OFFCURVE",
"233 0 CURVE SMOOTH"
);
},
{
closed = 1;
nodes = (
"208 350 OFFCURVE",
"245 403 OFFCURVE",
"295 440 CURVE",
"322 433 OFFCURVE",
"334 419 OFFCURVE",
"334 402 CURVE SMOOTH",
"334 371 OFFCURVE",
"275 318 OFFCURVE",
"191 288 CURVE"
);
}
);
width = 519;
},
{
associatedMasterId = "AF1B7CCB-9C31-456C-8386-1D362D80AEF6";
background = {
paths = (
{
closed = 1;
nodes = (
"175 223 OFFCURVE",
"201 358 OFFCURVE",
"303 415 CURVE",
"323 395 OFFCURVE",
"341 372 OFFCURVE",
"349 341 CURVE",
"423 317 OFFCURVE",
"482 355 OFFCURVE",
"480 410 CURVE SMOOTH",
"479 466 OFFCURVE",
"393 537 OFFCURVE",
"280 537 CURVE SMOOTH",
"124 537 OFFCURVE",
"25 318 OFFCURVE",
"25 187 CURVE SMOOTH",
"25 108 OFFCURVE",
"139 0 OFFCURVE",
"235 0 CURVE SMOOTH",
"328 0 OFFCURVE",
"452 54 OFFCURVE",
"450 117 CURVE SMOOTH",
"449 172 OFFCURVE",
"407 207 OFFCURVE",
"347 218 CURVE",
"299 163 OFFCURVE",
"244 129 OFFCURVE",
"181 126 CURVE"
);
}
);
};
components = (
{
name = o.alt;
}
);
layerId = "E2877D9A-1F86-44E4-ABDB-975C1FAF2422";
name = "Bold Italic Aug 1 15, 19:07";
width = 507;
}
);
leftMetricsKey = c;
unicode = 0065;
},
{
glyphname = f;
lastChange = "2015-09-21 14:33:47 +0000";
layers = (
{
background = {
paths = (
{
closed = 1;
nodes = (
"230 0 OFFCURVE",
"239 186 OFFCURVE",
"252 321 CURVE",
"309 326 OFFCURVE",
"362 329 OFFCURVE",
"414 333 CURVE",
"448 378 OFFCURVE",
"442 434 OFFCURVE",
"398 467 CURVE",
"350 456 OFFCURVE",
"307 447 OFFCURVE",
"265 441 CURVE",
"265 534 OFFCURVE",
"280 594 OFFCURVE",
"295 655 CURVE",
"323 632 OFFCURVE",
"340 599 OFFCURVE",
"349 548 CURVE",
"428 529 OFFCURVE",
"484 566 OFFCURVE",
"484 627 CURVE SMOOTH",
"484 697 OFFCURVE",
"398 775 OFFCURVE",
"288 775 CURVE SMOOTH",
"225 775 OFFCURVE",
"147 722 OFFCURVE",
"136 686 CURVE SMOOTH",
"123 634 OFFCURVE",
"136 523 OFFCURVE",
"149 431 CURVE",
"109 430 OFFCURVE",
"76 428 OFFCURVE",
"41 429 CURVE",
"-2 392 OFFCURVE",
"5 320 OFFCURVE",
"51 297 CURVE",
"70 300 OFFCURVE",
"95 304 OFFCURVE",
"125 309 CURVE",
"100 234 OFFCURVE",
"54 126 OFFCURVE",
"54 88 CURVE SMOOTH",
"54 55 OFFCURVE",
"138 0 OFFCURVE",
"194 0 CURVE SMOOTH"
);
}
);
};
layerId = "AF1B7CCB-9C31-456C-8386-1D362D80AEF6";
name = "Bold Italic";
paths = (
{
closed = 1;
nodes = (
"223 0 OFFCURVE",
"235 186 OFFCURVE",
"251 321 CURVE",
"308 326 OFFCURVE",
"361 329 OFFCURVE",
"413 333 CURVE",
"448 378 OFFCURVE",
"443 434 OFFCURVE",
"399 467 CURVE",
"351 456 OFFCURVE",
"308 447 OFFCURVE",
"266 441 CURVE",
"268 534 OFFCURVE",
"284 594 OFFCURVE",
"300 655 CURVE",
"327 632 OFFCURVE",
"344 599 OFFCURVE",
"352 548 CURVE",
"430 529 OFFCURVE",
"487 566 OFFCURVE",
"488 627 CURVE SMOOTH",
"489 697 OFFCURVE",
"405 775 OFFCURVE",
"295 775 CURVE SMOOTH",
"232 775 OFFCURVE",
"153 722 OFFCURVE",
"141 686 CURVE SMOOTH",
"127 634 OFFCURVE",
"138 523 OFFCURVE",
"150 431 CURVE",
"110 430 OFFCURVE",
"77 428 OFFCURVE",
"42 429 CURVE",
"-2 392 OFFCURVE",
"4 320 OFFCURVE",
"49 297 CURVE",
"68 300 OFFCURVE",
"94 304 OFFCURVE",
"124 309 CURVE",
"97 234 OFFCURVE",
"49 126 OFFCURVE",
"49 88 CURVE SMOOTH",
"48 55 OFFCURVE",
"131 0 OFFCURVE",
"187 0 CURVE SMOOTH"
);
}
);
width = 464;
},
{
associatedMasterId = "AF1B7CCB-9C31-456C-8386-1D362D80AEF6";
background = {
paths = (
{
closed = 1;
nodes = (
"239 441 OFFCURVE",
"303 574 OFFCURVE",
"303 631 CURVE SMOOTH",
"303 665 OFFCURVE",
"222 738 OFFCURVE",
"165 738 CURVE SMOOTH",
"140 738 OFFCURVE",
"121 717 OFFCURVE",
"121 690 CURVE SMOOTH",
"121 632 OFFCURVE",
"119 458 OFFCURVE",
"96 370 CURVE SMOOTH",
"65 255 OFFCURVE",
"9 147 OFFCURVE",
"9 93 CURVE SMOOTH",
"9 61 OFFCURVE",
"91 0 OFFCURVE",
"141 0 CURVE SMOOTH",
"171 0 OFFCURVE",
"176 119 OFFCURVE",
"215 318 CURVE SMOOTH"
);
},
{
closed = 1;
nodes = (
"132 292 OFFCURVE",
"234 295 OFFCURVE",
"346 300 CURVE",
"379 343 OFFCURVE",
"373 396 OFFCURVE",
"331 428 CURVE",
"204 403 OFFCURVE",
"143 401 OFFCURVE",
"7 409 CURVE",
"-34 373 OFFCURVE",
"-27 305 OFFCURVE",
"17 283 CURVE"
);
},
{
closed = 0;
nodes = (
"186 326 LINE",
"180 423 OFFCURVE",
"206 558 OFFCURVE",
"308 615 CURVE",
"328 595 OFFCURVE",
"346 572 OFFCURVE",
"354 541 CURVE",
"428 517 OFFCURVE",
"487 555 OFFCURVE",
"485 610 CURVE SMOOTH",
"484 666 OFFCURVE",
"398 737 OFFCURVE",
"285 737 CURVE SMOOTH",
"129 737 OFFCURVE",
"30 518 OFFCURVE",
"30 387 CURVE SMOOTH"
);
}
);
};
layerId = "0804A6C1-86BA-4921-8D28-FEC66EB55315";
name = "Bold Italic Aug 4 15, 15:09";
paths = (
{
closed = 1;
nodes = (
"112 593 OFFCURVE",
"119 458 OFFCURVE",
"96 370 CURVE SMOOTH",
"65 255 OFFCURVE",
"9 147 OFFCURVE",
"9 93 CURVE SMOOTH",
"9 61 OFFCURVE",
"91 0 OFFCURVE",
"141 0 CURVE SMOOTH",
"171 0 OFFCURVE",
"176 119 OFFCURVE",
"215 318 CURVE SMOOTH",
"239 441 OFFCURVE",
"258 627 OFFCURVE",
"296 627 CURVE SMOOTH",
"319 627 OFFCURVE",
"346 581 OFFCURVE",
"354 541 CURVE",
"428 517 OFFCURVE",
"487 555 OFFCURVE",
"485 610 CURVE SMOOTH",
"484 666 OFFCURVE",
"398 737 OFFCURVE",
"285 737 CURVE SMOOTH",
"228 737 OFFCURVE",
"147 693 OFFCURVE",
"132 649 CURVE SMOOTH"
);
},
{
closed = 1;
nodes = (
"132 292 OFFCURVE",
"234 295 OFFCURVE",
"346 300 CURVE",
"379 343 OFFCURVE",
"373 396 OFFCURVE",
"331 428 CURVE",
"204 403 OFFCURVE",
"143 401 OFFCURVE",
"7 409 CURVE",
"-34 373 OFFCURVE",
"-27 305 OFFCURVE",
"17 283 CURVE"
);
}
);
width = 384;
},
{
associatedMasterId = "AF1B7CCB-9C31-456C-8386-1D362D80AEF6";
background = {
paths = (
{
closed = 1;
nodes = (
"239 -170 OFFCURVE",
"363 28 OFFCURVE",
"363 152 CURVE SMOOTH",
"363 227 OFFCURVE",
"271 273 OFFCURVE",
"158 300 CURVE",
"145 246 LINE",
"170 224 OFFCURVE",
"217 188 OFFCURVE",
"217 151 CURVE SMOOTH",
"217 86 OFFCURVE",
"176 -2 OFFCURVE",
"128 -45 CURVE",
"129 86 OFFCURVE",
"194 381 OFFCURVE",
"225 484 CURVE SMOOTH",
"241 535 OFFCURVE",
"306 597 OFFCURVE",
"306 632 CURVE SMOOTH",
"306 668 OFFCURVE",
"210 738 OFFCURVE",
"177 738 CURVE SMOOTH",
"128 738 OFFCURVE",
"100 509 OFFCURVE",
"80 402 CURVE SMOOTH",
"54 260 OFFCURVE",
"-9 -20 OFFCURVE",
"-9 -76 CURVE SMOOTH",
"-9 -115 OFFCURVE",
"87 -170 OFFCURVE",
"134 -170 CURVE SMOOTH"
);
},
{
closed = 1;
nodes = (
"242 289 OFFCURVE",
"306 297 OFFCURVE",
"375 306 CURVE",
"404 352 OFFCURVE",
"393 404 OFFCURVE",
"349 433 CURVE",
"276 411 OFFCURVE",
"226 400 OFFCURVE",
"169 393 CURVE",
"177 280 LINE"
);
}
);
};
layerId = "41E7C882-ADC3-4916-9EE7-2DA9B5810278";
name = "Bold Italic Aug 4 15, 16:23";
paths = (
{
closed = 1;
nodes = (
"237 -170 OFFCURVE",
"363 34 OFFCURVE",
"363 136 CURVE SMOOTH",
"363 197 OFFCURVE",
"306 256 OFFCURVE",
"212 293 CURVE",
"375 294 LINE",
"416 334 OFFCURVE",
"414 402 OFFCURVE",
"363 435 CURVE",
"302 417 OFFCURVE",
"257 405 OFFCURVE",
"202 398 CURVE",
"211 433 OFFCURVE",
"219 463 OFFCURVE",
"225 484 CURVE SMOOTH",
"241 535 OFFCURVE",
"306 597 OFFCURVE",
"306 632 CURVE SMOOTH",
"306 668 OFFCURVE",
"210 738 OFFCURVE",
"177 738 CURVE SMOOTH",
"128 738 OFFCURVE",
"100 509 OFFCURVE",
"80 402 CURVE SMOOTH",
"54 260 OFFCURVE",
"-9 -20 OFFCURVE",
"-9 -76 CURVE SMOOTH",
"-9 -115 OFFCURVE",
"87 -170 OFFCURVE",
"134 -170 CURVE SMOOTH"
);
},
{
closed = 1;
nodes = (
"131 41 OFFCURVE",
"148 136 OFFCURVE",
"168 239 CURVE",
"197 210 OFFCURVE",
"219 176 OFFCURVE",
"219 141 CURVE SMOOTH",
"219 78 OFFCURVE",
"180 3 OFFCURVE",
"120 -51 CURVE"
);
}
);
width = 422;
},
{
associatedMasterId = "AF1B7CCB-9C31-456C-8386-1D362D80AEF6";
background = {
paths = (
{
closed = 1;
nodes = (
"110 594 OFFCURVE",
"141 459 OFFCURVE",
"124 371 CURVE SMOOTH",
"100 256 OFFCURVE",
"39 148 OFFCURVE",
"43 94 CURVE SMOOTH",
"44 62 OFFCURVE",
"129 1 OFFCURVE",
"179 1 CURVE SMOOTH",
"218 1 OFFCURVE",
"229 226 OFFCURVE",
"247 354 CURVE SMOOTH",
"261 451 OFFCURVE",
"265 624 OFFCURVE",
"294 624 CURVE SMOOTH",
"321 624 OFFCURVE",
"330 566 OFFCURVE",
"330 525 CURVE",
"394 485 OFFCURVE",
"474 521 OFFCURVE",
"474 584 CURVE SMOOTH",
"474 649 OFFCURVE",
"405 738 OFFCURVE",
"275 738 CURVE SMOOTH",
"219 738 OFFCURVE",
"139 694 OFFCURVE",
"127 650 CURVE SMOOTH"
);
},
{
closed = 1;
nodes = (
"162 302 OFFCURVE",
"280 309 OFFCURVE",
"392 317 CURVE",
"425 360 OFFCURVE",
"419 413 OFFCURVE",
"377 445 CURVE",
"250 413 OFFCURVE",
"173 409 OFFCURVE",
"37 409 CURVE",
"-4 373 OFFCURVE",
"3 305 OFFCURVE",
"47 283 CURVE"
);
}
);
};
layerId = "37FDCCBF-A37B-4DCA-A694-4EDDBAD37476";
name = "Bold Italic Aug 25 15, 21:11";
paths = (
{
closed = 1;
nodes = (
"228 0 OFFCURVE",
"237 186 OFFCURVE",
"250 321 CURVE",
"307 326 OFFCURVE",
"360 329 OFFCURVE",
"412 333 CURVE",
"446 378 OFFCURVE",
"440 434 OFFCURVE",
"396 467 CURVE",
"348 456 OFFCURVE",
"307 447 OFFCURVE",
"265 441 CURVE",
"265 534 OFFCURVE",
"280 594 OFFCURVE",
"295 655 CURVE",
"323 632 OFFCURVE",
"338 599 OFFCURVE",
"347 548 CURVE",
"426 529 OFFCURVE",
"482 566 OFFCURVE",
"482 627 CURVE SMOOTH",
"482 697 OFFCURVE",
"396 775 OFFCURVE",
"286 775 CURVE SMOOTH",
"223 775 OFFCURVE",
"142 719 OFFCURVE",
"131 683 CURVE SMOOTH",
"118 631 OFFCURVE",
"131 520 OFFCURVE",
"142 431 CURVE",
"105 429 OFFCURVE",
"75 429 OFFCURVE",
"39 429 CURVE",
"-4 392 OFFCURVE",
"3 320 OFFCURVE",
"49 297 CURVE",
"68 300 OFFCURVE",
"88 303 OFFCURVE",
"118 308 CURVE",
"91 235 OFFCURVE",
"45 132 OFFCURVE",
"45 95 CURVE SMOOTH",
"45 60 OFFCURVE",
"133 0 OFFCURVE",
"192 0 CURVE SMOOTH"
);
}
);
width = 441;
}
);
unicode = 0066;
},
{
glyphname = g;
lastChange = "2015-09-21 14:33:37 +0000";
layers = (
{
anchors = (
{
name = top;
position = "{378, 593}";
}
);
background = {
paths = (
{
closed = 1;
nodes = (
"303 416 OFFCURVE",
"327 400 OFFCURVE",
"342 385 CURVE",
"333 294 OFFCURVE",
"259 195 OFFCURVE",
"135 144 CURVE",
"151 258 OFFCURVE",
"209 416 OFFCURVE",
"280 416 CURVE SMOOTH"
);
},
{
closed = 1;
nodes = (
"269 -110 OFFCURVE",
"235 -190 OFFCURVE",
"195 -237 CURVE",
"164 -227 OFFCURVE",
"137 -209 OFFCURVE",
"137 -184 CURVE SMOOTH",
"137 -142 OFFCURVE",
"219 -71 OFFCURVE",
"290 -28 CURVE"
);
},
{
closed = 1;
nodes = (
"315 101 LINE",
"159 6 OFFCURVE",
"-5 -120 OFFCURVE",
"-5 -186 CURVE SMOOTH",
"-5 -246 OFFCURVE",
"83 -338 OFFCURVE",
"169 -338 CURVE SMOOTH",
"228 -338 OFFCURVE",
"299 -299 OFFCURVE",
"329 -253 CURVE SMOOTH",
"361 -204 OFFCURVE",
"489 357 OFFCURVE",
"489 416 CURVE SMOOTH",
"489 440 OFFCURVE",
"400 511 OFFCURVE",
"370 511 CURVE SMOOTH",
"359 511 OFFCURVE",
"344 493 OFFCURVE",
"337 462 CURVE",
"322 495 OFFCURVE",
"287 537 OFFCURVE",
"249 537 CURVE SMOOTH",
"108 537 OFFCURVE",
"3 284 OFFCURVE",
"3 141 CURVE SMOOTH",
"3 105 OFFCURVE",
"56 38 OFFCURVE",
"108 38 CURVE SMOOTH",
"164 38 OFFCURVE",
"259 102 OFFCURVE",
"297 130 CURVE"
);
},
{
closed = 1;
nodes = (
"184 289 OFFCURVE",
"244 437 OFFCURVE",
"343 437 CURVE SMOOTH",
"359 437 OFFCURVE",
"376 433 OFFCURVE",
"394 425 CURVE",
"363 301 OFFCURVE",
"273 202 OFFCURVE",
"171 139 CURVE"
);
}
);
};
layerId = "AF1B7CCB-9C31-456C-8386-1D362D80AEF6";
name = "Bold Italic";
paths = (
{
closed = 1;
nodes = (
"321 437 OFFCURVE",
"348 420 OFFCURVE",
"363 404 CURVE",
"356 309 OFFCURVE",
"282 205 OFFCURVE",
"152 151 CURVE",
"166 271 OFFCURVE",
"223 437 OFFCURVE",
"297 437 CURVE SMOOTH"
);
},
{
closed = 1;
nodes = (
"305 -117 OFFCURVE",
"273 -202 OFFCURVE",
"231 -251 CURVE",
"199 -240 OFFCURVE",
"170 -222 OFFCURVE",
"169 -195 CURVE SMOOTH",
"167 -151 OFFCURVE",
"250 -77 OFFCURVE",
"324 -30 CURVE"
);
},
{
closed = 1;
nodes = (
"345 105 LINE",
"182 6 OFFCURVE",
"17 -130 OFFCURVE",
"20 -200 CURVE SMOOTH",
"21 -263 OFFCURVE",
"118 -358 OFFCURVE",
"208 -357 CURVE SMOOTH",
"270 -357 OFFCURVE",
"343 -315 OFFCURVE",
"373 -267 CURVE SMOOTH",
"404 -214 OFFCURVE",
"516 361 OFFCURVE",
"516 438 CURVE SMOOTH",
"516 463 OFFCURVE",
"420 537 OFFCURVE",
"389 537 CURVE SMOOTH",
"377 537 OFFCURVE",
"362 518 OFFCURVE",
"356 485 CURVE",
"339 520 OFFCURVE",
"301 564 OFFCURVE",
"262 564 CURVE SMOOTH",
"116 564 OFFCURVE",
"11 308 OFFCURVE",
"11 148 CURVE SMOOTH",
"11 103 OFFCURVE",
"79 40 OFFCURVE",
"127 40 CURVE SMOOTH",
"186 40 OFFCURVE",
"284 107 OFFCURVE",
"324 137 CURVE"
);
}
);
width = 547;
},
{
associatedMasterId = "AF1B7CCB-9C31-456C-8386-1D362D80AEF6";
background = {
paths = (
{
closed = 1;
nodes = (
"187 305 OFFCURVE",
"244 416 OFFCURVE",
"329 416 CURVE SMOOTH",
"344 416 OFFCURVE",
"360 412 OFFCURVE",
"377 405 CURVE",
"351 291 OFFCURVE",
"272 206 OFFCURVE",
"169 162 CURVE"
);
},
{
closed = 1;
nodes = (
"200 -117 OFFCURVE",
"157 -74 OFFCURVE",
"109 -8 CURVE",
"47 -2 OFFCURVE",
"-2 -43 OFFCURVE",
"-2 -94 CURVE SMOOTH",
"-2 -182 OFFCURVE",
"180 -257 OFFCURVE",
"284 -257 CURVE SMOOTH",
"342 -257 OFFCURVE",
"416 -199 OFFCURVE",
"429 -160 CURVE SMOOTH",
"436 -139 OFFCURVE",
"454 -7 OFFCURVE",
"476 115 CURVE SMOOTH",
"499 242 OFFCURVE",
"540 376 OFFCURVE",
"540 416 CURVE SMOOTH",
"540 440 OFFCURVE",
"452 511 OFFCURVE",
"422 511 CURVE SMOOTH",
"411 511 OFFCURVE",
"396 493 OFFCURVE",
"388 462 CURVE",
"375 495 OFFCURVE",
"330 537 OFFCURVE",
"292 537 CURVE SMOOTH",
"123 537 OFFCURVE",
"16 316 OFFCURVE",
"16 177 CURVE SMOOTH",
"16 131 OFFCURVE",
"99 30 OFFCURVE",
"154 30 CURVE SMOOTH",
"236 30 OFFCURVE",
"293 95 OFFCURVE",
"348 184 CURVE",
"371 170 LINE",
"352 139 OFFCURVE",
"333 104 OFFCURVE",
"333 89 CURVE SMOOTH",
"333 27 OFFCURVE",
"303 -67 OFFCURVE",
"271 -141 CURVE"
);
}
);
};
layerId = "0F23DDD8-9456-4F28-B383-AA986EE3E014";
name = "Bold Italic Aug 4 15, 15:16";
paths = (
{
closed = 1;
nodes = (
"187 305 OFFCURVE",
"244 416 OFFCURVE",
"329 416 CURVE SMOOTH",
"344 416 OFFCURVE",
"360 412 OFFCURVE",
"377 405 CURVE",
"351 291 OFFCURVE",
"272 206 OFFCURVE",
"169 162 CURVE"
);
},
{
closed = 1;
nodes = (
"200 -117 OFFCURVE",
"157 -74 OFFCURVE",
"109 -8 CURVE",
"47 -2 OFFCURVE",
"-2 -43 OFFCURVE",
"-2 -94 CURVE SMOOTH",
"-2 -182 OFFCURVE",
"180 -257 OFFCURVE",
"284 -257 CURVE SMOOTH",
"342 -257 OFFCURVE",
"416 -199 OFFCURVE",
"429 -160 CURVE SMOOTH",
"436 -139 OFFCURVE",
"454 -7 OFFCURVE",
"476 115 CURVE SMOOTH",
"499 242 OFFCURVE",
"540 376 OFFCURVE",
"540 416 CURVE SMOOTH",
"540 440 OFFCURVE",
"452 511 OFFCURVE",
"422 511 CURVE SMOOTH",
"411 511 OFFCURVE",
"396 493 OFFCURVE",
"388 462 CURVE",
"375 495 OFFCURVE",
"330 537 OFFCURVE",
"292 537 CURVE SMOOTH",
"123 537 OFFCURVE",
"16 316 OFFCURVE",
"16 177 CURVE SMOOTH",
"16 131 OFFCURVE",
"99 30 OFFCURVE",
"154 30 CURVE SMOOTH",
"236 30 OFFCURVE",
"293 95 OFFCURVE",
"348 184 CURVE",
"371 170 LINE",
"352 139 OFFCURVE",
"333 104 OFFCURVE",
"333 89 CURVE SMOOTH",
"333 27 OFFCURVE",
"303 -67 OFFCURVE",
"271 -141 CURVE"
);
}
);
width = 563;
}
);
leftMetricsKey = a;
unicode = 0067;
},
{
glyphname = h;
lastChange = "2015-09-21 14:35:03 +0000";
layers = (
{
associatedMasterId = "AF1B7CCB-9C31-456C-8386-1D362D80AEF6";
background = {
paths = (
{
closed = 1;
nodes = (
"206 339 LINE",
"246 420 OFFCURVE",
"311 554 OFFCURVE",
"311 611 CURVE SMOOTH",
"311 645 OFFCURVE",
"230 718 OFFCURVE",
"173 718 CURVE SMOOTH",
"148 718 OFFCURVE",
"129 697 OFFCURVE",
"129 670 CURVE SMOOTH",
"129 612 OFFCURVE",
"127 458 OFFCURVE",
"104 370 CURVE SMOOTH",
"73 255 OFFCURVE",
"17 147 OFFCURVE",
"17 93 CURVE SMOOTH",
"17 61 OFFCURVE",
"99 0 OFFCURVE",
"149 0 CURVE SMOOTH",
"179 0 OFFCURVE",
"188 118 OFFCURVE",
"198 187 CURVE",
"248 250 OFFCURVE",
"308 320 OFFCURVE",
"341 320 CURVE SMOOTH",
"367 320 OFFCURVE",
"289 118 OFFCURVE",
"288 91 CURVE SMOOTH",
"287 67 OFFCURVE",
"363 0 OFFCURVE",
"408 0 CURVE SMOOTH",
"470 0 OFFCURVE",
"594 54 OFFCURVE",
"594 104 CURVE SMOOTH",
"594 146 OFFCURVE",
"568 181 OFFCURVE",
"511 201 CURVE",
"480 175 OFFCURVE",
"464 165 OFFCURVE",
"424 144 CURVE",
"446 220 OFFCURVE",
"511 375 OFFCURVE",
"512 416 CURVE SMOOTH",
"513 442 OFFCURVE",
"444 511 OFFCURVE",
"405 511 CURVE SMOOTH",
"366 511 OFFCURVE",
"289 412 OFFCURVE",
"224 327 CURVE"
);
}
);
};
layerId = "364ED78F-44CE-4B6C-B49B-044D0000B9F5";
name = "Bold Italic Aug 4 15, 14:41";
paths = (
{
closed = 1;
nodes = (
"206 339 LINE",
"251 420 OFFCURVE",
"311 574 OFFCURVE",
"311 631 CURVE SMOOTH",
"311 665 OFFCURVE",
"230 738 OFFCURVE",
"173 738 CURVE SMOOTH",
"148 738 OFFCURVE",
"129 717 OFFCURVE",
"129 690 CURVE SMOOTH",
"129 632 OFFCURVE",
"127 458 OFFCURVE",
"104 370 CURVE SMOOTH",
"73 255 OFFCURVE",
"17 147 OFFCURVE",
"17 93 CURVE SMOOTH",
"17 61 OFFCURVE",
"99 0 OFFCURVE",
"149 0 CURVE SMOOTH",
"179 0 OFFCURVE",
"188 118 OFFCURVE",
"199 194 CURVE",
"247 250 OFFCURVE",
"307 320 OFFCURVE",
"340 320 CURVE SMOOTH",
"366 320 OFFCURVE",
"288 118 OFFCURVE",
"287 91 CURVE SMOOTH",
"286 68 OFFCURVE",
"360 0 OFFCURVE",
"407 0 CURVE SMOOTH",
"457 0 OFFCURVE",
"592 44 OFFCURVE",
"593 92 CURVE SMOOTH",
"595 141 OFFCURVE",
"572 175 OFFCURVE",
"518 198 CURVE",
"483 171 OFFCURVE",
"461 159 OFFCURVE",
"422 144 CURVE",
"465 274 OFFCURVE",
"510 377 OFFCURVE",
"511 416 CURVE SMOOTH",
"512 442 OFFCURVE",
"443 511 OFFCURVE",
"404 511 CURVE SMOOTH",
"365 511 OFFCURVE",
"288 412 OFFCURVE",
"224 327 CURVE"
);
}
);
width = 603;
},
{
associatedMasterId = "AF1B7CCB-9C31-456C-8386-1D362D80AEF6";
background = {
paths = (
{
closed = 1;
nodes = (
"284 265 OFFCURVE",
"356 336 OFFCURVE",
"389 336 CURVE SMOOTH",
"416 336 OFFCURVE",
"334 124 OFFCURVE",
"333 96 CURVE SMOOTH",
"332 71 OFFCURVE",
"410 0 OFFCURVE",
"459 0 CURVE SMOOTH",
"512 0 OFFCURVE",
"654 46 OFFCURVE",
"655 97 CURVE SMOOTH",
"657 148 OFFCURVE",
"633 184 OFFCURVE",
"576 208 CURVE",
"539 180 OFFCURVE",
"516 167 OFFCURVE",
"475 151 CURVE",
"520 288 OFFCURVE",
"568 396 OFFCURVE",
"569 437 CURVE SMOOTH",
"570 464 OFFCURVE",
"497 537 OFFCURVE",
"456 537 CURVE SMOOTH",
"415 537 OFFCURVE",
"334 433 OFFCURVE",
"267 343 CURVE",
"249 353 LINE",
"263 411 OFFCURVE",
"284 477 OFFCURVE",
"300 515 CURVE SMOOTH",
"318 559 OFFCURVE",
"383 627 OFFCURVE",
"383 664 CURVE SMOOTH",
"383 701 OFFCURVE",
"282 775 OFFCURVE",
"247 775 CURVE SMOOTH",
"182 775 OFFCURVE",
"171 587 OFFCURVE",
"138 434 CURVE SMOOTH",
"101 261 OFFCURVE",
"50 137 OFFCURVE",
"50 98 CURVE SMOOTH",
"50 64 OFFCURVE",
"136 0 OFFCURVE",
"188 0 CURVE SMOOTH",
"220 0 OFFCURVE",
"233 131 OFFCURVE",
"236 210 CURVE"
);
},
{
closed = 0;
nodes = (
"292 547 LINE",
"305 594 OFFCURVE",
"312 644 OFFCURVE",
"312 675 CURVE SMOOTH",
"312 701 OFFCURVE",
"239 775 OFFCURVE",
"195 775 CURVE SMOOTH",
"156 775 OFFCURVE",
"84 702 OFFCURVE",
"84 658 CURVE SMOOTH",
"84 628 OFFCURVE",
"165 594 OFFCURVE",
"165 569 CURVE SMOOTH",
"165 533 OFFCURVE",
"73 359 OFFCURVE",
"73 309 CURVE SMOOTH"
);
}
);
};
layerId = "23DCBF13-A213-4CD4-977E-3E4DC1874DCE";
name = "Bold Italic Aug 13 15, 20:56";
paths = (
{
closed = 1;
nodes = (
"312 593 OFFCURVE",
"312 675 CURVE SMOOTH",
"312 701 OFFCURVE",
"239 775 OFFCURVE",
"195 775 CURVE SMOOTH",
"156 775 OFFCURVE",
"84 702 OFFCURVE",
"84 658 CURVE SMOOTH",
"84 628 OFFCURVE",
"165 593 OFFCURVE",
"165 569 CURVE SMOOTH",
"165 475 OFFCURVE",
"50 139 OFFCURVE",
"50 98 CURVE SMOOTH",
"50 64 OFFCURVE",
"136 0 OFFCURVE",
"188 0 CURVE SMOOTH",
"220 0 OFFCURVE",
"233 131 OFFCURVE",
"236 210 CURVE",
"284 265 OFFCURVE",
"356 336 OFFCURVE",
"389 336 CURVE SMOOTH",
"416 336 OFFCURVE",
"334 124 OFFCURVE",
"333 96 CURVE SMOOTH",
"332 71 OFFCURVE",
"410 0 OFFCURVE",
"459 0 CURVE SMOOTH",
"512 0 OFFCURVE",
"654 46 OFFCURVE",
"655 97 CURVE SMOOTH",
"657 148 OFFCURVE",
"633 184 OFFCURVE",
"576 208 CURVE",
"539 180 OFFCURVE",
"516 167 OFFCURVE",
"475 151 CURVE",
"520 288 OFFCURVE",
"568 396 OFFCURVE",
"569 437 CURVE SMOOTH",
"570 464 OFFCURVE",
"497 537 OFFCURVE",
"456 537 CURVE SMOOTH",
"415 537 OFFCURVE",
"334 433 OFFCURVE",
"267 343 CURVE",
"249 353 LINE",
"274 455 OFFCURVE"
);
}
);
width = 665;
},
{
associatedMasterId = "AF1B7CCB-9C31-456C-8386-1D362D80AEF6";
background = {
paths = (
{
closed = 0;
nodes = (
"135 569 LINE",
"135 475 OFFCURVE",
"20 139 OFFCURVE",
"20 98 CURVE SMOOTH",
"20 64 OFFCURVE",
"106 0 OFFCURVE",
"158 0 CURVE SMOOTH",
"190 0 OFFCURVE",
"203 131 OFFCURVE",
"206 210 CURVE",
"254 265 OFFCURVE",
"326 336 OFFCURVE",
"359 336 CURVE SMOOTH",
"386 336 OFFCURVE",
"304 124 OFFCURVE",
"303 96 CURVE SMOOTH",
"302 71 OFFCURVE",
"380 0 OFFCURVE",
"429 0 CURVE SMOOTH",
"482 0 OFFCURVE",
"624 46 OFFCURVE",
"625 97 CURVE SMOOTH",
"627 148 OFFCURVE",
"603 184 OFFCURVE",
"546 208 CURVE",
"509 180 OFFCURVE",
"486 167 OFFCURVE",
"445 151 CURVE",
"490 288 OFFCURVE",
"538 396 OFFCURVE",
"539 437 CURVE SMOOTH",
"540 464 OFFCURVE",
"467 537 OFFCURVE",
"426 537 CURVE SMOOTH",
"385 537 OFFCURVE",
"304 433 OFFCURVE",
"237 343 CURVE",
"219 353 LINE"
);
},
{
closed = 0;
nodes = (
"199 318 LINE SMOOTH",
"229 358 OFFCURVE",
"261 552 OFFCURVE",
"282 581 CURVE SMOOTH",
"297 601 OFFCURVE",
"383 579 OFFCURVE",
"400 603 CURVE SMOOTH",
"427 638 OFFCURVE",
"414 739 OFFCURVE",
"382 763 CURVE SMOOTH",
"348 789 OFFCURVE",
"244 775 OFFCURVE",
"229 754 CURVE SMOOTH",
"210 729 OFFCURVE",
"186 685 OFFCURVE",
"168 640 CURVE"
);
}
);
};
layerId = "12D5AEA6-B393-4718-8364-7DB906ACB451";
name = "Bold Italic Aug 13 15, 20:59";
paths = (
{
closed = 1;
nodes = (
"229 415 OFFCURVE",
"244 551 OFFCURVE",
"264 581 CURVE SMOOTH",
"279 601 OFFCURVE",
"345 581 OFFCURVE",
"362 605 CURVE SMOOTH",
"388 641 OFFCURVE",
"373 741 OFFCURVE",
"341 765 CURVE SMOOTH",
"306 790 OFFCURVE",
"192 778 OFFCURVE",
"188 753 CURVE SMOOTH",
"174 671 OFFCURVE",
"20 149 OFFCURVE",
"20 98 CURVE SMOOTH",
"20 64 OFFCURVE",
"106 0 OFFCURVE",
"158 0 CURVE SMOOTH",
"190 0 OFFCURVE",
"203 131 OFFCURVE",
"206 210 CURVE",
"254 265 OFFCURVE",
"326 336 OFFCURVE",
"359 336 CURVE SMOOTH",
"386 336 OFFCURVE",
"304 124 OFFCURVE",
"303 96 CURVE SMOOTH",
"302 71 OFFCURVE",
"380 0 OFFCURVE",
"429 0 CURVE SMOOTH",
"482 0 OFFCURVE",
"624 46 OFFCURVE",
"625 97 CURVE SMOOTH",
"627 148 OFFCURVE",
"603 184 OFFCURVE",
"546 208 CURVE",
"509 180 OFFCURVE",
"486 167 OFFCURVE",
"445 151 CURVE",
"490 288 OFFCURVE",
"538 396 OFFCURVE",
"539 437 CURVE SMOOTH",
"540 464 OFFCURVE",
"467 537 OFFCURVE",
"426 537 CURVE SMOOTH",
"385 537 OFFCURVE",
"304 433 OFFCURVE",
"237 343 CURVE",
"219 353 LINE"
);
}
);
width = 605;
},
{
associatedMasterId = "AF1B7CCB-9C31-456C-8386-1D362D80AEF6";
background = {
paths = (
{
closed = 1;
nodes = (
"252 265 OFFCURVE",
"324 336 OFFCURVE",
"357 336 CURVE SMOOTH",
"384 336 OFFCURVE",
"302 124 OFFCURVE",
"301 96 CURVE SMOOTH",
"300 71 OFFCURVE",
"378 0 OFFCURVE",
"427 0 CURVE SMOOTH",
"480 0 OFFCURVE",
"622 46 OFFCURVE",
"623 97 CURVE SMOOTH",
"625 148 OFFCURVE",
"601 184 OFFCURVE",
"544 208 CURVE",
"507 180 OFFCURVE",
"484 167 OFFCURVE",
"443 151 CURVE",
"488 288 OFFCURVE",
"536 396 OFFCURVE",
"537 437 CURVE SMOOTH",
"538 464 OFFCURVE",
"465 537 OFFCURVE",
"424 537 CURVE SMOOTH",
"383 537 OFFCURVE",
"302 433 OFFCURVE",
"235 343 CURVE",
"217 353 LINE",
"231 411 OFFCURVE",
"252 477 OFFCURVE",
"268 515 CURVE SMOOTH",
"286 559 OFFCURVE",
"351 627 OFFCURVE",
"351 664 CURVE SMOOTH",
"351 701 OFFCURVE",
"250 775 OFFCURVE",
"215 775 CURVE SMOOTH",
"150 775 OFFCURVE",
"139 587 OFFCURVE",
"106 434 CURVE SMOOTH",
"69 261 OFFCURVE",
"18 137 OFFCURVE",
"18 98 CURVE SMOOTH",
"18 64 OFFCURVE",
"104 0 OFFCURVE",
"156 0 CURVE SMOOTH",
"188 0 OFFCURVE",
"201 131 OFFCURVE",
"204 210 CURVE"
);
}
);
};
layerId = "DDD32A04-8DF8-42AB-9222-3FF2FF6F02E0";
name = "Bold Italic Aug 13 15, 21:10";
paths = (
{
closed = 1;
nodes = (
"252 265 OFFCURVE",
"324 336 OFFCURVE",
"357 336 CURVE SMOOTH",
"384 336 OFFCURVE",
"302 124 OFFCURVE",
"301 96 CURVE SMOOTH",
"300 71 OFFCURVE",
"378 0 OFFCURVE",
"427 0 CURVE SMOOTH",
"480 0 OFFCURVE",
"622 46 OFFCURVE",
"623 97 CURVE SMOOTH",
"625 148 OFFCURVE",
"601 184 OFFCURVE",
"544 208 CURVE",
"507 180 OFFCURVE",
"484 167 OFFCURVE",
"443 151 CURVE",
"488 288 OFFCURVE",
"536 396 OFFCURVE",
"537 437 CURVE SMOOTH",
"538 464 OFFCURVE",
"465 537 OFFCURVE",
"424 537 CURVE SMOOTH",
"383 537 OFFCURVE",
"302 433 OFFCURVE",
"235 343 CURVE",
"217 353 LINE",
"231 411 OFFCURVE",
"267 545 OFFCURVE",
"293 563 CURVE SMOOTH",
"329 587 OFFCURVE",
"351 653 OFFCURVE",
"346 687 CURVE SMOOTH",
"342 717 OFFCURVE",
"262 775 OFFCURVE",
"215 775 CURVE SMOOTH",
"150 775 OFFCURVE",
"139 587 OFFCURVE",
"106 434 CURVE SMOOTH",
"69 261 OFFCURVE",
"18 137 OFFCURVE",
"18 98 CURVE SMOOTH",
"18 64 OFFCURVE",
"104 0 OFFCURVE",
"156 0 CURVE SMOOTH",
"188 0 OFFCURVE",
"201 131 OFFCURVE",
"204 210 CURVE"
);
}
);
width = 633;
},
{
background = {
paths = (
{
closed = 1;
nodes = (
"252 265 OFFCURVE",
"324 336 OFFCURVE",
"357 336 CURVE SMOOTH",
"384 336 OFFCURVE",
"302 124 OFFCURVE",
"301 96 CURVE SMOOTH",
"300 71 OFFCURVE",
"378 0 OFFCURVE",
"427 0 CURVE SMOOTH",
"480 0 OFFCURVE",
"622 46 OFFCURVE",
"623 97 CURVE SMOOTH",
"625 148 OFFCURVE",
"601 184 OFFCURVE",
"544 208 CURVE",
"507 180 OFFCURVE",
"484 167 OFFCURVE",
"443 151 CURVE",
"488 288 OFFCURVE",
"536 396 OFFCURVE",
"537 437 CURVE SMOOTH",
"538 464 OFFCURVE",
"465 537 OFFCURVE",
"424 537 CURVE SMOOTH",
"383 537 OFFCURVE",
"302 433 OFFCURVE",
"235 343 CURVE",
"217 353 LINE",
"231 411 OFFCURVE",
"252 477 OFFCURVE",
"268 515 CURVE SMOOTH",
"286 559 OFFCURVE",
"351 627 OFFCURVE",
"351 664 CURVE SMOOTH",
"351 701 OFFCURVE",
"250 775 OFFCURVE",
"215 775 CURVE SMOOTH",
"150 775 OFFCURVE",
"139 587 OFFCURVE",
"106 434 CURVE SMOOTH",
"69 261 OFFCURVE",
"18 137 OFFCURVE",
"18 98 CURVE SMOOTH",
"18 64 OFFCURVE",
"104 0 OFFCURVE",
"156 0 CURVE SMOOTH",
"188 0 OFFCURVE",
"201 131 OFFCURVE",
"204 210 CURVE"
);
}
);
};
layerId = "AF1B7CCB-9C31-456C-8386-1D362D80AEF6";
name = "Bold Italic";
paths = (
{
closed = 1;
nodes = (
"252 265 OFFCURVE",
"324 336 OFFCURVE",
"357 336 CURVE SMOOTH",
"384 336 OFFCURVE",
"302 124 OFFCURVE",
"301 96 CURVE SMOOTH",
"300 71 OFFCURVE",
"378 0 OFFCURVE",
"427 0 CURVE SMOOTH",
"480 0 OFFCURVE",
"622 46 OFFCURVE",
"623 97 CURVE SMOOTH",
"625 148 OFFCURVE",
"601 184 OFFCURVE",
"544 208 CURVE",
"507 180 OFFCURVE",
"484 167 OFFCURVE",
"443 151 CURVE",
"488 288 OFFCURVE",
"536 396 OFFCURVE",
"537 437 CURVE SMOOTH",
"538 464 OFFCURVE",
"465 537 OFFCURVE",
"424 537 CURVE SMOOTH",
"383 537 OFFCURVE",
"302 433 OFFCURVE",
"235 343 CURVE",
"217 353 LINE",
"231 411 OFFCURVE",
"252 477 OFFCURVE",
"268 515 CURVE SMOOTH",
"286 559 OFFCURVE",
"351 627 OFFCURVE",
"351 664 CURVE SMOOTH",
"351 701 OFFCURVE",
"250 775 OFFCURVE",
"215 775 CURVE SMOOTH",
"150 775 OFFCURVE",
"139 587 OFFCURVE",
"106 434 CURVE SMOOTH",
"69 261 OFFCURVE",
"18 137 OFFCURVE",
"18 98 CURVE SMOOTH",
"18 64 OFFCURVE",
"104 0 OFFCURVE",
"156 0 CURVE SMOOTH",
"188 0 OFFCURVE",
"201 131 OFFCURVE",
"204 210 CURVE"
);
}
);
width = 657;
}
);
rightMetricsKey = n;
unicode = 0068;
},
{
glyphname = i;
lastChange = "2015-09-21 11:48:09 +0000";
layers = (
{
associatedMasterId = "AF1B7CCB-9C31-456C-8386-1D362D80AEF6";
background = {
paths = (
{
closed = 1;
nodes = (
"274 522 OFFCURVE",
"302 580 OFFCURVE",
"302 614 CURVE SMOOTH",
"302 655 OFFCURVE",
"224 700 OFFCURVE",
"176 700 CURVE SMOOTH",
"139 700 OFFCURVE",
"108 637 OFFCURVE",
"108 599 CURVE SMOOTH",
"108 561 OFFCURVE",
"190 522 OFFCURVE",
"233 522 CURVE SMOOTH"
);
},
{
closed = 1;
nodes = (
"22 63 OFFCURVE",
"96 0 OFFCURVE",
"141 0 CURVE SMOOTH",
"203 0 OFFCURVE",
"327 54 OFFCURVE",
"327 104 CURVE SMOOTH",
"327 146 OFFCURVE",
"301 181 OFFCURVE",
"244 201 CURVE",
"213 175 OFFCURVE",
"183 158 OFFCURVE",
"146 140 CURVE",
"176 227 OFFCURVE",
"237 377 OFFCURVE",
"238 416 CURVE SMOOTH",
"238 442 OFFCURVE",
"164 511 OFFCURVE",
"111 511 CURVE SMOOTH",
"68 511 OFFCURVE",
"22 158 OFFCURVE",
"22 89 CURVE SMOOTH"
);
}
);
};
layerId = "342AA3BA-9274-4559-A130-F078A779D30C";
name = "Bold Italic Aug 4 15, 17:37";
paths = (
{
closed = 1;
nodes = (
"22 63 OFFCURVE",
"96 0 OFFCURVE",
"141 0 CURVE SMOOTH",
"203 0 OFFCURVE",
"327 54 OFFCURVE",
"327 104 CURVE SMOOTH",
"327 146 OFFCURVE",
"301 181 OFFCURVE",
"244 201 CURVE",
"213 175 OFFCURVE",
"183 158 OFFCURVE",
"146 140 CURVE",
"176 227 OFFCURVE",
"237 377 OFFCURVE",
"238 416 CURVE SMOOTH",
"238 442 OFFCURVE",
"164 511 OFFCURVE",
"111 511 CURVE SMOOTH",
"68 511 OFFCURVE",
"22 158 OFFCURVE",
"22 89 CURVE SMOOTH"
);
},
{
closed = 1;
nodes = (
"201 537 OFFCURVE",
"277 580 OFFCURVE",
"277 613 CURVE SMOOTH",
"277 641 OFFCURVE",
"247 698 OFFCURVE",
"215 698 CURVE SMOOTH",
"171 698 OFFCURVE",
"98 659 OFFCURVE",
"98 629 CURVE SMOOTH",
"98 596 OFFCURVE",
"135 537 OFFCURVE",
"165 537 CURVE SMOOTH"
);
}
);
width = 335;
},
{
associatedMasterId = "AF1B7CCB-9C31-456C-8386-1D362D80AEF6";
background = {
paths = (
{
closed = 1;
nodes = (
"295 558 OFFCURVE",
"380 626 OFFCURVE",
"374 667 CURVE SMOOTH",
"369 702 OFFCURVE",
"320 766 OFFCURVE",
"280 760 CURVE SMOOTH",
"226 751 OFFCURVE",
"144 689 OFFCURVE",
"150 651 CURVE SMOOTH",
"156 611 OFFCURVE",
"214 546 OFFCURVE",
"250 551 CURVE SMOOTH"
);
},
{
closed = 1;
nodes = (
"300 463 OFFCURVE",
"233 537 OFFCURVE",
"186 537 CURVE SMOOTH",
"105 537 OFFCURVE",
"-3 478 OFFCURVE",
"-3 422 CURVE SMOOTH",
"-3 376 OFFCURVE",
"26 339 OFFCURVE",
"75 318 CURVE",
"105 341 OFFCURVE",
"138 361 OFFCURVE",
"175 380 CURVE",
"193 357 LINE",
"135 291 LINE",
"111 237 OFFCURVE",
"71 124 OFFCURVE",
"71 88 CURVE SMOOTH",
"71 62 OFFCURVE",
"154 0 OFFCURVE",
"193 0 CURVE SMOOTH",
"263 0 OFFCURVE",
"386 52 OFFCURVE",
"386 104 CURVE SMOOTH",
"386 141 OFFCURVE",
"364 181 OFFCURVE",
"303 201 CURVE",
"270 175 OFFCURVE",
"249 159 OFFCURVE",
"216 144 CURVE",
"254 243 OFFCURVE",
"300 376 OFFCURVE",
"300 442 CURVE SMOOTH"
);
}
);
};
layerId = "F01EF8D3-C8B2-448F-BDA6-42551C7427AF";
name = "Bold Italic Aug 6 15, 21:15";
paths = (
{
closed = 1;
nodes = (
"295 558 OFFCURVE",
"380 626 OFFCURVE",
"374 667 CURVE SMOOTH",
"369 702 OFFCURVE",
"320 766 OFFCURVE",
"280 760 CURVE SMOOTH",
"226 751 OFFCURVE",
"144 689 OFFCURVE",
"150 651 CURVE SMOOTH",
"156 611 OFFCURVE",
"214 546 OFFCURVE",
"250 551 CURVE SMOOTH"
);
},
{
closed = 1;
nodes = (
"177 358 LINE",
"129 301 LINE",
"105 247 OFFCURVE",
"71 124 OFFCURVE",
"71 88 CURVE SMOOTH",
"71 62 OFFCURVE",
"154 0 OFFCURVE",
"193 0 CURVE SMOOTH",
"263 0 OFFCURVE",
"386 52 OFFCURVE",
"386 104 CURVE SMOOTH",
"386 141 OFFCURVE",
"364 181 OFFCURVE",
"303 201 CURVE",
"270 175 OFFCURVE",
"249 159 OFFCURVE",
"216 144 CURVE",
"254 243 OFFCURVE",
"300 376 OFFCURVE",
"300 442 CURVE SMOOTH",
"300 463 OFFCURVE",
"233 537 OFFCURVE",
"186 537 CURVE SMOOTH",
"105 537 OFFCURVE",
"-3 478 OFFCURVE",
"-3 422 CURVE SMOOTH",
"-3 377 OFFCURVE",
"20 351 OFFCURVE",
"58 327 CURVE",
"93 348 OFFCURVE",
"124 367 OFFCURVE",
"158 381 CURVE"
);
}
);
width = 394;
},
{
associatedMasterId = "AF1B7CCB-9C31-456C-8386-1D362D80AEF6";
background = {
paths = (
{
closed = 1;
nodes = (
"295 558 OFFCURVE",
"380 626 OFFCURVE",
"374 667 CURVE SMOOTH",
"369 702 OFFCURVE",
"320 766 OFFCURVE",
"280 760 CURVE SMOOTH",
"226 751 OFFCURVE",
"144 689 OFFCURVE",
"150 651 CURVE SMOOTH",
"156 611 OFFCURVE",
"214 546 OFFCURVE",
"250 551 CURVE SMOOTH"
);
},
{
closed = 1;
nodes = (
"177 358 LINE",
"132 301 LINE",
"108 247 OFFCURVE",
"71 124 OFFCURVE",
"71 88 CURVE SMOOTH",
"71 62 OFFCURVE",
"154 0 OFFCURVE",
"193 0 CURVE SMOOTH",
"263 0 OFFCURVE",
"383 52 OFFCURVE",
"383 104 CURVE SMOOTH",
"383 141 OFFCURVE",
"361 181 OFFCURVE",
"300 201 CURVE",
"267 175 OFFCURVE",
"246 159 OFFCURVE",
"213 144 CURVE",
"254 253 OFFCURVE",
"297 396 OFFCURVE",
"297 449 CURVE SMOOTH",
"297 470 OFFCURVE",
"238 537 OFFCURVE",
"191 537 CURVE SMOOTH",
"110 537 OFFCURVE",
"-3 478 OFFCURVE",
"-3 422 CURVE SMOOTH",
"-3 377 OFFCURVE",
"20 351 OFFCURVE",
"58 327 CURVE",
"93 348 OFFCURVE",
"124 367 OFFCURVE",
"158 381 CURVE"
);
}
);
};
layerId = "F7F74E4E-17B9-43F8-A351-49BA84C7B8A1";
name = "Bold Italic Aug 12 15, 18:17";
paths = (
{
closed = 1;
nodes = (
"295 558 OFFCURVE",
"380 626 OFFCURVE",
"374 667 CURVE SMOOTH",
"369 702 OFFCURVE",
"320 766 OFFCURVE",
"280 760 CURVE SMOOTH",
"226 751 OFFCURVE",
"144 689 OFFCURVE",
"150 651 CURVE SMOOTH",
"156 611 OFFCURVE",
"214 546 OFFCURVE",
"250 551 CURVE SMOOTH"
);
},
{
closed = 1;
nodes = (
"175 354 LINE",
"133 309 LINE",
"104 239 OFFCURVE",
"71 120 OFFCURVE",
"71 88 CURVE SMOOTH",
"71 62 OFFCURVE",
"154 0 OFFCURVE",
"193 0 CURVE SMOOTH",
"263 0 OFFCURVE",
"383 52 OFFCURVE",
"383 104 CURVE SMOOTH",
"383 141 OFFCURVE",
"361 181 OFFCURVE",
"300 201 CURVE",
"267 175 OFFCURVE",
"246 159 OFFCURVE",
"213 144 CURVE",
"254 253 OFFCURVE",
"296 396 OFFCURVE",
"296 449 CURVE SMOOTH",
"296 470 OFFCURVE",
"237 537 OFFCURVE",
"190 537 CURVE SMOOTH",
"116 537 OFFCURVE",
"31 495 OFFCURVE",
"31 439 CURVE SMOOTH",
"31 403 OFFCURVE",
"54 368 OFFCURVE",
"92 344 CURVE",
"115 357 OFFCURVE",
"134 368 OFFCURVE",
"156 377 CURVE"
);
}
);
width = 391;
},
{
background = {
paths = (
{
closed = 1;
nodes = (
"250 0 OFFCURVE",
"376 55 OFFCURVE",
"376 109 CURVE SMOOTH",
"376 148 OFFCURVE",
"353 190 OFFCURVE",
"289 211 CURVE",
"254 184 OFFCURVE",
"232 167 OFFCURVE",
"197 151 CURVE",
"240 266 OFFCURVE",
"277 390 OFFCURVE",
"277 452 CURVE SMOOTH",
"277 487 OFFCURVE",
"208 564 OFFCURVE",
"160 564 CURVE SMOOTH",
"121 564 OFFCURVE",
"49 491 OFFCURVE",
"49 447 CURVE SMOOTH",
"49 417 OFFCURVE",
"130 383 OFFCURVE",
"130 358 CURVE SMOOTH",
"130 322 OFFCURVE",
"38 148 OFFCURVE",
"38 98 CURVE SMOOTH",
"38 66 OFFCURVE",
"121 0 OFFCURVE",
"176 0 CURVE SMOOTH"
);
},
{
closed = 1;
nodes = (
"303 564 OFFCURVE",
"358 655 OFFCURVE",
"344 697 CURVE SMOOTH",
"330 741 OFFCURVE",
"233 765 OFFCURVE",
"195 748 CURVE SMOOTH",
"166 732 OFFCURVE",
"146 690 OFFCURVE",
"146 655 CURVE SMOOTH",
"146 620 OFFCURVE",
"216 564 OFFCURVE",
"256 564 CURVE SMOOTH"
);
},
{
closed = 1;
nodes = (
"278 593 OFFCURVE",
"333 684 OFFCURVE",
"319 726 CURVE SMOOTH",
"305 770 OFFCURVE",
"208 794 OFFCURVE",
"170 777 CURVE SMOOTH",
"141 761 OFFCURVE",
"121 719 OFFCURVE",
"121 684 CURVE SMOOTH",
"121 649 OFFCURVE",
"191 593 OFFCURVE",
"231 593 CURVE SMOOTH"
);
}
);
};
components = (
{
name = dotlessi;
},
{
disableAlignment = 1;
name = dotaccent;
transform = "{1, 0, 0, 1, 35, 0}";
}
);
layerId = "AF1B7CCB-9C31-456C-8386-1D362D80AEF6";
name = "Bold Italic";
width = 385;
},
{
associatedMasterId = "AF1B7CCB-9C31-456C-8386-1D362D80AEF6";
background = {
paths = (
{
closed = 1;
nodes = (
"295 558 OFFCURVE",
"380 626 OFFCURVE",
"374 667 CURVE SMOOTH",
"369 702 OFFCURVE",
"320 766 OFFCURVE",
"280 760 CURVE SMOOTH",
"226 751 OFFCURVE",
"144 689 OFFCURVE",
"150 651 CURVE SMOOTH",
"156 611 OFFCURVE",
"214 546 OFFCURVE",
"250 551 CURVE SMOOTH"
);
},
{
closed = 1;
nodes = (
"177 358 LINE",
"132 301 LINE",
"108 247 OFFCURVE",
"71 124 OFFCURVE",
"71 88 CURVE SMOOTH",
"71 62 OFFCURVE",
"154 0 OFFCURVE",
"193 0 CURVE SMOOTH",
"263 0 OFFCURVE",
"383 52 OFFCURVE",
"383 104 CURVE SMOOTH",
"383 141 OFFCURVE",
"361 181 OFFCURVE",
"300 201 CURVE",
"267 175 OFFCURVE",
"246 159 OFFCURVE",
"213 144 CURVE",
"256 253 OFFCURVE",
"300 389 OFFCURVE",
"300 442 CURVE SMOOTH",
"300 463 OFFCURVE",
"238 537 OFFCURVE",
"191 537 CURVE SMOOTH",
"110 537 OFFCURVE",
"-3 478 OFFCURVE",
"-3 422 CURVE SMOOTH",
"-3 377 OFFCURVE",
"20 351 OFFCURVE",
"58 327 CURVE",
"93 348 OFFCURVE",
"124 367 OFFCURVE",
"158 381 CURVE"
);
}
);
};
layerId = "A4AD8EE1-63D9-424B-A127-AF5FE7307CBC";
name = "Bold Italic Aug 12 15, 20:18";
paths = (
{
closed = 1;
nodes = (
"295 558 OFFCURVE",
"380 626 OFFCURVE",
"374 667 CURVE SMOOTH",
"369 702 OFFCURVE",
"320 766 OFFCURVE",
"280 760 CURVE SMOOTH",
"226 751 OFFCURVE",
"144 689 OFFCURVE",
"150 651 CURVE SMOOTH",
"156 611 OFFCURVE",
"214 546 OFFCURVE",
"250 551 CURVE SMOOTH"
);
},
{
closed = 1;
nodes = (
"177 358 LINE",
"132 301 LINE",
"108 247 OFFCURVE",
"71 124 OFFCURVE",
"71 88 CURVE SMOOTH",
"71 62 OFFCURVE",
"154 0 OFFCURVE",
"193 0 CURVE SMOOTH",
"263 0 OFFCURVE",
"383 52 OFFCURVE",
"383 104 CURVE SMOOTH",
"383 141 OFFCURVE",
"361 181 OFFCURVE",
"300 201 CURVE",
"267 175 OFFCURVE",
"246 159 OFFCURVE",
"213 144 CURVE",
"254 253 OFFCURVE",
"297 396 OFFCURVE",
"297 449 CURVE SMOOTH",
"297 470 OFFCURVE",
"238 537 OFFCURVE",
"191 537 CURVE SMOOTH",
"110 537 OFFCURVE",
"-3 478 OFFCURVE",
"-3 422 CURVE SMOOTH",
"-3 377 OFFCURVE",
"20 351 OFFCURVE",
"58 327 CURVE",
"93 348 OFFCURVE",
"124 367 OFFCURVE",
"158 381 CURVE"
);
}
);
width = 391;
},
{
associatedMasterId = "AF1B7CCB-9C31-456C-8386-1D362D80AEF6";
background = {
paths = (
{
closed = 1;
nodes = (
"238 0 OFFCURVE",
"358 52 OFFCURVE",
"358 104 CURVE SMOOTH",
"358 141 OFFCURVE",
"336 181 OFFCURVE",
"275 201 CURVE",
"242 175 OFFCURVE",
"221 159 OFFCURVE",
"188 144 CURVE",
"229 253 OFFCURVE",
"264 371 OFFCURVE",
"264 442 CURVE SMOOTH",
"264 467 OFFCURVE",
"194 537 OFFCURVE",
"152 537 CURVE SMOOTH",
"115 537 OFFCURVE",
"47 468 OFFCURVE",
"47 426 CURVE SMOOTH",
"47 397 OFFCURVE",
"124 365 OFFCURVE",
"124 341 CURVE SMOOTH",
"124 307 OFFCURVE",
"36 141 OFFCURVE",
"36 93 CURVE SMOOTH",
"36 63 OFFCURVE",
"115 0 OFFCURVE",
"168 0 CURVE SMOOTH"
);
},
{
closed = 1;
nodes = (
"289 537 OFFCURVE",
"331 612 OFFCURVE",
"331 653 CURVE SMOOTH",
"331 688 OFFCURVE",
"271 717 OFFCURVE",
"207 717 CURVE SMOOTH",
"169 717 OFFCURVE",
"139 665 OFFCURVE",
"139 624 CURVE SMOOTH",
"139 590 OFFCURVE",
"206 537 OFFCURVE",
"248 537 CURVE SMOOTH"
);
}
);
};
layerId = "44972CD5-9CB5-41A7-A5B7-EBEC99715ADF";
name = "Bold Italic Aug 19 15, 18:15";
paths = (
{
closed = 1;
nodes = (
"250 0 OFFCURVE",
"376 55 OFFCURVE",
"376 109 CURVE SMOOTH",
"376 148 OFFCURVE",
"353 190 OFFCURVE",
"289 211 CURVE",
"254 184 OFFCURVE",
"232 167 OFFCURVE",
"197 151 CURVE",
"240 266 OFFCURVE",
"277 390 OFFCURVE",
"277 464 CURVE SMOOTH",
"277 490 OFFCURVE",
"204 564 OFFCURVE",
"160 564 CURVE SMOOTH",
"121 564 OFFCURVE",
"49 491 OFFCURVE",
"49 447 CURVE SMOOTH",
"49 417 OFFCURVE",
"130 383 OFFCURVE",
"130 358 CURVE SMOOTH",
"130 322 OFFCURVE",
"38 148 OFFCURVE",
"38 98 CURVE SMOOTH",
"38 66 OFFCURVE",
"121 0 OFFCURVE",
"176 0 CURVE SMOOTH"
);
},
{
closed = 1;
nodes = (
"303 564 OFFCURVE",
"358 655 OFFCURVE",
"344 697 CURVE SMOOTH",
"330 741 OFFCURVE",
"233 765 OFFCURVE",
"195 748 CURVE SMOOTH",
"166 732 OFFCURVE",
"146 690 OFFCURVE",
"146 655 CURVE SMOOTH",
"146 620 OFFCURVE",
"216 564 OFFCURVE",
"256 564 CURVE SMOOTH"
);
}
);
width = 384;
}
);
leftMetricsKey = n;
rightMetricsKey = u;
unicode = 0069;
},
{
glyphname = dotlessi;
lastChange = "2015-09-21 11:44:05 +0000";
layers = (
{
anchors = (
{
name = top;
position = "{169, 593}";
}
);
background = {
components = (
{
name = i;
transform = "{1, 0, 0, 1, -23, 0}";
}
);
paths = (
{
closed = 1;
nodes = (
"227 0 OFFCURVE",
"353 55 OFFCURVE",
"353 109 CURVE SMOOTH",
"353 148 OFFCURVE",
"330 190 OFFCURVE",
"266 211 CURVE",
"231 184 OFFCURVE",
"209 167 OFFCURVE",
"174 151 CURVE",
"217 266 OFFCURVE",
"254 390 OFFCURVE",
"254 452 CURVE SMOOTH",
"254 487 OFFCURVE",
"185 564 OFFCURVE",
"137 564 CURVE SMOOTH",
"98 564 OFFCURVE",
"26 491 OFFCURVE",
"26 447 CURVE SMOOTH",
"26 417 OFFCURVE",
"107 383 OFFCURVE",
"107 358 CURVE SMOOTH",
"107 322 OFFCURVE",
"15 148 OFFCURVE",
"15 98 CURVE SMOOTH",
"15 66 OFFCURVE",
"98 0 OFFCURVE",
"153 0 CURVE SMOOTH"
);
}
);
};
layerId = "AF1B7CCB-9C31-456C-8386-1D362D80AEF6";
name = "Bold Italic";
paths = (
{
closed = 1;
nodes = (
"227 0 OFFCURVE",
"353 55 OFFCURVE",
"353 109 CURVE SMOOTH",
"353 148 OFFCURVE",
"330 190 OFFCURVE",
"266 211 CURVE",
"231 184 OFFCURVE",
"209 167 OFFCURVE",
"174 151 CURVE",
"217 266 OFFCURVE",
"254 390 OFFCURVE",
"254 452 CURVE SMOOTH",
"254 487 OFFCURVE",
"185 564 OFFCURVE",
"137 564 CURVE SMOOTH",
"98 564 OFFCURVE",
"26 491 OFFCURVE",
"26 447 CURVE SMOOTH",
"26 417 OFFCURVE",
"107 383 OFFCURVE",
"107 358 CURVE SMOOTH",
"107 322 OFFCURVE",
"15 148 OFFCURVE",
"15 98 CURVE SMOOTH",
"15 66 OFFCURVE",
"98 0 OFFCURVE",
"153 0 CURVE SMOOTH"
);
}
);
width = 385;
},
{
associatedMasterId = "AF1B7CCB-9C31-456C-8386-1D362D80AEF6";
layerId = UUID0;
name = Bold;
paths = (
{
closed = 1;
nodes = (
"211 0 LINE",
"211 507 LINE",
"65 507 LINE",
"65 0 LINE"
);
}
);
width = 276;
}
);
leftMetricsKey = n;
rightMetricsKey = n;
unicode = 0131;
},
{
glyphname = j;
lastChange = "2015-09-21 12:17:30 +0000";
layers = (
{
background = {
paths = (
{
closed = 1;
nodes = (
"46 -269 OFFCURVE",
"131 -222 OFFCURVE",
"153 -181 CURVE SMOOTH",
"174 -140 OFFCURVE",
"182 -1 OFFCURVE",
"206 138 CURVE SMOOTH",
"229 282 OFFCURVE",
"268 426 OFFCURVE",
"267 460 CURVE SMOOTH",
"266 489 OFFCURVE",
"186 564 OFFCURVE",
"142 564 CURVE SMOOTH",
"96 564 OFFCURVE",
"30 491 OFFCURVE",
"31 447 CURVE SMOOTH",
"32 417 OFFCURVE",
"107 386 OFFCURVE",
"107 361 CURVE SMOOTH",
"108 329 OFFCURVE",
"81 206 OFFCURVE",
"67 110 CURVE SMOOTH",
"46 -27 OFFCURVE",
"19 -159 OFFCURVE",
"-15 -159 CURVE SMOOTH",
"-47 -159 OFFCURVE",
"-65 -106 OFFCURVE",
"-92 -35 CURVE",
"-157 -17 OFFCURVE",
"-224 -58 OFFCURVE",
"-223 -118 CURVE SMOOTH",
"-220 -190 OFFCURVE",
"-102 -269 OFFCURVE",
"-8 -269 CURVE SMOOTH"
);
},
{
closed = 1;
nodes = (
"283 564 OFFCURVE",
"338 655 OFFCURVE",
"324 697 CURVE SMOOTH",
"309 741 OFFCURVE",
"213 765 OFFCURVE",
"175 748 CURVE SMOOTH",
"145 732 OFFCURVE",
"126 690 OFFCURVE",
"126 655 CURVE SMOOTH",
"126 620 OFFCURVE",
"196 564 OFFCURVE",
"236 564 CURVE SMOOTH"
);
}
);
};
layerId = "AF1B7CCB-9C31-456C-8386-1D362D80AEF6";
name = "Bold Italic";
paths = (
{
closed = 1;
nodes = (
"46 -269 OFFCURVE",
"131 -222 OFFCURVE",
"153 -181 CURVE SMOOTH",
"174 -140 OFFCURVE",
"182 -1 OFFCURVE",
"206 138 CURVE SMOOTH",
"229 282 OFFCURVE",
"268 426 OFFCURVE",
"267 460 CURVE SMOOTH",
"266 489 OFFCURVE",
"186 564 OFFCURVE",
"142 564 CURVE SMOOTH",
"96 564 OFFCURVE",
"30 491 OFFCURVE",
"31 447 CURVE SMOOTH",
"32 417 OFFCURVE",
"107 386 OFFCURVE",
"107 361 CURVE SMOOTH",
"108 329 OFFCURVE",
"81 206 OFFCURVE",
"67 110 CURVE SMOOTH",
"46 -27 OFFCURVE",
"19 -159 OFFCURVE",
"-15 -159 CURVE SMOOTH",
"-47 -159 OFFCURVE",
"-65 -106 OFFCURVE",
"-92 -35 CURVE",
"-157 -17 OFFCURVE",
"-224 -58 OFFCURVE",
"-223 -118 CURVE SMOOTH",
"-220 -190 OFFCURVE",
"-102 -269 OFFCURVE",
"-8 -269 CURVE SMOOTH"
);
},
{
closed = 1;
nodes = (
"254 593 OFFCURVE",
"309 684 OFFCURVE",
"295 726 CURVE SMOOTH",
"281 770 OFFCURVE",
"184 794 OFFCURVE",
"146 777 CURVE SMOOTH",
"117 761 OFFCURVE",
"97 719 OFFCURVE",
"97 684 CURVE SMOOTH",
"97 649 OFFCURVE",
"167 593 OFFCURVE",
"207 593 CURVE SMOOTH"
);
}
);
width = 311;
},
{
associatedMasterId = "AF1B7CCB-9C31-456C-8386-1D362D80AEF6";
components = (
{
name = j.ss02;
}
);
layerId = "DCDE5E3F-A841-4698-9E4C-73782174BD25";
name = "Bold Italic Aug 12 15, 21:25";
width = 338;
}
);
unicode = 006A;
},
{
glyphname = k;
lastChange = "2015-09-21 14:35:08 +0000";
layers = (
{
background = {
paths = (
{
closed = 1;
nodes = (
"252 192 LINE",
"268 90 OFFCURVE",
"335 0 OFFCURVE",
"429 0 CURVE SMOOTH",
"500 0 OFFCURVE",
"555 39 OFFCURVE",
"555 92 CURVE SMOOTH",
"555 122 OFFCURVE",
"536 154 OFFCURVE",
"496 178 CURVE",
"473 165 OFFCURVE",
"450 152 OFFCURVE",
"422 144 CURVE",
"399 152 OFFCURVE",
"382 168 OFFCURVE",
"361 187 CURVE",
"441 239 OFFCURVE",
"511 315 OFFCURVE",
"511 391 CURVE SMOOTH",
"511 431 OFFCURVE",
"458 511 OFFCURVE",
"412 511 CURVE SMOOTH",
"364 511 OFFCURVE",
"288 412 OFFCURVE",
"224 327 CURVE",
"206 339 LINE",
"251 420 OFFCURVE",
"311 574 OFFCURVE",
"311 631 CURVE SMOOTH",
"311 665 OFFCURVE",
"230 738 OFFCURVE",
"173 738 CURVE SMOOTH",
"148 738 OFFCURVE",
"129 717 OFFCURVE",
"129 690 CURVE SMOOTH",
"129 632 OFFCURVE",
"127 458 OFFCURVE",
"104 370 CURVE SMOOTH",
"73 255 OFFCURVE",
"17 147 OFFCURVE",
"17 93 CURVE SMOOTH",
"17 61 OFFCURVE",
"99 0 OFFCURVE",
"149 0 CURVE SMOOTH",
"179 0 OFFCURVE",
"188 118 OFFCURVE",
"199 194 CURVE",
"254 262 OFFCURVE",
"320 340 OFFCURVE",
"357 340 CURVE SMOOTH",
"369 340 OFFCURVE",
"376 332 OFFCURVE",
"376 320 CURVE SMOOTH",
"376 295 OFFCURVE",
"346 252 OFFCURVE",
"270 222 CURVE"
);
}
);
};
layerId = "AF1B7CCB-9C31-456C-8386-1D362D80AEF6";
name = "Bold Italic";
paths = (
{
closed = 1;
nodes = (
"217 353 LINE",
"231 411 OFFCURVE",
"252 477 OFFCURVE",
"268 515 CURVE SMOOTH",
"286 559 OFFCURVE",
"351 627 OFFCURVE",
"351 664 CURVE SMOOTH",
"351 701 OFFCURVE",
"250 775 OFFCURVE",
"215 775 CURVE SMOOTH",
"150 775 OFFCURVE",
"139 587 OFFCURVE",
"106 434 CURVE SMOOTH",
"69 261 OFFCURVE",
"18 137 OFFCURVE",
"18 98 CURVE SMOOTH",
"18 64 OFFCURVE",
"104 0 OFFCURVE",
"156 0 CURVE SMOOTH",
"188 0 OFFCURVE",
"201 131 OFFCURVE",
"204 210 CURVE",
"267 279 OFFCURVE",
"332 357 OFFCURVE",
"370 357 CURVE SMOOTH",
"382 357 OFFCURVE",
"390 349 OFFCURVE",
"390 336 CURVE SMOOTH",
"390 310 OFFCURVE",
"358 265 OFFCURVE",
"278 233 CURVE",
"259 202 LINE",
"276 95 OFFCURVE",
"347 0 OFFCURVE",
"445 0 CURVE SMOOTH",
"520 0 OFFCURVE",
"578 41 OFFCURVE",
"578 97 CURVE SMOOTH",
"578 128 OFFCURVE",
"558 162 OFFCURVE",
"516 187 CURVE",
"491 173 OFFCURVE",
"467 160 OFFCURVE",
"438 151 CURVE",
"414 160 OFFCURVE",
"396 176 OFFCURVE",
"374 196 CURVE",
"458 251 OFFCURVE",
"531 331 OFFCURVE",
"531 411 CURVE SMOOTH",
"531 453 OFFCURVE",
"476 537 OFFCURVE",
"427 537 CURVE SMOOTH",
"377 537 OFFCURVE",
"302 433 OFFCURVE",
"235 343 CURVE"
);
}
);
width = 612;
},
{
associatedMasterId = "AF1B7CCB-9C31-456C-8386-1D362D80AEF6";
background = {
paths = (
{
closed = 1;
nodes = (
"252 192 LINE",
"269 89 OFFCURVE",
"332 0 OFFCURVE",
"432 0 CURVE SMOOTH",
"507 0 OFFCURVE",
"550 46 OFFCURVE",
"550 95 CURVE SMOOTH",
"550 127 OFFCURVE",
"531 160 OFFCURVE",
"489 182 CURVE",
"466 167 OFFCURVE",
"444 153 OFFCURVE",
"417 143 CURVE",
"399 152 OFFCURVE",
"382 168 OFFCURVE",
"361 187 CURVE",
"441 239 OFFCURVE",
"511 315 OFFCURVE",
"511 391 CURVE SMOOTH",
"511 431 OFFCURVE",
"458 511 OFFCURVE",
"412 511 CURVE SMOOTH",
"364 511 OFFCURVE",
"288 412 OFFCURVE",
"224 327 CURVE",
"206 339 LINE",
"250 425 OFFCURVE",
"311 556 OFFCURVE",
"311 611 CURVE SMOOTH",
"311 645 OFFCURVE",
"230 718 OFFCURVE",
"173 718 CURVE SMOOTH",
"148 718 OFFCURVE",
"129 697 OFFCURVE",
"129 670 CURVE SMOOTH",
"129 612 OFFCURVE",
"127 458 OFFCURVE",
"104 370 CURVE SMOOTH",
"73 255 OFFCURVE",
"17 147 OFFCURVE",
"17 93 CURVE SMOOTH",
"17 61 OFFCURVE",
"99 0 OFFCURVE",
"149 0 CURVE SMOOTH",
"179 0 OFFCURVE",
"188 118 OFFCURVE",
"199 194 CURVE",
"254 262 OFFCURVE",
"320 340 OFFCURVE",
"357 340 CURVE SMOOTH",
"369 340 OFFCURVE",
"376 332 OFFCURVE",
"376 320 CURVE SMOOTH",
"376 295 OFFCURVE",
"346 252 OFFCURVE",
"270 222 CURVE"
);
}
);
};
layerId = "F2B4037D-3382-4A9C-993E-8EFF8C37D6B8";
name = "Bold Italic Aug 4 15, 15:01";
paths = (
{
closed = 1;
nodes = (
"252 192 LINE",
"268 90 OFFCURVE",
"335 0 OFFCURVE",
"429 0 CURVE SMOOTH",
"500 0 OFFCURVE",
"555 39 OFFCURVE",
"555 92 CURVE SMOOTH",
"555 122 OFFCURVE",
"536 154 OFFCURVE",
"496 178 CURVE",
"473 165 OFFCURVE",
"450 152 OFFCURVE",
"422 144 CURVE",
"399 152 OFFCURVE",
"382 168 OFFCURVE",
"361 187 CURVE",
"441 239 OFFCURVE",
"511 315 OFFCURVE",
"511 391 CURVE SMOOTH",
"511 431 OFFCURVE",
"458 511 OFFCURVE",
"412 511 CURVE SMOOTH",
"364 511 OFFCURVE",
"288 412 OFFCURVE",
"224 327 CURVE",
"206 339 LINE",
"251 420 OFFCURVE",
"311 574 OFFCURVE",
"311 631 CURVE SMOOTH",
"311 665 OFFCURVE",
"230 738 OFFCURVE",
"173 738 CURVE SMOOTH",
"148 738 OFFCURVE",
"129 717 OFFCURVE",
"129 690 CURVE SMOOTH",
"129 632 OFFCURVE",
"127 458 OFFCURVE",
"104 370 CURVE SMOOTH",
"73 255 OFFCURVE",
"17 147 OFFCURVE",
"17 93 CURVE SMOOTH",
"17 61 OFFCURVE",
"99 0 OFFCURVE",
"149 0 CURVE SMOOTH",
"179 0 OFFCURVE",
"188 118 OFFCURVE",
"199 194 CURVE",
"254 262 OFFCURVE",
"320 340 OFFCURVE",
"357 340 CURVE SMOOTH",
"369 340 OFFCURVE",
"376 332 OFFCURVE",
"376 320 CURVE SMOOTH",
"376 295 OFFCURVE",
"346 252 OFFCURVE",
"270 222 CURVE"
);
}
);
width = 585;
}
);
leftMetricsKey = h;
unicode = 006B;
},
{
glyphname = kcommaaccent;
lastChange = "2015-09-19 14:09:31 +0000";
layers = (
{
components = (
{
name = k;
}
);
layerId = "AF1B7CCB-9C31-456C-8386-1D362D80AEF6";
name = "Bold Italic";
paths = (
{
closed = 1;
nodes = (
"304 -285 OFFCURVE",
"340 -231 OFFCURVE",
"376 -133 CURVE",
"355 -70 OFFCURVE",
"271 -46 OFFCURVE",
"201 -98 CURVE",
"212 -219 LINE",
"160 -307 LINE",
"169 -338 OFFCURVE",
"196 -351 OFFCURVE",
"232 -349 CURVE"
);
}
);
width = 609;
}
);
unicode = 0137;
},
{
glyphname = l;
lastChange = "2015-09-21 12:21:11 +0000";
layers = (
{
anchors = (
{
name = top;
position = "{264, 801}";
}
);
background = {
paths = (
{
closed = 1;
nodes = (
"209 407 OFFCURVE",
"234 491 CURVE SMOOTH",
"247 535 OFFCURVE",
"293 593 OFFCURVE",
"293 640 CURVE SMOOTH",
"293 675 OFFCURVE",
"207 737 OFFCURVE",
"166 737 CURVE SMOOTH",
"134 737 OFFCURVE",
"103 527 OFFCURVE",
"86 438 CURVE SMOOTH",
"59 297 OFFCURVE",
"17 127 OFFCURVE",
"17 94 CURVE SMOOTH",
"17 62 OFFCURVE",
"101 0 OFFCURVE",
"160 0 CURVE SMOOTH",
"222 0 OFFCURVE",
"346 54 OFFCURVE",
"346 104 CURVE SMOOTH",
"346 146 OFFCURVE",
"320 181 OFFCURVE",
"263 201 CURVE",
"232 175 OFFCURVE",
"202 158 OFFCURVE",
"165 140 CURVE",
"178 240 OFFCURVE"
);
}
);
};
layerId = "AF1B7CCB-9C31-456C-8386-1D362D80AEF6";
name = "Bold Italic";
paths = (
{
closed = 1;
nodes = (
"233 0 OFFCURVE",
"363 57 OFFCURVE",
"363 109 CURVE SMOOTH",
"363 153 OFFCURVE",
"336 190 OFFCURVE",
"276 211 CURVE",
"244 184 OFFCURVE",
"227 173 OFFCURVE",
"184 152 CURVE",
"201 267 OFFCURVE",
"232 434 OFFCURVE",
"260 519 CURVE SMOOTH",
"276 565 OFFCURVE",
"316 616 OFFCURVE",
"316 672 CURVE SMOOTH",
"316 709 OFFCURVE",
"217 774 OFFCURVE",
"174 774 CURVE SMOOTH",
"141 774 OFFCURVE",
"108 553 OFFCURVE",
"90 460 CURVE SMOOTH",
"62 312 OFFCURVE",
"18 133 OFFCURVE",
"18 99 CURVE SMOOTH",
"18 65 OFFCURVE",
"106 0 OFFCURVE",
"168 0 CURVE SMOOTH"
);
}
);
width = 395;
},
{
associatedMasterId = "AF1B7CCB-9C31-456C-8386-1D362D80AEF6";
background = {
paths = (
{
closed = 1;
nodes = (
"193 177 OFFCURVE",
"230 344 CURVE SMOOTH",
"259 479 OFFCURVE",
"297 607 OFFCURVE",
"297 631 CURVE SMOOTH",
"297 665 OFFCURVE",
"216 738 OFFCURVE",
"159 738 CURVE SMOOTH",
"134 738 OFFCURVE",
"115 717 OFFCURVE",
"115 690 CURVE SMOOTH",
"115 632 OFFCURVE",
"113 458 OFFCURVE",
"90 370 CURVE SMOOTH",
"59 255 OFFCURVE",
"3 147 OFFCURVE",
"3 93 CURVE SMOOTH",
"3 61 OFFCURVE",
"85 0 OFFCURVE",
"135 0 CURVE SMOOTH",
"163 0 OFFCURVE"
);
}
);
};
layerId = "03E1367D-A809-4CA8-B5DB-09A9ABD9DAB2";
name = "Bold Italic Aug 3 15, 13:03";
paths = (
{
closed = 1;
nodes = (
"188 0 OFFCURVE",
"213 177 OFFCURVE",
"244 344 CURVE SMOOTH",
"268 479 OFFCURVE",
"302 607 OFFCURVE",
"301 631 CURVE SMOOTH",
"300 665 OFFCURVE",
"216 738 OFFCURVE",
"159 738 CURVE SMOOTH",
"134 738 OFFCURVE",
"116 717 OFFCURVE",
"117 690 CURVE SMOOTH",
"119 632 OFFCURVE",
"123 458 OFFCURVE",
"103 370 CURVE SMOOTH",
"76 255 OFFCURVE",
"24 147 OFFCURVE",
"26 93 CURVE SMOOTH",
"27 61 OFFCURVE",
"111 0 OFFCURVE",
"161 0 CURVE SMOOTH"
);
}
);
width = 296;
},
{
associatedMasterId = "AF1B7CCB-9C31-456C-8386-1D362D80AEF6";
background = {
paths = (
{
closed = 1;
nodes = (
"72 282 OFFCURVE",
"19 119 OFFCURVE",
"19 94 CURVE SMOOTH",
"19 62 OFFCURVE",
"103 0 OFFCURVE",
"162 0 CURVE SMOOTH",
"224 0 OFFCURVE",
"348 54 OFFCURVE",
"348 104 CURVE SMOOTH",
"348 146 OFFCURVE",
"322 181 OFFCURVE",
"265 201 CURVE",
"234 175 OFFCURVE",
"204 158 OFFCURVE",
"167 140 CURVE",
"180 216 OFFCURVE",
"201 286 OFFCURVE",
"223 369 CURVE SMOOTH",
"243 443 OFFCURVE",
"294 567 OFFCURVE",
"294 611 CURVE SMOOTH",
"294 645 OFFCURVE",
"218 718 OFFCURVE",
"161 718 CURVE SMOOTH",
"136 718 OFFCURVE",
"117 697 OFFCURVE",
"117 670 CURVE SMOOTH",
"117 612 OFFCURVE",
"116 498 OFFCURVE",
"95 396 CURVE SMOOTH"
);
}
);
};
layerId = "9584FDF5-3E14-40B4-9BE7-5FF1D89B11DA";
name = "Bold Italic Aug 4 15, 15:03";
paths = (
{
closed = 1;
nodes = (
"72 282 OFFCURVE",
"19 119 OFFCURVE",
"19 94 CURVE SMOOTH",
"19 62 OFFCURVE",
"103 0 OFFCURVE",
"162 0 CURVE SMOOTH",
"224 0 OFFCURVE",
"348 54 OFFCURVE",
"348 104 CURVE SMOOTH",
"348 146 OFFCURVE",
"322 181 OFFCURVE",
"265 201 CURVE",
"234 175 OFFCURVE",
"204 158 OFFCURVE",
"167 140 CURVE",
"180 216 OFFCURVE",
"197 280 OFFCURVE",
"219 359 CURVE SMOOTH",
"241 437 OFFCURVE",
"299 581 OFFCURVE",
"299 631 CURVE SMOOTH",
"299 665 OFFCURVE",
"218 738 OFFCURVE",
"161 738 CURVE SMOOTH",
"136 738 OFFCURVE",
"117 717 OFFCURVE",
"117 690 CURVE SMOOTH",
"117 632 OFFCURVE",
"116 498 OFFCURVE",
"95 396 CURVE SMOOTH"
);
}
);
width = 356;
}
);
leftMetricsKey = h;
rightMetricsKey = n;
unicode = 006C;
},
{
glyphname = lcaron;
lastChange = "2015-09-19 13:11:05 +0000";
layers = (
{
components = (
{
name = l;
}
);
layerId = "AF1B7CCB-9C31-456C-8386-1D362D80AEF6";
name = "Bold Italic";
paths = (
{
closed = 1;
nodes = (
"504 645 OFFCURVE",
"540 699 OFFCURVE",
"576 797 CURVE",
"555 860 OFFCURVE",
"471 884 OFFCURVE",
"401 832 CURVE",
"412 711 LINE",
"360 623 LINE",
"369 592 OFFCURVE",
"396 579 OFFCURVE",
"432 581 CURVE"
);
}
);
width = 502;
}
);
leftMetricsKey = l;
unicode = 013E;
},
{
glyphname = lcommaaccent;
lastChange = "2015-09-19 14:09:40 +0000";
layers = (
{
components = (
{
name = l;
}
);
layerId = "AF1B7CCB-9C31-456C-8386-1D362D80AEF6";
name = "Bold Italic";
paths = (
{
closed = 1;
nodes = (
"154 -285 OFFCURVE",
"190 -231 OFFCURVE",
"226 -133 CURVE",
"205 -70 OFFCURVE",
"121 -46 OFFCURVE",
"51 -98 CURVE",
"62 -219 LINE",
"10 -307 LINE",
"19 -338 OFFCURVE",
"46 -351 OFFCURVE",
"82 -349 CURVE"
);
}
);
width = 371;
}
);
unicode = 013C;
},
{
glyphname = m;
lastChange = "2015-09-21 12:21:23 +0000";
layers = (
{
background = {
paths = (
{
closed = 1;
nodes = (
"234 365 OFFCURVE",
"241 412 OFFCURVE",
"241 442 CURVE SMOOTH",
"241 467 OFFCURVE",
"171 537 OFFCURVE",
"129 537 CURVE SMOOTH",
"92 537 OFFCURVE",
"24 468 OFFCURVE",
"24 426 CURVE SMOOTH",
"24 397 OFFCURVE",
"93 365 OFFCURVE",
"93 341 CURVE SMOOTH",
"93 316 OFFCURVE",
"13 141 OFFCURVE",
"13 93 CURVE SMOOTH",
"13 63 OFFCURVE",
"92 0 OFFCURVE",
"145 0 CURVE SMOOTH",
"175 0 OFFCURVE",
"184 118 OFFCURVE",
"202 187 CURVE",
"251 250 OFFCURVE",
"311 320 OFFCURVE",
"344 320 CURVE SMOOTH",
"370 320 OFFCURVE",
"292 118 OFFCURVE",
"292 93 CURVE SMOOTH",
"292 65 OFFCURVE",
"372 0 OFFCURVE",
"415 0 CURVE SMOOTH",
"445 0 OFFCURVE",
"454 118 OFFCURVE",
"472 187 CURVE",
"521 250 OFFCURVE",
"581 320 OFFCURVE",
"614 320 CURVE SMOOTH",
"640 320 OFFCURVE",
"562 118 OFFCURVE",
"561 91 CURVE SMOOTH",
"560 67 OFFCURVE",
"636 0 OFFCURVE",
"681 0 CURVE SMOOTH",
"743 0 OFFCURVE",
"867 54 OFFCURVE",
"867 104 CURVE SMOOTH",
"867 146 OFFCURVE",
"841 181 OFFCURVE",
"784 201 CURVE",
"753 175 OFFCURVE",
"737 165 OFFCURVE",
"697 144 CURVE",
"719 220 OFFCURVE",
"784 375 OFFCURVE",
"785 416 CURVE SMOOTH",
"786 442 OFFCURVE",
"717 511 OFFCURVE",
"678 511 CURVE SMOOTH",
"639 511 OFFCURVE",
"562 412 OFFCURVE",
"483 311 CURVE",
"494 354 OFFCURVE",
"505 395 OFFCURVE",
"506 430 CURVE SMOOTH",
"507 453 OFFCURVE",
"444 511 OFFCURVE",
"405 511 CURVE SMOOTH",
"366 511 OFFCURVE",
"292 412 OFFCURVE",
"222 320 CURVE"
);
}
);
};
layerId = "AF1B7CCB-9C31-456C-8386-1D362D80AEF6";
name = "Bold Italic";
paths = (
{
closed = 1;
nodes = (
"247 383 OFFCURVE",
"254 433 OFFCURVE",
"254 464 CURVE SMOOTH",
"254 490 OFFCURVE",
"181 564 OFFCURVE",
"137 564 CURVE SMOOTH",
"98 564 OFFCURVE",
"26 491 OFFCURVE",
"26 447 CURVE SMOOTH",
"26 417 OFFCURVE",
"107 383 OFFCURVE",
"107 358 CURVE SMOOTH",
"107 322 OFFCURVE",
"15 148 OFFCURVE",
"15 98 CURVE SMOOTH",
"15 66 OFFCURVE",
"98 0 OFFCURVE",
"153 0 CURVE SMOOTH",
"185 0 OFFCURVE",
"194 124 OFFCURVE",
"213 196 CURVE",
"265 263 OFFCURVE",
"328 336 OFFCURVE",
"362 336 CURVE SMOOTH",
"390 336 OFFCURVE",
"308 124 OFFCURVE",
"308 98 CURVE SMOOTH",
"308 68 OFFCURVE",
"392 0 OFFCURVE",
"437 0 CURVE SMOOTH",
"468 0 OFFCURVE",
"478 124 OFFCURVE",
"497 196 CURVE",
"548 263 OFFCURVE",
"611 336 OFFCURVE",
"646 336 CURVE SMOOTH",
"673 336 OFFCURVE",
"591 124 OFFCURVE",
"590 96 CURVE SMOOTH",
"589 70 OFFCURVE",
"669 0 OFFCURVE",
"716 0 CURVE SMOOTH",
"781 0 OFFCURVE",
"912 57 OFFCURVE",
"912 109 CURVE SMOOTH",
"912 153 OFFCURVE",
"884 190 OFFCURVE",
"824 211 CURVE",
"792 184 OFFCURVE",
"775 173 OFFCURVE",
"733 151 CURVE",
"756 231 OFFCURVE",
"824 394 OFFCURVE",
"825 437 CURVE SMOOTH",
"826 464 OFFCURVE",
"754 537 OFFCURVE",
"713 537 CURVE SMOOTH",
"672 537 OFFCURVE",
"591 433 OFFCURVE",
"508 327 CURVE",
"520 372 OFFCURVE",
"531 415 OFFCURVE",
"532 452 CURVE SMOOTH",
"534 476 OFFCURVE",
"467 537 OFFCURVE",
"426 537 CURVE SMOOTH",
"385 537 OFFCURVE",
"308 433 OFFCURVE",
"234 336 CURVE"
);
}
);
width = 944;
}
);
leftMetricsKey = n;
rightMetricsKey = n;
unicode = 006D;
},
{
glyphname = n;
lastChange = "2015-09-21 10:49:48 +0000";
layers = (
{
associatedMasterId = "AF1B7CCB-9C31-456C-8386-1D362D80AEF6";
background = {
paths = (
{
closed = 1;
nodes = (
"543 171 OFFCURVE",
"521 159 OFFCURVE",
"482 144 CURVE",
"525 274 OFFCURVE",
"570 377 OFFCURVE",
"571 416 CURVE SMOOTH",
"572 442 OFFCURVE",
"503 511 OFFCURVE",
"464 511 CURVE SMOOTH",
"425 511 OFFCURVE",
"348 412 OFFCURVE",
"278 320 CURVE",
"290 365 OFFCURVE",
"297 412 OFFCURVE",
"297 442 CURVE SMOOTH",
"297 467 OFFCURVE",
"223 537 OFFCURVE",
"188 537 CURVE SMOOTH",
"106 537 OFFCURVE",
"-3 479 OFFCURVE",
"-3 422 CURVE SMOOTH",
"-3 376 OFFCURVE",
"24 341 OFFCURVE",
"76 318 CURVE",
"106 341 OFFCURVE",
"139 361 OFFCURVE",
"176 380 CURVE",
"196 355 LINE",
"131 285 LINE",
"107 223 OFFCURVE",
"69 126 OFFCURVE",
"69 93 CURVE SMOOTH",
"69 63 OFFCURVE",
"148 0 OFFCURVE",
"201 0 CURVE SMOOTH",
"231 0 OFFCURVE",
"240 118 OFFCURVE",
"258 187 CURVE",
"307 250 OFFCURVE",
"367 320 OFFCURVE",
"400 320 CURVE SMOOTH",
"426 320 OFFCURVE",
"348 118 OFFCURVE",
"347 91 CURVE SMOOTH",
"346 68 OFFCURVE",
"420 0 OFFCURVE",
"467 0 CURVE SMOOTH",
"517 0 OFFCURVE",
"652 44 OFFCURVE",
"653 92 CURVE SMOOTH",
"655 141 OFFCURVE",
"632 175 OFFCURVE",
"578 198 CURVE"
);
}
);
};
guideLines = (
{
position = "{681, 76}";
showMeasurement = 1;
}
);
layerId = "4EEE5F69-EC45-40A1-97FB-96BD62B0B629";
name = "Bold Italic Aug 12 15, 20:08";
paths = (
{
closed = 1;
nodes = (
"539 175 OFFCURVE",
"523 165 OFFCURVE",
"483 144 CURVE",
"505 220 OFFCURVE",
"570 375 OFFCURVE",
"571 416 CURVE SMOOTH",
"572 442 OFFCURVE",
"503 511 OFFCURVE",
"464 511 CURVE SMOOTH",
"425 511 OFFCURVE",
"348 412 OFFCURVE",
"278 320 CURVE",
"290 365 OFFCURVE",
"297 412 OFFCURVE",
"297 442 CURVE SMOOTH",
"297 467 OFFCURVE",
"223 537 OFFCURVE",
"188 537 CURVE SMOOTH",
"106 537 OFFCURVE",
"-3 479 OFFCURVE",
"-3 422 CURVE SMOOTH",
"-3 376 OFFCURVE",
"24 341 OFFCURVE",
"76 318 CURVE",
"106 341 OFFCURVE",
"139 361 OFFCURVE",
"176 380 CURVE",
"196 355 LINE",
"131 285 LINE",
"107 223 OFFCURVE",
"69 126 OFFCURVE",
"69 93 CURVE SMOOTH",
"69 63 OFFCURVE",
"148 0 OFFCURVE",
"201 0 CURVE SMOOTH",
"231 0 OFFCURVE",
"240 118 OFFCURVE",
"258 187 CURVE",
"307 250 OFFCURVE",
"367 320 OFFCURVE",
"400 320 CURVE SMOOTH",
"426 320 OFFCURVE",
"348 118 OFFCURVE",
"347 91 CURVE SMOOTH",
"346 67 OFFCURVE",
"422 0 OFFCURVE",
"467 0 CURVE SMOOTH",
"529 0 OFFCURVE",
"653 54 OFFCURVE",
"653 104 CURVE SMOOTH",
"653 146 OFFCURVE",
"627 181 OFFCURVE",
"570 201 CURVE"
);
}
);
width = 661;
},
{
anchors = (
{
name = top;
position = "{354, 593}";
}
);
background = {
paths = (
{
closed = 1;
nodes = (
"483 175 OFFCURVE",
"467 165 OFFCURVE",
"427 144 CURVE",
"449 220 OFFCURVE",
"514 375 OFFCURVE",
"515 416 CURVE SMOOTH",
"516 442 OFFCURVE",
"447 511 OFFCURVE",
"408 511 CURVE SMOOTH",
"369 511 OFFCURVE",
"292 412 OFFCURVE",
"222 320 CURVE",
"234 365 OFFCURVE",
"241 412 OFFCURVE",
"241 442 CURVE SMOOTH",
"241 467 OFFCURVE",
"171 537 OFFCURVE",
"129 537 CURVE SMOOTH",
"92 537 OFFCURVE",
"24 468 OFFCURVE",
"24 426 CURVE SMOOTH",
"24 397 OFFCURVE",
"93 365 OFFCURVE",
"93 341 CURVE SMOOTH",
"93 316 OFFCURVE",
"13 141 OFFCURVE",
"13 93 CURVE SMOOTH",
"13 63 OFFCURVE",
"92 0 OFFCURVE",
"145 0 CURVE SMOOTH",
"175 0 OFFCURVE",
"184 118 OFFCURVE",
"202 187 CURVE",
"251 250 OFFCURVE",
"311 320 OFFCURVE",
"344 320 CURVE SMOOTH",
"370 320 OFFCURVE",
"292 118 OFFCURVE",
"291 91 CURVE SMOOTH",
"290 67 OFFCURVE",
"366 0 OFFCURVE",
"411 0 CURVE SMOOTH",
"473 0 OFFCURVE",
"597 54 OFFCURVE",
"597 104 CURVE SMOOTH",
"597 146 OFFCURVE",
"571 181 OFFCURVE",
"514 201 CURVE"
);
}
);
};
guideLines = (
{
position = "{625, 76}";
showMeasurement = 1;
}
);
layerId = "AF1B7CCB-9C31-456C-8386-1D362D80AEF6";
name = "Bold Italic";
paths = (
{
closed = 1;
nodes = (
"508 184 OFFCURVE",
"492 173 OFFCURVE",
"450 151 CURVE",
"473 231 OFFCURVE",
"541 394 OFFCURVE",
"542 437 CURVE SMOOTH",
"543 464 OFFCURVE",
"471 537 OFFCURVE",
"430 537 CURVE SMOOTH",
"389 537 OFFCURVE",
"308 433 OFFCURVE",
"234 336 CURVE",
"247 383 OFFCURVE",
"254 433 OFFCURVE",
"254 464 CURVE SMOOTH",
"254 490 OFFCURVE",
"181 564 OFFCURVE",
"137 564 CURVE SMOOTH",
"98 564 OFFCURVE",
"26 491 OFFCURVE",
"26 447 CURVE SMOOTH",
"26 417 OFFCURVE",
"107 383 OFFCURVE",
"107 358 CURVE SMOOTH",
"107 322 OFFCURVE",
"15 148 OFFCURVE",
"15 98 CURVE SMOOTH",
"15 66 OFFCURVE",
"98 0 OFFCURVE",
"153 0 CURVE SMOOTH",
"185 0 OFFCURVE",
"194 124 OFFCURVE",
"213 196 CURVE",
"265 263 OFFCURVE",
"328 336 OFFCURVE",
"362 336 CURVE SMOOTH",
"390 336 OFFCURVE",
"308 124 OFFCURVE",
"307 96 CURVE SMOOTH",
"306 70 OFFCURVE",
"385 0 OFFCURVE",
"433 0 CURVE SMOOTH",
"498 0 OFFCURVE",
"628 57 OFFCURVE",
"628 109 CURVE SMOOTH",
"628 153 OFFCURVE",
"601 190 OFFCURVE",
"541 211 CURVE"
);
}
);
width = 660;
}
);
unicode = 006E;
},
{
glyphname = ncommaaccent;
lastChange = "2015-09-19 14:09:49 +0000";
layers = (
{
components = (
{
name = n;
}
);
layerId = "AF1B7CCB-9C31-456C-8386-1D362D80AEF6";
name = "Bold Italic";
paths = (
{
closed = 1;
nodes = (
"324 -285 OFFCURVE",
"360 -231 OFFCURVE",
"396 -133 CURVE",
"375 -70 OFFCURVE",
"291 -46 OFFCURVE",
"221 -98 CURVE",
"232 -219 LINE",
"180 -307 LINE",
"189 -338 OFFCURVE",
"216 -351 OFFCURVE",
"252 -349 CURVE"
);
}
);
width = 659;
}
);
unicode = 0146;
},
{
glyphname = o;
lastChange = "2015-09-21 14:34:47 +0000";
layers = (
{
anchors = (
{
name = top;
position = "{304, 593}";
}
);
background = {
paths = (
{
closed = 1;
nodes = (
"144 512 OFFCURVE",
"121 430 OFFCURVE",
"180 370 CURVE",
"237 387 OFFCURVE",
"308 381 OFFCURVE",
"351 349 CURVE",
"336 245 OFFCURVE",
"278 155 OFFCURVE",
"172 114 CURVE",
"159 192 OFFCURVE",
"166 269 OFFCURVE",
"203 335 CURVE",
"204 405 OFFCURVE",
"132 445 OFFCURVE",
"69 413 CURVE",
"22 326 OFFCURVE",
"12 240 OFFCURVE",
"12 177 CURVE SMOOTH",
"13 109 OFFCURVE",
"119 0 OFFCURVE",
"210 0 CURVE SMOOTH",
"363 0 OFFCURVE",
"484 184 OFFCURVE",
"484 321 CURVE SMOOTH",
"484 417 OFFCURVE",
"371 525 OFFCURVE",
"230 542 CURVE"
);
}
);
};
guideLines = (
{
position = "{122, 564}";
}
);
layerId = "AF1B7CCB-9C31-456C-8386-1D362D80AEF6";
name = "Bold Italic";
paths = (
{
closed = 1;
nodes = (
"154 541 OFFCURVE",
"123 465 OFFCURVE",
"178 400 CURVE",
"243 410 OFFCURVE",
"314 404 OFFCURVE",
"357 372 CURVE",
"339 255 OFFCURVE",
"284 154 OFFCURVE",
"167 114 CURVE",
"154 197 OFFCURVE",
"172 288 OFFCURVE",
"217 358 CURVE",
"218 428 OFFCURVE",
"146 468 OFFCURVE",
"73 428 CURVE",
"30 343 OFFCURVE",
"12 254 OFFCURVE",
"12 177 CURVE SMOOTH",
"12 109 OFFCURVE",
"119 0 OFFCURVE",
"203 0 CURVE SMOOTH",
"376 0 OFFCURVE",
"490 206 OFFCURVE",
"490 344 CURVE SMOOTH",
"490 440 OFFCURVE",
"383 548 OFFCURVE",
"236 565 CURVE"
);
}
);
width = 511;
},
{
associatedMasterId = "AF1B7CCB-9C31-456C-8386-1D362D80AEF6";
background = {
paths = (
{
closed = 1;
nodes = (
"141 512 OFFCURVE",
"118 430 OFFCURVE",
"177 370 CURVE",
"234 387 OFFCURVE",
"305 381 OFFCURVE",
"348 349 CURVE",
"333 245 OFFCURVE",
"275 155 OFFCURVE",
"169 114 CURVE",
"156 192 OFFCURVE",
"163 269 OFFCURVE",
"200 335 CURVE",
"201 405 OFFCURVE",
"129 445 OFFCURVE",
"66 413 CURVE",
"19 326 OFFCURVE",
"9 240 OFFCURVE",
"9 177 CURVE SMOOTH",
"10 109 OFFCURVE",
"116 0 OFFCURVE",
"207 0 CURVE SMOOTH",
"360 0 OFFCURVE",
"481 184 OFFCURVE",
"481 321 CURVE SMOOTH",
"481 417 OFFCURVE",
"368 525 OFFCURVE",
"227 542 CURVE"
);
}
);
};
guideLines = (
{
position = "{119, 564}";
}
);
layerId = "E41906E5-F4B1-4C87-9C31-4B856009C923";
name = "Bold Italic Sep 18 15, 19:20";
paths = (
{
closed = 1;
nodes = (
"141 512 OFFCURVE",
"118 430 OFFCURVE",
"177 370 CURVE",
"234 387 OFFCURVE",
"305 381 OFFCURVE",
"348 349 CURVE",
"333 245 OFFCURVE",
"275 155 OFFCURVE",
"169 114 CURVE",
"156 192 OFFCURVE",
"163 269 OFFCURVE",
"200 335 CURVE",
"201 405 OFFCURVE",
"129 445 OFFCURVE",
"66 413 CURVE",
"19 326 OFFCURVE",
"9 240 OFFCURVE",
"9 177 CURVE SMOOTH",
"10 109 OFFCURVE",
"116 0 OFFCURVE",
"207 0 CURVE SMOOTH",
"360 0 OFFCURVE",
"481 184 OFFCURVE",
"481 321 CURVE SMOOTH",
"481 417 OFFCURVE",
"368 525 OFFCURVE",
"227 542 CURVE"
);
}
);
width = 505;
}
);
unicode = 006F;
},
{
glyphname = oe;
lastChange = "2015-09-18 14:26:31 +0000";
layers = (
{
background = {
components = (
{
name = o;
}
);
paths = (
{
closed = 1;
nodes = (
"618 0 OFFCURVE",
"752 57 OFFCURVE",
"752 121 CURVE SMOOTH",
"752 169 OFFCURVE",
"725 205 OFFCURVE",
"673 221 CURVE",
"601 172 OFFCURVE",
"537 139 OFFCURVE",
"467 132 CURVE",
"464 160 OFFCURVE",
"464 186 OFFCURVE",
"466 213 CURVE",
"645 239 OFFCURVE",
"765 327 OFFCURVE",
"765 410 CURVE SMOOTH",
"765 477 OFFCURVE",
"688 564 OFFCURVE",
"571 564 CURVE SMOOTH",
"407 564 OFFCURVE",
"303 334 OFFCURVE",
"303 196 CURVE SMOOTH",
"303 113 OFFCURVE",
"423 0 OFFCURVE",
"523 0 CURVE SMOOTH"
);
},
{
closed = 1;
nodes = (
"498 350 OFFCURVE",
"535 403 OFFCURVE",
"585 440 CURVE",
"612 433 OFFCURVE",
"624 419 OFFCURVE",
"624 402 CURVE SMOOTH",
"624 371 OFFCURVE",
"565 318 OFFCURVE",
"481 288 CURVE"
);
}
);
};
layerId = "AF1B7CCB-9C31-456C-8386-1D362D80AEF6";
name = "Bold Italic";
paths = (
{
closed = 1;
nodes = (
"601 172 OFFCURVE",
"537 139 OFFCURVE",
"467 132 CURVE",
"464 160 OFFCURVE",
"464 186 OFFCURVE",
"466 213 CURVE",
"645 239 OFFCURVE",
"765 327 OFFCURVE",
"765 410 CURVE SMOOTH",
"765 477 OFFCURVE",
"688 564 OFFCURVE",
"571 564 CURVE SMOOTH",
"507 564 OFFCURVE",
"455 530 OFFCURVE",
"414 483 CURVE",
"369 526 OFFCURVE",
"306 557 OFFCURVE",
"233 565 CURVE",
"168 546 OFFCURVE",
"135 494 OFFCURVE",
"152 441 CURVE",
"128 447 OFFCURVE",
"99 444 OFFCURVE",
"70 428 CURVE",
"27 343 OFFCURVE",
"9 254 OFFCURVE",
"9 177 CURVE SMOOTH",
"9 109 OFFCURVE",
"116 0 OFFCURVE",
"200 0 CURVE SMOOTH",
"268 0 OFFCURVE",
"323 30 OFFCURVE",
"367 75 CURVE",
"414 28 OFFCURVE",
"474 0 OFFCURVE",
"523 0 CURVE SMOOTH",
"618 0 OFFCURVE",
"752 57 OFFCURVE",
"752 121 CURVE SMOOTH",
"752 169 OFFCURVE",
"725 205 OFFCURVE",
"673 221 CURVE"
);
},
{
closed = 1;
nodes = (
"612 433 OFFCURVE",
"624 419 OFFCURVE",
"624 402 CURVE SMOOTH",
"624 371 OFFCURVE",
"565 318 OFFCURVE",
"482 288 CURVE",
"482 293 LINE",
"500 353 OFFCURVE",
"536 404 OFFCURVE",
"585 440 CURVE"
);
},
{
closed = 1;
nodes = (
"151 197 OFFCURVE",
"169 288 OFFCURVE",
"214 358 CURVE",
"214 375 OFFCURVE",
"210 390 OFFCURVE",
"203 403 CURVE",
"259 408 OFFCURVE",
"317 399 OFFCURVE",
"354 372 CURVE",
"341 255 OFFCURVE",
"281 154 OFFCURVE",
"164 114 CURVE"
);
}
);
width = 806;
},
{
associatedMasterId = "AF1B7CCB-9C31-456C-8386-1D362D80AEF6";
background = {
paths = (
{
closed = 1;
nodes = (
"621 0 OFFCURVE",
"755 57 OFFCURVE",
"755 121 CURVE SMOOTH",
"755 169 OFFCURVE",
"728 205 OFFCURVE",
"676 221 CURVE",
"604 172 OFFCURVE",
"540 139 OFFCURVE",
"470 132 CURVE",
"467 160 OFFCURVE",
"467 186 OFFCURVE",
"469 213 CURVE",
"648 239 OFFCURVE",
"768 327 OFFCURVE",
"768 410 CURVE SMOOTH",
"768 477 OFFCURVE",
"691 564 OFFCURVE",
"574 564 CURVE SMOOTH",
"410 564 OFFCURVE",
"306 334 OFFCURVE",
"306 196 CURVE SMOOTH",
"306 113 OFFCURVE",
"426 0 OFFCURVE",
"526 0 CURVE SMOOTH"
);
},
{
closed = 1;
nodes = (
"501 350 OFFCURVE",
"538 403 OFFCURVE",
"588 440 CURVE",
"615 433 OFFCURVE",
"627 419 OFFCURVE",
"627 402 CURVE SMOOTH",
"627 371 OFFCURVE",
"568 318 OFFCURVE",
"484 288 CURVE"
);
},
{
closed = 1;
nodes = (
"144 512 OFFCURVE",
"121 430 OFFCURVE",
"180 370 CURVE",
"237 387 OFFCURVE",
"308 381 OFFCURVE",
"351 349 CURVE",
"336 245 OFFCURVE",
"278 155 OFFCURVE",
"172 114 CURVE",
"159 192 OFFCURVE",
"166 269 OFFCURVE",
"203 335 CURVE",
"204 405 OFFCURVE",
"132 445 OFFCURVE",
"69 413 CURVE",
"22 326 OFFCURVE",
"12 240 OFFCURVE",
"12 177 CURVE SMOOTH",
"13 109 OFFCURVE",
"119 0 OFFCURVE",
"210 0 CURVE SMOOTH",
"363 0 OFFCURVE",
"484 184 OFFCURVE",
"484 321 CURVE SMOOTH",
"484 417 OFFCURVE",
"371 525 OFFCURVE",
"230 542 CURVE"
);
}
);
};
layerId = "5286417E-094A-4E68-B522-4E76E8451589";
name = "Bold Italic Sep 18 15, 19:55";
paths = (
{
closed = 1;
nodes = (
"604 172 OFFCURVE",
"540 139 OFFCURVE",
"470 132 CURVE",
"467 160 OFFCURVE",
"467 186 OFFCURVE",
"469 213 CURVE",
"648 239 OFFCURVE",
"768 327 OFFCURVE",
"768 410 CURVE SMOOTH",
"768 477 OFFCURVE",
"691 564 OFFCURVE",
"574 564 CURVE SMOOTH",
"501 564 OFFCURVE",
"443 519 OFFCURVE",
"401 465 CURVE",
"351 507 OFFCURVE",
"303 533 OFFCURVE",
"230 542 CURVE",
"165 519 OFFCURVE",
"136 467 OFFCURVE",
"151 417 CURVE",
"127 427 OFFCURVE",
"97 427 OFFCURVE",
"69 413 CURVE",
"22 326 OFFCURVE",
"12 240 OFFCURVE",
"12 177 CURVE SMOOTH",
"13 109 OFFCURVE",
"119 0 OFFCURVE",
"210 0 CURVE SMOOTH",
"276 0 OFFCURVE",
"331 34 OFFCURVE",
"372 73 CURVE",
"408 37 OFFCURVE",
"469 0 OFFCURVE",
"526 0 CURVE SMOOTH",
"621 0 OFFCURVE",
"755 57 OFFCURVE",
"755 121 CURVE SMOOTH",
"755 169 OFFCURVE",
"728 205 OFFCURVE",
"676 221 CURVE"
);
},
{
closed = 1;
nodes = (
"615 433 OFFCURVE",
"627 419 OFFCURVE",
"627 402 CURVE SMOOTH",
"627 371 OFFCURVE",
"568 318 OFFCURVE",
"484 288 CURVE",
"501 350 OFFCURVE",
"538 403 OFFCURVE",
"588 440 CURVE"
);
},
{
closed = 1;
nodes = (
"159 192 OFFCURVE",
"166 269 OFFCURVE",
"203 335 CURVE",
"203 349 OFFCURVE",
"200 362 OFFCURVE",
"195 374 CURVE",
"249 386 OFFCURVE",
"312 378 OFFCURVE",
"351 349 CURVE",
"336 245 OFFCURVE",
"278 155 OFFCURVE",
"172 114 CURVE"
);
}
);
width = 809;
}
);
leftMetricsKey = o;
rightMetricsKey = e;
unicode = 0153;
},
{
glyphname = p;
lastChange = "2015-09-21 14:17:46 +0000";
layers = (
{
background = {
paths = (
{
closed = 1;
nodes = (
"97 291 OFFCURVE",
"-31 -105 OFFCURVE",
"-31 -159 CURVE SMOOTH",
"-31 -191 OFFCURVE",
"46 -252 OFFCURVE",
"97 -252 CURVE SMOOTH",
"139 -252 OFFCURVE",
"124 -75 OFFCURVE",
"172 72 CURVE",
"131 56 LINE",
"147 30 OFFCURVE",
"183 0 OFFCURVE",
"224 0 CURVE SMOOTH",
"394 0 OFFCURVE",
"529 202 OFFCURVE",
"529 359 CURVE SMOOTH",
"529 451 OFFCURVE",
"469 537 OFFCURVE",
"360 537 CURVE SMOOTH",
"341 537 OFFCURVE",
"311 530 OFFCURVE",
"292 520 CURVE",
"241 442 LINE",
"241 467 OFFCURVE",
"171 537 OFFCURVE",
"129 537 CURVE SMOOTH",
"92 537 OFFCURVE",
"24 468 OFFCURVE",
"24 426 CURVE SMOOTH",
"24 397 OFFCURVE",
"97 365 OFFCURVE",
"97 341 CURVE SMOOTH"
);
},
{
closed = 1;
nodes = (
"198 247 OFFCURVE",
"246 389 OFFCURVE",
"317 389 CURVE SMOOTH",
"355 389 OFFCURVE",
"376 364 OFFCURVE",
"376 323 CURVE SMOOTH",
"376 234 OFFCURVE",
"286 122 OFFCURVE",
"224 122 CURVE SMOOTH",
"208 122 OFFCURVE",
"198 134 OFFCURVE",
"198 159 CURVE SMOOTH"
);
}
);
};
layerId = "AF1B7CCB-9C31-456C-8386-1D362D80AEF6";
name = "Bold Italic";
paths = (
{
closed = 1;
nodes = (
"103 306 OFFCURVE",
"-31 -110 OFFCURVE",
"-31 -167 CURVE SMOOTH",
"-31 -201 OFFCURVE",
"49 -265 OFFCURVE",
"103 -265 CURVE SMOOTH",
"147 -265 OFFCURVE",
"131 -79 OFFCURVE",
"182 76 CURVE",
"139 59 LINE",
"156 32 OFFCURVE",
"193 0 OFFCURVE",
"236 0 CURVE SMOOTH",
"400 0 OFFCURVE",
"553 195 OFFCURVE",
"553 356 CURVE SMOOTH",
"553 464 OFFCURVE",
"482 547 OFFCURVE",
"373 547 CURVE SMOOTH",
"349 547 OFFCURVE",
"322 543 OFFCURVE",
"295 534 CURVE",
"256 468 LINE",
"237 506 OFFCURVE",
"178 564 OFFCURVE",
"137 564 CURVE SMOOTH",
"98 564 OFFCURVE",
"26 491 OFFCURVE",
"26 447 CURVE SMOOTH",
"26 417 OFFCURVE",
"103 383 OFFCURVE",
"103 358 CURVE SMOOTH"
);
},
{
closed = 1;
nodes = (
"209 259 OFFCURVE",
"259 408 OFFCURVE",
"334 408 CURVE SMOOTH",
"374 408 OFFCURVE",
"396 382 OFFCURVE",
"396 339 CURVE SMOOTH",
"396 246 OFFCURVE",
"301 128 OFFCURVE",
"236 128 CURVE SMOOTH",
"220 128 OFFCURVE",
"209 141 OFFCURVE",
"209 167 CURVE SMOOTH"
);
}
);
width = 582;
},
{
associatedMasterId = "AF1B7CCB-9C31-456C-8386-1D362D80AEF6";
background = {
components = (
{
name = p.ss02;
}
);
};
layerId = "CC3654D4-AEC0-4F36-A44D-BAEB0D798C28";
name = "Bold Italic Aug 12 15, 21:36";
paths = (
{
closed = 1;
nodes = (
"287 442 LINE",
"287 477 OFFCURVE",
"223 537 OFFCURVE",
"188 537 CURVE SMOOTH",
"106 537 OFFCURVE",
"-3 479 OFFCURVE",
"-3 422 CURVE SMOOTH",
"-3 376 OFFCURVE",
"24 341 OFFCURVE",
"76 318 CURVE",
"106 341 OFFCURVE",
"139 361 OFFCURVE",
"176 380 CURVE",
"196 355 LINE",
"127 284 LINE",
"88 128 OFFCURVE",
"15 -118 OFFCURVE",
"15 -159 CURVE SMOOTH",
"15 -191 OFFCURVE",
"92 -252 OFFCURVE",
"143 -252 CURVE SMOOTH",
"185 -252 OFFCURVE",
"170 -75 OFFCURVE",
"218 72 CURVE",
"177 56 LINE",
"193 30 OFFCURVE",
"229 0 OFFCURVE",
"270 0 CURVE SMOOTH",
"440 0 OFFCURVE",
"575 202 OFFCURVE",
"575 359 CURVE SMOOTH",
"575 451 OFFCURVE",
"515 537 OFFCURVE",
"406 537 CURVE SMOOTH",
"387 537 OFFCURVE",
"357 530 OFFCURVE",
"338 520 CURVE"
);
},
{
closed = 1;
nodes = (
"244 247 OFFCURVE",
"292 389 OFFCURVE",
"363 389 CURVE SMOOTH",
"401 389 OFFCURVE",
"422 364 OFFCURVE",
"422 323 CURVE SMOOTH",
"422 234 OFFCURVE",
"332 122 OFFCURVE",
"270 122 CURVE SMOOTH",
"254 122 OFFCURVE",
"244 134 OFFCURVE",
"244 159 CURVE SMOOTH"
);
}
);
width = 601;
}
);
leftMetricsKey = n;
unicode = 0070;
},
{
glyphname = q;
lastChange = "2015-09-21 14:31:36 +0000";
layers = (
{
background = {
paths = (
{
closed = 1;
nodes = (
"465 -211 OFFCURVE",
"590 -73 OFFCURVE",
"644 -17 CURVE",
"636 27 OFFCURVE",
"604 67 OFFCURVE",
"556 67 CURVE SMOOTH",
"509 67 OFFCURVE",
"473 21 OFFCURVE",
"420 -59 CURVE",
"448 36 OFFCURVE",
"466 101 OFFCURVE",
"483 161 CURVE SMOOTH",
"501 225 OFFCURVE",
"547 366 OFFCURVE",
"547 416 CURVE SMOOTH",
"547 442 OFFCURVE",
"473 511 OFFCURVE",
"420 511 CURVE SMOOTH",
"405 511 OFFCURVE",
"392 483 OFFCURVE",
"387 459 CURVE",
"376 493 OFFCURVE",
"329 537 OFFCURVE",
"290 537 CURVE SMOOTH",
"122 537 OFFCURVE",
"13 324 OFFCURVE",
"13 159 CURVE SMOOTH",
"13 99 OFFCURVE",
"94 0 OFFCURVE",
"158 0 CURVE SMOOTH",
"224 0 OFFCURVE",
"291 95 OFFCURVE",
"346 184 CURVE",
"369 170 LINE",
"351 138 OFFCURVE",
"334 106 OFFCURVE",
"331 89 CURVE SMOOTH",
"324 49 OFFCURVE",
"281 -93 OFFCURVE",
"281 -118 CURVE SMOOTH",
"281 -151 OFFCURVE",
"360 -211 OFFCURVE",
"416 -211 CURVE SMOOTH"
);
},
{
closed = 1;
nodes = (
"175 275 OFFCURVE",
"232 416 OFFCURVE",
"327 416 CURVE SMOOTH",
"342 416 OFFCURVE",
"358 412 OFFCURVE",
"375 405 CURVE",
"346 287 OFFCURVE",
"260 192 OFFCURVE",
"163 132 CURVE"
);
}
);
};
layerId = "AF1B7CCB-9C31-456C-8386-1D362D80AEF6";
name = "Bold Italic";
paths = (
{
closed = 1;
nodes = (
"485 -222 OFFCURVE",
"602 -103 OFFCURVE",
"666 -41 CURVE",
"662 2 OFFCURVE",
"619 54 OFFCURVE",
"577 54 CURVE SMOOTH",
"526 54 OFFCURVE",
"482 -12 OFFCURVE",
"441 -62 CURVE",
"471 38 OFFCURVE",
"489 106 OFFCURVE",
"507 169 CURVE SMOOTH",
"526 236 OFFCURVE",
"574 384 OFFCURVE",
"574 437 CURVE SMOOTH",
"574 464 OFFCURVE",
"497 537 OFFCURVE",
"441 537 CURVE SMOOTH",
"425 537 OFFCURVE",
"412 507 OFFCURVE",
"406 482 CURVE",
"395 518 OFFCURVE",
"346 564 OFFCURVE",
"305 564 CURVE SMOOTH",
"128 564 OFFCURVE",
"14 340 OFFCURVE",
"14 167 CURVE SMOOTH",
"14 104 OFFCURVE",
"99 0 OFFCURVE",
"166 0 CURVE SMOOTH",
"235 0 OFFCURVE",
"306 100 OFFCURVE",
"363 193 CURVE",
"388 179 LINE",
"369 145 OFFCURVE",
"351 111 OFFCURVE",
"348 93 CURVE SMOOTH",
"340 51 OFFCURVE",
"295 -98 OFFCURVE",
"295 -124 CURVE SMOOTH",
"295 -159 OFFCURVE",
"378 -222 OFFCURVE",
"437 -222 CURVE SMOOTH"
);
},
{
closed = 1;
nodes = (
"184 289 OFFCURVE",
"244 437 OFFCURVE",
"343 437 CURVE SMOOTH",
"359 437 OFFCURVE",
"376 433 OFFCURVE",
"394 425 CURVE",
"363 301 OFFCURVE",
"273 202 OFFCURVE",
"171 139 CURVE"
);
}
);
width = 647;
}
);
leftMetricsKey = a;
unicode = 0071;
},
